<svg width="120" height="120" viewBox="0 0 120 120" fill="none" xmlns="http://www.w3.org/2000/svg">
<circle cx="60" cy="60" r="59" fill="#B4BBC6" stroke="#94A3B8" stroke-width="2"/>
<path d="M71.536 60.7183H70.49V61.7643C70.49 62.0333 70.6095 62.362 71.1475 62.362H72.1935V61.316C72.1935 61.0769 72.1038 60.7183 71.536 60.7183Z" fill="#0B0F19"/>
<path d="M71.4464 64.0952H70.6096V72.7324C70.6096 73.091 70.8487 73.3301 71.1775 73.36V73.3899H72.1338V64.7229C72.104 64.3343 71.8947 64.0952 71.4464 64.0952Z" fill="#0B0F19"/>
<path d="M20.8189 70.8493C20.4602 70.4907 20.0119 70.5804 19.743 70.8194C18.6372 71.7459 17.621 72.1045 16.306 72.1045C13.676 72.1045 11.584 69.893 11.584 67.0537C11.584 64.2145 13.6163 62.0328 16.306 62.0328C17.5911 62.0328 18.6671 62.4213 19.6832 63.288C19.9223 63.4972 20.3407 63.5869 20.6396 63.2581C20.9085 62.9891 21.1775 62.6903 21.1775 62.6903L21.2373 62.6305L21.1775 62.5707C20.1016 61.5247 18.7567 60.5684 16.306 60.5684C12.7495 60.5684 10 63.4375 10 67.0836C10 70.7596 12.6898 73.5391 16.2761 73.5391C18.2785 73.5391 19.743 72.8816 21.2373 71.3275L21.2672 71.2677L21.2373 71.208C21.2373 71.2677 21.1476 71.1482 20.8189 70.8493Z" fill="#0B0F19"/>
<path d="M43.5325 63.8859C42.2175 63.8859 41.1714 64.4538 40.3645 65.5895C40.0059 64.8722 39.1691 63.8262 37.4356 63.8262C35.9413 63.8262 35.1344 64.6032 34.5366 65.3803V64.7227C34.5366 64.2744 34.2677 64.0055 33.8492 64.0055H33.0125V73.3002H33.8492C34.2677 73.3002 34.5068 73.1806 34.5068 72.6726V68.0402C34.5068 66.4263 35.5528 65.2308 36.9575 65.2308C38.392 65.2308 39.2288 66.2171 39.2288 67.8907V72.6726C39.2288 73.1209 39.4679 73.3301 39.8863 73.3301H40.7231V68.0103C40.7231 66.0975 41.9485 65.2607 43.1738 65.2607C44.6383 65.2607 45.4751 66.247 45.4751 67.9206V72.5829C45.4751 72.9714 45.5648 73.3301 46.1625 73.3301H46.9694V67.6217C46.9993 65.3205 45.6843 63.8859 43.5325 63.8859Z" fill="#0B0F19"/>
<path d="M54.3216 63.916C52.9469 63.916 51.8112 64.5137 50.8847 65.7989V64.8425C50.8847 64.3643 50.6157 64.1252 50.1376 64.1252H49.3904V75.5418C49.3904 75.9901 49.5996 76.1993 50.0479 76.1993H50.8847V71.7761C51.8112 72.9716 52.917 73.5693 54.3216 73.5693C56.4735 73.5693 58.7448 71.8658 58.7448 68.7277C58.7448 65.5896 56.4735 63.916 54.3216 63.916ZM57.1908 68.7277C57.1908 70.76 55.9056 72.1647 54.0527 72.1647C52.4687 72.1647 50.825 70.8496 50.825 68.6978C50.825 66.546 52.4687 65.231 54.0527 65.231C55.6068 65.2609 57.1908 66.4563 57.1908 68.7277Z" fill="#0B0F19"/>
<path d="M81.9666 64.7526V65.5297C81.339 64.7228 80.2332 63.8262 78.4699 63.8262C77.3641 63.8262 76.2583 64.2446 75.4514 64.9917C74.5847 65.7987 74.1064 66.9642 74.1064 68.2195C74.1064 71.0587 76.3479 72.5829 78.4699 72.5829C79.8446 72.5829 81.0102 72.0151 81.9965 70.8196V71.7162C81.9965 73.7484 80.801 74.914 78.7687 74.914C77.7825 74.914 76.8261 74.6749 75.9295 74.1669C75.6904 74.0174 75.5111 73.9577 75.3617 73.9577C75.1824 73.9577 75.003 74.0474 74.8835 74.2565C74.6444 74.6451 74.5547 74.8244 74.5547 74.8244L74.5248 74.8841L74.5846 74.9141C75.8099 75.7808 77.2146 76.1992 78.7687 76.1992C81.7573 76.1992 83.4907 74.5554 83.4907 71.6863V64.0653H82.6539C82.3849 64.0653 81.9666 64.3043 81.9666 64.7526ZM82.0563 68.3091C82.0563 70.2219 80.3826 71.3576 78.7688 71.3576C77.0055 71.3576 75.6905 70.0425 75.6905 68.3091C75.6905 66.5458 77.0055 65.2906 78.7688 65.2906C80.3528 65.2607 82.0563 66.3067 82.0563 68.3091Z" fill="#0B0F19"/>
<path d="M90.5437 63.916C89.2287 63.916 88.2125 64.454 87.4952 65.5299V64.7528C87.4952 64.3045 87.1366 64.1252 86.778 64.1252H85.9412V73.4199H87.4654L87.4354 68.1001C87.4354 66.4564 88.5412 65.3207 90.1252 65.3207C91.6793 65.3207 92.5759 66.3069 92.5759 68.0105V72.7923C92.5759 73.2406 92.7851 73.4199 93.1736 73.4199H94.0702V67.6219C94.1002 65.3506 92.7254 63.916 90.5437 63.916Z" fill="#0B0F19"/>
<path d="M64.3635 63.9458C63.1979 63.9458 62.1519 64.1849 61.0162 64.6929L60.9564 64.7229L60.9863 64.7826C60.9863 64.7826 61.1358 65.2011 61.2553 65.4999C61.3749 65.7988 61.7335 65.8287 62.0025 65.7091C62.7795 65.4103 63.4669 65.2608 64.244 65.2608C65.9475 65.2608 66.874 66.1275 66.874 67.6816V69.9231C66.874 71.3278 65.6187 72.314 63.8853 72.314C62.8094 72.314 61.6438 71.7761 61.6438 70.5806C61.6438 69.4449 62.5703 68.8173 64.244 68.8173H64.9911C65.4394 68.8173 65.6486 68.6081 65.6486 68.1897V67.6816H64.0945C61.5542 67.6816 60.1196 68.7575 60.1196 70.6105C60.1196 72.0152 61.1956 73.5692 63.6164 73.5692C64.9314 73.5692 66.0371 73.0612 66.8441 72.1048V72.7324C66.8441 73.1509 67.0533 73.3302 67.5016 73.3302H68.3384V67.6517C68.3085 65.2907 66.9038 63.9458 64.3635 63.9458Z" fill="#0B0F19"/>
<path d="M26.7363 63.9458C25.3017 63.9458 24.2856 64.3044 23.389 64.693L23.3292 64.7527L23.359 64.8125C23.359 64.8125 23.5085 65.2309 23.628 65.5298C23.7476 65.8286 24.1062 65.8585 24.3752 65.739C25.1522 65.4401 25.8396 65.2907 26.6167 65.2907C28.3202 65.2907 29.2766 66.1574 29.2766 67.7115V69.9231C29.2766 71.3277 28.0213 72.314 26.2879 72.314C25.212 72.314 24.0763 71.776 24.0763 70.5806C24.0763 69.4449 25.0028 68.8173 26.6465 68.8173H27.3937C27.842 68.8173 28.0512 68.6081 28.0512 68.1897V67.6816H26.527C23.9866 67.6816 22.5222 68.7575 22.5222 70.6105C22.5222 72.0151 23.5981 73.5692 25.989 73.5692C27.304 73.5692 28.4098 73.0612 29.2467 72.1048V72.7324C29.2467 73.1508 29.4559 73.3301 29.8743 73.3301H30.7111V67.6517C30.6813 65.2907 29.2766 63.9458 26.7363 63.9458Z" fill="#0B0F19"/>
<path d="M109.462 67.4125C109.253 67.2332 100.735 61.2858 100.347 61.0467L100.227 60.957V62.4215C100.227 62.8996 100.466 63.0491 100.765 63.2882L100.825 63.3181C101.243 63.617 107.31 67.831 108.117 68.3988C107.31 68.9666 101.153 73.2404 100.765 73.4795C100.287 73.7784 100.257 73.9876 100.257 74.406V75.8106C100.257 75.8106 109.312 69.5046 109.492 69.3552C109.91 69.0563 110 68.6678 110 68.4287V68.2494C110 67.9505 109.821 67.6516 109.462 67.4125Z" fill="#0B0F19"/>
<path d="M104.142 69.0563C104.381 69.0563 104.62 68.9667 104.859 68.7874C105.158 68.5782 105.427 68.3989 105.427 68.3989L105.517 68.3391L105.427 68.2794C105.397 68.2494 101.422 65.4999 101.004 65.2309C100.825 65.0815 100.586 65.0516 100.436 65.1412C100.287 65.2309 100.167 65.3803 100.167 65.6194V66.5459L100.197 66.5758C100.227 66.6058 102.947 68.4886 103.485 68.8472C103.724 68.9966 103.933 69.0563 104.142 69.0563Z" fill="#0B0F19"/>
<path d="M31.3387 53.52C31.01 53.1913 30.5916 53.4005 30.4123 53.55C29.7249 54.1776 28.9478 54.4765 28.111 54.4765C26.2879 54.4765 24.8534 52.9523 24.8534 50.9798C24.8534 49.0371 26.258 47.5129 28.0213 47.5129C29.0375 47.5129 29.695 47.9612 30.2329 48.3796C30.6215 48.7084 30.9502 48.7383 31.2192 48.4394C31.4583 48.2003 31.7273 47.9014 31.7273 47.9014L31.787 47.8417L31.7273 47.7819C30.6812 46.6463 29.5157 46.1382 28.0213 46.1382C25.3614 46.1382 23.2395 48.2601 23.2395 50.9798C23.2395 53.6397 25.3913 55.8214 28.0213 55.8214C29.964 55.8214 31.0697 54.8351 31.787 53.9983H31.8468L31.787 53.9386C31.787 53.9386 31.6376 53.8189 31.3387 53.52Z" fill="#0B0F19"/>
<path d="M41.2611 43H40.2151V44.046C40.2151 44.315 40.3346 44.6437 40.8726 44.6437H41.9186V43.7173C41.9485 43.2989 41.6795 43 41.2611 43Z" fill="#0B0F19"/>
<path d="M41.1416 46.377H40.2749V55.0141C40.2749 55.3728 40.514 55.6118 40.8427 55.6417V55.6717H41.7991V47.0046C41.829 46.6161 41.5899 46.377 41.1416 46.377Z" fill="#0B0F19"/>
<path d="M50.9741 46.8852C50.8546 47.2139 48.5832 52.7131 48.1349 53.7292C47.7165 52.6832 45.4451 47.1841 45.3256 46.8852C45.1761 46.5266 44.8773 46.3174 44.4888 46.3174H43.4128L43.4726 46.407C43.5025 46.5266 47.1187 54.8649 47.2682 55.1937C47.4176 55.5822 47.6567 55.6718 48.0452 55.6718H48.2245C48.5832 55.6718 48.8223 55.5224 48.9717 55.1937C49.1211 54.8649 52.7374 46.5864 52.7673 46.4967L52.827 46.3772H51.781C51.3925 46.3772 51.1235 46.5266 50.9741 46.8852Z" fill="#0B0F19"/>
<path d="M60.3288 50.4716H56.7723C56.3837 50.4716 56.1446 50.7107 56.1446 51.0992V51.6969H56.2343C57.9379 51.6671 59.9104 51.6671 60.7173 51.6671C61.1955 51.6671 61.5541 51.5475 61.8231 51.2786C62.0622 51.0096 62.1817 50.5912 62.1519 50.113C61.8829 47.7221 60.1793 46.168 57.8482 46.168C55.3079 46.168 53.3652 48.26 53.3652 51.0096C53.3652 53.789 55.3676 55.8512 58.0275 55.8512C59.5816 55.8512 60.7472 55.3132 61.853 54.1178L61.9127 54.058L61.853 53.9983C61.853 53.9983 61.6438 53.8189 61.4047 53.6097C61.0461 53.3109 60.7173 53.4304 60.538 53.6097C59.8805 54.2075 59.0735 54.5063 58.0873 54.5063C56.3838 54.5063 55.1285 53.281 54.9193 51.4579C54.9193 51.4579 54.8894 51.2487 54.8894 50.9797C54.8894 50.6809 54.9193 50.4716 54.9193 50.4716C55.0987 48.6785 56.2941 47.4233 57.8183 47.4233C59.3425 47.4233 60.4483 48.4394 60.5978 49.9935C60.6277 50.1429 60.5978 50.2624 60.5678 50.3222C60.4781 50.4418 60.4184 50.4716 60.3288 50.4716Z" fill="#0B0F19"/>
<path d="M17.352 43.4782C17.1727 43.1196 16.9635 43 16.575 43H16.2164C15.9175 43 15.6485 43.1793 15.4991 43.4483C15.3795 43.7173 10.1195 55.4328 10.0597 55.5523L10 55.6718H10.9862C11.4046 55.6718 11.6736 55.4925 11.8828 55.0741C12.0622 54.7155 12.9289 52.743 13.0783 52.4142H16.9336C17.4118 52.4142 17.7107 52.1154 17.7107 51.6671V51.0095H13.676L16.3957 44.9127C16.9635 46.168 20.7591 54.835 20.9384 55.1937C21.1775 55.6719 21.7454 55.6718 21.9247 55.6718H22.8213L22.7615 55.5523C22.7615 55.4328 17.5314 43.8667 17.352 43.4782Z" fill="#0B0F19"/>
<path d="M38.0633 54.3273C37.9139 54.2376 37.7047 54.2078 37.4955 54.2676C37.1667 54.3573 36.9276 54.417 36.6288 54.417C35.6724 54.417 35.1643 53.9388 35.1643 52.9526V47.7224H38.0633V47.0948C38.0633 46.6166 37.6449 46.3775 37.2863 46.3775H35.1345V43.7476C35.1345 43.3291 34.8356 43.0303 34.3873 43.0303H33.6401V53.1618C33.6401 54.8653 34.5666 55.8217 36.3 55.8217C36.9575 55.8217 37.7047 55.6722 38.1829 55.4331L38.2128 55.4032V55.3733C38.2128 55.3733 38.2427 55.1043 38.2427 54.7755C38.2727 54.5365 38.153 54.417 38.0633 54.3273Z" fill="#0B0F19"/>
</svg>
