<svg width="512" height="512" viewBox="0 0 512 512" fill="none" xmlns="http://www.w3.org/2000/svg">
<g clip-path="url(#clip0_4136_23)">
<mask id="mask0_4136_23" style="mask-type:alpha" maskUnits="userSpaceOnUse" x="40" y="0" width="432" height="513">
<path d="M470.556 131.832C470.293 118.008 470.042 104.95 470.042 92.3164C470.042 82.419 462.021 74.395 452.121 74.395C375.478 74.395 317.123 52.3685 268.483 5.0754C261.524 -1.69169 250.451 -1.6893 243.496 5.0754C194.859 52.3685 136.515 74.395 59.8761 74.395C49.9788 74.395 41.9548 82.419 41.9548 92.3164C41.9548 104.952 41.7063 118.016 41.4411 131.841C38.9847 260.483 35.6202 436.664 250.119 511.013C252.021 511.673 254.005 512.002 255.988 512.002C257.971 512.002 259.957 511.673 261.856 511.013C476.372 436.661 473.013 260.476 470.556 131.832ZM255.99 475.063C72.0292 408.236 74.8106 261.842 77.2789 132.525C77.4271 124.763 77.5704 117.241 77.6708 109.867C149.452 106.837 206.852 85.0857 255.99 42.28C305.133 85.0857 362.543 106.84 434.329 109.867C434.429 117.239 434.573 124.756 434.721 132.513C437.187 261.835 439.966 408.233 255.99 475.063Z" fill="black"/>
<path d="M317.704 193.746L231.206 280.239L194.295 243.328C187.297 236.332 175.949 236.332 168.952 243.328C161.953 250.33 161.953 261.675 168.952 268.674L218.535 318.256C222.033 321.754 226.621 323.503 231.206 323.503C235.792 323.503 240.379 321.754 243.878 318.256L343.045 219.092C350.046 212.093 350.046 200.745 343.047 193.748C336.051 186.75 324.703 186.747 317.704 193.746Z" fill="black"/>
</mask>
<g mask="url(#mask0_4136_23)">
<rect width="512" height="512" fill="url(#paint0_linear_4136_23)"/>
</g>
</g>
<defs>
<linearGradient id="paint0_linear_4136_23" x1="0" y1="256" x2="512" y2="256" gradientUnits="userSpaceOnUse">
<stop stop-color="white"/>
<stop offset="1" stop-color="#7D7D7D"/>
</linearGradient>
<clipPath id="clip0_4136_23">
<rect width="512" height="512" fill="white"/>
</clipPath>
</defs>
</svg>
