<svg width="120" height="120" viewBox="0 0 120 120" fill="none" xmlns="http://www.w3.org/2000/svg">
<circle cx="60" cy="60" r="59" fill="#B4BBC6" stroke="#94A3B8" stroke-width="2"/>
<path d="M50.1249 61.5288L48.3842 56.8366C48.3131 56.6447 48.0417 56.6447 47.9705 56.8366L46.2301 61.5291C46.2177 61.5625 46.2136 61.5983 46.2181 61.6336C46.2226 61.6689 46.2355 61.7026 46.2559 61.7318C46.2762 61.761 46.3033 61.7848 46.3348 61.8013C46.3663 61.8177 46.4014 61.8263 46.437 61.8263H49.918C49.9536 61.8263 49.9886 61.8177 50.0201 61.8012C50.0517 61.7847 50.0788 61.7609 50.0991 61.7317C50.1194 61.7025 50.1323 61.6688 50.1368 61.6335C50.1413 61.5982 50.1371 61.5623 50.1248 61.529M50.929 64.1662H45.4261C45.3811 64.1662 45.3371 64.18 45.3002 64.2057C45.2632 64.2314 45.235 64.2678 45.2193 64.3101L44.1359 67.2297C44.1203 67.2719 44.0921 67.3083 44.0551 67.334C44.0181 67.3597 43.9742 67.3735 43.9292 67.3735H41.544C41.508 67.3735 41.4725 67.3646 41.4406 67.3477C41.4088 67.3308 41.3816 67.3063 41.3614 67.2765C41.3412 67.2466 41.3286 67.2123 41.3247 67.1764C41.3209 67.1406 41.3259 67.1043 41.3393 67.0708L46.8306 53.3916C46.8471 53.3507 46.8754 53.3157 46.9119 53.2911C46.9484 53.2665 46.9914 53.2533 47.0355 53.2534H49.3193C49.4093 53.2534 49.4903 53.3081 49.524 53.3916L55.0152 67.0707C55.0287 67.1042 55.0337 67.1405 55.0299 67.1763C55.0261 67.2122 55.0135 67.2466 54.9933 67.2765C54.9731 67.3065 54.9459 67.3309 54.914 67.3479C54.8821 67.3648 54.8466 67.3736 54.8105 67.3736H52.4258C52.3807 67.3736 52.3368 67.3598 52.2998 67.3341C52.2629 67.3083 52.2347 67.2719 52.219 67.2297L51.1355 64.3101C51.1198 64.2678 51.0916 64.2314 51.0547 64.2057C51.0177 64.18 50.9738 64.1662 50.9287 64.1662M56.1327 58.0541H58.1727C58.2312 58.0541 58.2873 58.0773 58.3287 58.1187C58.37 58.1601 58.3933 58.2162 58.3933 58.2747V67.1529C58.3933 67.2114 58.37 67.2675 58.3287 67.3089C58.2873 67.3502 58.2312 67.3735 58.1727 67.3735H56.1327C56.0742 67.3735 56.0181 67.3502 55.9767 67.3089C55.9354 67.2675 55.9121 67.2114 55.9121 67.1529V58.2745C55.9121 58.216 55.9354 58.1599 55.9767 58.1186C56.0181 58.0772 56.0742 58.0541 56.1327 58.0541ZM65.8333 60.2137C65.8333 60.2722 65.81 60.3283 65.7687 60.3697C65.7273 60.4111 65.6712 60.4343 65.6127 60.4343H65.5509C64.5423 60.4343 63.8024 60.6764 63.3318 61.1605C62.8609 61.6446 62.6259 62.4448 62.6259 63.561V67.1529C62.6259 67.2114 62.6027 67.2675 62.5613 67.3089C62.52 67.3502 62.4639 67.3735 62.4053 67.3735H60.3853C60.3268 67.3735 60.2707 67.3502 60.2294 67.3089C60.188 67.2675 60.1648 67.2114 60.1648 67.1529V58.2745C60.1648 58.216 60.188 58.1599 60.2294 58.1186C60.2707 58.0772 60.3268 58.0539 60.3853 58.0539H62.3851C62.4436 58.0539 62.4997 58.0772 62.541 58.1186C62.5824 58.1599 62.6056 58.216 62.6056 58.2745V60.0306H62.6461C62.8881 59.3045 63.2714 58.7467 63.7961 58.3564C64.3203 57.9666 64.9659 57.7715 65.7324 57.7715H65.8333V60.2137ZM71.4112 60.1317C71.3527 60.1317 71.2966 60.1549 71.2553 60.1963C71.2139 60.2376 71.1906 60.2937 71.1906 60.3522V64.0451C71.1906 64.4217 71.2642 64.6906 71.4124 64.8519C71.5602 65.0133 71.8158 65.094 72.1789 65.094H72.382C72.4405 65.094 72.4966 65.1172 72.5379 65.1586C72.5793 65.2 72.6026 65.2561 72.6026 65.3146V67.1729C72.6026 67.2314 72.5793 67.2875 72.5379 67.3289C72.4966 67.3702 72.4405 67.3935 72.382 67.3935H71.5131C70.6121 67.3935 69.9196 67.1616 69.4355 66.6976C68.9512 66.2337 68.7092 65.5447 68.7092 64.63V60.3522C68.7092 60.2937 68.6859 60.2376 68.6446 60.1963C68.6032 60.1549 68.5471 60.1317 68.4886 60.1317H67.2152C67.1567 60.1317 67.1006 60.1084 67.0592 60.0671C67.0179 60.0257 66.9946 59.9696 66.9946 59.9111V58.2745C66.9946 58.216 67.0179 58.1599 67.0592 58.1186C67.1006 58.0772 67.1567 58.0539 67.2152 58.0539H68.4887C68.5472 58.0539 68.6033 58.0307 68.6447 57.9893C68.6861 57.948 68.7093 57.8919 68.7093 57.8334V54.5427C68.7093 54.4842 68.7326 54.4281 68.7739 54.3868C68.8153 54.3454 68.8714 54.3222 68.9299 54.3222H70.9699C71.0284 54.3222 71.0845 54.3454 71.1259 54.3868C71.1673 54.4281 71.1905 54.4842 71.1905 54.5427V57.8334C71.1905 57.8919 71.2137 57.948 71.2551 57.9893C71.2965 58.0307 71.3526 58.0539 71.4111 58.0539H72.8862C72.9447 58.0539 73.0008 58.0772 73.0422 58.1186C73.0836 58.1599 73.1068 58.216 73.1068 58.2745V59.9112C73.1068 59.9697 73.0836 60.0258 73.0422 60.0672C73.0008 60.1086 72.9447 60.1318 72.8862 60.1318L71.4112 60.1317ZM80.7526 64.6099C81.2165 64.1258 81.4484 63.4938 81.4484 62.7136C81.4484 61.934 81.2165 61.3016 80.7526 60.8175C80.2886 60.3334 79.6799 60.0914 78.9268 60.0914C78.1736 60.0914 77.5653 60.3334 77.1012 60.8175C76.6374 61.3016 76.4053 61.934 76.4053 62.7136C76.4053 63.4938 76.6374 64.1258 77.1012 64.6099C77.5653 65.094 78.1736 65.336 78.9268 65.336C79.6799 65.336 80.2886 65.094 80.7526 64.6099ZM76.0423 67.091C75.3564 66.7012 74.8149 66.1328 74.4184 65.3865C74.0215 64.6402 73.8233 63.7493 73.8233 62.7136C73.8233 61.6784 74.0215 60.7872 74.4184 60.0409C74.8149 59.2946 75.3564 58.7267 76.0423 58.3364C76.7281 57.9464 77.4811 57.7515 78.3015 57.7515C79.0277 57.7515 79.6496 57.8926 80.1677 58.175C80.6851 58.4573 81.0986 58.8542 81.4081 59.3652H81.4484V58.2745C81.4484 58.216 81.4717 58.1599 81.513 58.1186C81.5544 58.0772 81.6105 58.0539 81.669 58.0539H83.6889C83.7474 58.0539 83.8035 58.0772 83.8449 58.1186C83.8862 58.1599 83.9095 58.216 83.9095 58.2745V67.1528C83.9095 67.2113 83.8862 67.2674 83.8449 67.3087C83.8035 67.3501 83.7474 67.3733 83.6889 67.3733H81.669C81.6105 67.3733 81.5544 67.3501 81.513 67.3087C81.4717 67.2674 81.4484 67.2113 81.4484 67.1528V66.0622H81.4081C81.0986 66.5735 80.6851 66.97 80.1676 67.2523C79.6496 67.5347 79.0278 67.6758 78.3015 67.6758C77.4811 67.6758 76.7281 67.4808 76.0423 67.091ZM92.3099 64.6099C92.7739 64.1258 93.0058 63.4938 93.0058 62.7136C93.0058 61.934 92.7739 61.3016 92.3099 60.8175C91.8461 60.3334 91.2374 60.0914 90.4843 60.0914C89.7311 60.0914 89.1227 60.3334 88.6587 60.8175C88.1949 61.3016 87.9627 61.934 87.9627 62.7136C87.9627 63.4938 88.1949 64.1258 88.6587 64.6099C89.1227 65.094 89.7311 65.336 90.4843 65.336C91.2374 65.336 91.8461 65.094 92.3099 64.6099ZM89.2437 67.2523C88.7259 66.97 88.3123 66.5735 88.0031 66.0622H87.9627V67.1528C87.9627 67.2113 87.9395 67.2674 87.8981 67.3087C87.8567 67.3501 87.8006 67.3733 87.7421 67.3733H85.7021C85.6436 67.3733 85.5875 67.3501 85.5461 67.3087C85.5048 67.2674 85.4815 67.2113 85.4815 67.1528V53.4735C85.4815 53.415 85.5048 53.3589 85.5461 53.3175C85.5875 53.2762 85.6436 53.2529 85.7021 53.2529H87.7421C87.8006 53.2529 87.8567 53.2762 87.8981 53.3175C87.9395 53.3589 87.9627 53.415 87.9627 53.4735V59.3651H88.0031C88.3123 58.8541 88.7259 58.4573 89.2437 58.175C89.7614 57.8925 90.3834 57.7513 91.1098 57.7513C91.9299 57.7513 92.6831 57.9463 93.369 58.3363C94.0549 58.7266 94.5961 59.2945 94.9929 60.0406C95.3895 60.7874 95.5881 61.6785 95.5881 62.7138C95.5881 63.7495 95.3895 64.6402 94.993 65.3866C94.5962 66.1329 94.0551 66.7013 93.3692 67.091C92.6833 67.481 91.93 67.6761 91.1099 67.6761C90.3836 67.6761 89.7615 67.5349 89.2439 67.2525M99.0252 67.3735H96.9852C96.9267 67.3735 96.8706 67.3502 96.8292 67.3089C96.7879 67.2675 96.7646 67.2114 96.7646 67.1529V53.474C96.7646 53.4154 96.7879 53.3593 96.8292 53.318C96.8706 53.2766 96.9267 53.2534 96.9852 53.2534H99.0252C99.0837 53.2534 99.1398 53.2766 99.1812 53.318C99.2226 53.3593 99.2458 53.4154 99.2458 53.474V67.1529C99.2458 67.2114 99.2226 67.2675 99.1812 67.3089C99.1398 67.3502 99.0837 67.3735 99.0252 67.3735ZM103.837 60.2125C103.499 60.4764 103.271 60.8572 103.152 61.3554C103.12 61.4928 103.227 61.6246 103.368 61.6246H107.251C107.385 61.6246 107.491 61.504 107.469 61.371C107.392 60.8997 107.19 60.524 106.863 60.2428C106.48 59.9134 105.979 59.7487 105.36 59.7487C104.742 59.7487 104.234 59.9033 103.837 60.2125ZM108.81 59.0526C109.603 59.9202 110 61.1474 110 62.7339V62.9975C110 63.056 109.977 63.1121 109.935 63.1534C109.894 63.1948 109.838 63.218 109.779 63.218H103.293C103.261 63.2181 103.229 63.2252 103.2 63.2389C103.171 63.2526 103.145 63.2724 103.124 63.2972C103.103 63.3219 103.088 63.3509 103.08 63.3821C103.071 63.4132 103.07 63.4459 103.075 63.4777C103.179 64.0671 103.439 64.5353 103.857 64.8822C104.335 65.2793 104.937 65.4774 105.663 65.4774C106.6 65.4774 107.468 65.1115 108.266 64.3796C108.364 64.2902 108.518 64.3092 108.594 64.4178L109.585 65.8413C109.617 65.8856 109.63 65.9398 109.624 65.9935C109.618 66.0472 109.592 66.0968 109.552 66.1328C109.065 66.5589 108.524 66.9184 107.942 67.202C107.297 67.5179 106.537 67.6761 105.663 67.6761C104.654 67.6761 103.773 67.4708 103.02 67.0608C102.267 66.6509 101.682 66.0726 101.265 65.326C100.848 64.5798 100.64 63.7158 100.64 62.7339C100.64 61.7525 100.842 60.8852 101.245 60.1318C101.648 59.3789 102.213 58.7939 102.94 58.3769C103.666 57.9603 104.513 57.7516 105.481 57.7516C106.906 57.7516 108.016 58.1854 108.81 59.0526ZM58.6598 54.7718C58.6598 55.6039 57.9852 56.2784 57.153 56.2784C56.3206 56.2784 55.6461 55.6039 55.6461 54.7717C55.6461 53.9395 56.3208 53.265 57.153 53.265C57.9852 53.265 58.6598 53.9397 58.6598 54.7718Z" fill="#0B0F19"/>
<path d="M21.6177 49.2748L11.9177 53.2883C11.3783 53.5115 11.3839 54.2778 11.9267 54.493L21.6671 58.3555C22.5229 58.6949 23.476 58.6949 24.3318 58.3555L34.0724 54.4928C34.6151 54.2778 34.621 53.5117 34.0812 53.2885L24.3815 49.2746C23.4966 48.9085 22.5025 48.9085 21.6176 49.2746" fill="#0B0F19"/>
<path d="M23.8638 60.4647V70.1139C23.8638 70.5727 24.3266 70.8871 24.7532 70.718L35.607 66.5052C35.7281 66.4572 35.8319 66.374 35.9051 66.2663C35.9782 66.1586 36.0173 66.0313 36.0173 65.9011V56.252C36.0173 55.7931 35.5545 55.4788 35.1279 55.6479L24.2741 59.8607C24.153 59.9088 24.0492 59.992 23.9761 60.0997C23.9029 60.2074 23.8638 60.3345 23.8638 60.4647Z" fill="#0B0F19"/>
<path d="M21.3291 60.9623L18.1079 62.5176L17.7809 62.6756L10.9812 65.9336C10.5503 66.1416 10 65.8274 10 65.3486V56.2922C10 56.119 10.0888 55.9694 10.2079 55.8569C10.2568 55.8082 10.3122 55.7667 10.3726 55.7334C10.535 55.6359 10.7668 55.6099 10.9638 55.6878L21.275 59.7732C21.7991 59.9812 21.8403 60.7154 21.3291 60.9623Z" fill="#0B0F19"/>
<path d="M21.3292 60.9623L18.108 62.5176L10.208 55.8568C10.2569 55.8081 10.3123 55.7666 10.3727 55.7334C10.5351 55.6359 10.7668 55.6099 10.9639 55.6878L21.2751 59.7732C21.7992 59.9812 21.8404 60.7154 21.3292 60.9623Z" fill="#0B0F19"/>
</svg>
