<svg xmlns="http://www.w3.org/2000/svg" version="1.1" xmlns:xlink="http://www.w3.org/1999/xlink" width="512" height="512" x="0" y="0" viewBox="0 0 32 32" style="enable-background:new 0 0 512 512" xml:space="preserve" class=""><g><path d="M26 2H12a2 2 0 0 0-2 2v1.08a6.991 6.991 0 0 0 0 13.84V28a2 2 0 0 0 2 2h14a2 2 0 0 0 2-2V4a2 2 0 0 0-2-2zm-13.585 9h-2.83A7.622 7.622 0 0 1 11 7.464 7.622 7.622 0 0 1 12.415 11zm0 2A7.622 7.622 0 0 1 11 16.536 7.622 7.622 0 0 1 9.585 13zm2.029 0H15.9a5 5 0 0 1-2.438 3.326A9.94 9.94 0 0 0 14.444 13zm0-2a9.94 9.94 0 0 0-.983-3.326A5 5 0 0 1 15.9 11zM8.539 7.674A9.94 9.94 0 0 0 7.556 11H6.1a5 5 0 0 1 2.439-3.326zM6.1 13h1.456a9.94 9.94 0 0 0 .983 3.326A5 5 0 0 1 6.1 13zM26 28H12v-9.08a6.991 6.991 0 0 0 0-13.84V4h14zm-6-3a1 1 0 0 1 0 2h-2a1 1 0 0 1 0-2zM18.015 6a1 1 0 0 1 1-1h.01a1 1 0 1 1-1 1z" data-name="07 browsing" fill="#a044ff" opacity="1" data-original="#000000" class=""></path></g></svg>