<svg width="120" height="120" viewBox="0 0 120 120" fill="none" xmlns="http://www.w3.org/2000/svg">
<circle cx="60" cy="60" r="59" fill="#B4BBC6" stroke="#94A3B8" stroke-width="2"/>
<path d="M69.3576 57.5225C70.9086 57.5225 72.3773 58.4713 72.6873 60.5213H65.7801C66.0691 58.7224 67.4139 57.5225 69.3576 57.5225ZM72.4665 63.5542C71.939 64.3765 70.9193 65.0091 69.5234 65.0091C67.5998 65.0091 66.1311 63.9546 65.7801 62.0931H74.4457C74.4875 61.8263 74.5086 61.5567 74.5089 61.2866C74.5089 58.3916 72.4849 55.8267 69.3589 55.8267C66.133 55.8267 63.9407 58.205 63.9407 61.2664C63.9407 64.3658 66.1545 66.7061 69.4829 66.7061C71.5512 66.7061 73.1231 65.7751 74.0326 64.3658L72.4665 63.5542Z" fill="#0B0F19"/>
<path d="M63.0892 51.3389H61.2903V66.4367H63.0892V51.3389Z" fill="#0B0F19"/>
<path d="M84.5186 60.0876V66.4362H82.7191V60.1907C82.7191 58.4949 81.7475 57.5435 80.1548 57.5435C78.5001 57.5435 77.156 58.5157 77.156 60.956V66.4362H75.3564V56.0969H77.156V57.5859C77.9213 56.3658 79.0586 55.8281 80.5084 55.8281C82.9278 55.8281 84.5205 57.4411 84.5205 60.0888" fill="#0B0F19"/>
<path d="M94.4399 61.2658C94.4399 59.1563 92.8472 57.5636 90.7586 57.5636C88.6902 57.5636 87.0981 59.1563 87.0981 61.2658C87.0981 63.3752 88.6902 64.9679 90.7586 64.9679C92.8459 64.9679 94.4399 63.3752 94.4399 61.2658ZM96.2388 51.3389V66.4367H94.4399V64.6574C93.6125 65.9224 92.2893 66.7055 90.5308 66.7055C87.656 66.7055 85.2986 64.3266 85.2986 61.2658C85.2986 58.205 87.656 55.826 90.5308 55.826C92.2886 55.826 93.6125 56.6116 94.4399 57.8735V51.3389H96.2388Z" fill="#0B0F19"/>
<path d="M99.4886 51.3389H97.6897V66.4367H99.4886V51.3389Z" fill="#0B0F19"/>
<path d="M58.0834 61.2659C58.0834 59.1564 56.4914 57.5637 54.4021 57.5637C52.3344 57.5637 50.7417 59.1564 50.7417 61.2659C50.7417 63.3754 52.3344 64.9681 54.4021 64.9681C56.4895 64.9681 58.0834 63.3754 58.0834 61.2659ZM59.883 56.0969V66.4362H58.0834V64.6575C57.2561 65.9226 55.9328 66.7056 54.175 66.7056C51.3002 66.7056 48.9421 64.3267 48.9421 61.2659C48.9421 58.2051 51.3002 55.8262 54.175 55.8262C55.9328 55.8262 57.2561 56.6118 58.0834 57.8737V56.0969H59.883Z" fill="#0B0F19"/>
<path d="M46.2734 64.4462C45.3524 64.7861 44.3582 64.8778 43.3905 64.7123C42.4229 64.5468 41.5157 64.1297 40.7601 63.503C40.0044 62.8763 39.4268 62.0619 39.0851 61.1416C38.7435 60.2212 38.6498 59.2272 38.8134 58.2592C38.9771 57.2912 39.3923 56.3833 40.0176 55.6264C40.6428 54.8695 41.456 54.2903 42.3757 53.9468C43.2954 53.6034 44.2892 53.5077 45.2575 53.6695C46.2258 53.8313 47.1346 54.2447 47.8927 54.8685C48.2088 55.1293 48.4948 55.4246 48.7453 55.749L50.302 54.6104C49.3951 53.4249 48.1567 52.5352 46.7436 52.0543C45.3306 51.5734 43.8066 51.5228 42.3647 51.909C40.9229 52.2952 39.6282 53.1007 38.6447 54.2235C37.6612 55.3463 37.0332 56.7359 36.8403 58.216C36.6474 59.6961 36.8983 61.2002 37.5611 62.5376C38.224 63.8749 39.269 64.9854 40.5636 65.7283C41.8583 66.4711 43.3444 66.8128 44.8335 66.7101C46.3226 66.6075 47.7477 66.065 48.9281 65.1515L47.892 63.5132C47.408 63.9119 46.861 64.2272 46.2734 64.4462Z" fill="#0B0F19"/>
<path d="M108.173 56.0967V61.9653C108.173 63.8629 107.07 65.0647 105.385 65.0647C103.7 65.0647 102.479 63.8629 102.479 61.9653V56.0967H100.659V61.7894C100.659 64.7724 102.518 66.7092 105.385 66.7092C107.864 66.7092 108.251 65.1406 108.251 65.1013V67.2127C108.251 69.3045 107.341 70.486 105.443 70.486C104.765 70.4894 104.109 70.2461 103.597 69.8016C103.085 69.3571 102.752 68.7416 102.66 68.0698L101.032 68.6391C101.265 69.6343 101.828 70.5214 102.63 71.1558C103.431 71.7901 104.424 72.1344 105.446 72.1325C108.39 72.1325 110 70.1951 110 67.2127V56.0967H108.173Z" fill="#0B0F19"/>
<path d="M24.6454 62.1201C23.954 62.7337 23.0906 63.4971 21.5251 63.4971H20.589C19.4561 63.4971 18.4258 63.0854 17.6882 62.339C16.9678 61.6097 16.5712 60.6116 16.5712 59.528V58.2472C16.5712 57.1636 16.9678 56.1655 17.6882 55.4362C18.4258 54.6898 19.4561 54.2787 20.589 54.2787H21.5251C23.0925 54.2787 23.954 55.0415 24.6454 55.6551C25.3633 56.2876 25.9826 56.8404 27.6341 56.8404C27.886 56.8404 28.1375 56.8203 28.3862 56.7803L28.3805 56.7658C28.2815 56.5201 28.1655 56.2817 28.0332 56.0523L26.9295 54.1402C26.4317 53.2782 25.7158 52.5624 24.8538 52.0647C23.9917 51.5671 23.0139 51.3051 22.0185 51.3052H19.8104C18.815 51.3051 17.8371 51.5671 16.9751 52.0647C16.113 52.5624 15.3972 53.2782 14.8994 54.1402L13.7957 56.0523C13.2981 56.9144 13.0361 57.8922 13.0361 58.8876C13.0361 59.883 13.2981 60.8608 13.7957 61.7229L14.8994 63.635C15.3972 64.497 16.113 65.2128 16.9751 65.7105C17.8371 66.2081 18.815 66.4701 19.8104 66.47H22.0185C23.0139 66.4701 23.9917 66.2081 24.8538 65.7105C25.7158 65.2128 26.4317 64.497 26.9295 63.635L28.0332 61.7261C28.1655 61.4966 28.2815 61.2582 28.3805 61.0126L28.3862 60.9987C28.1376 60.9574 27.8861 60.9362 27.6341 60.9354C25.9826 60.9354 25.3633 61.4851 24.6454 62.1208" fill="#0B0F19"/>
<path d="M21.5252 55.4395H20.5891C18.8648 55.4395 17.7319 56.671 17.7319 58.2472V59.5281C17.7319 61.1044 18.8648 62.3359 20.5891 62.3359H21.5252C24.0376 62.3359 23.8402 59.7742 27.6341 59.7742C27.9936 59.7738 28.3523 59.8068 28.7057 59.8728C28.8208 59.2211 28.8208 58.5542 28.7057 57.9025C28.3523 57.9682 27.9936 58.0013 27.6341 58.0012C23.839 58.0012 24.0376 55.4395 21.5252 55.4395Z" fill="#0B0F19"/>
<path d="M30.8854 60.809C30.2393 60.3358 29.4942 60.0155 28.7063 59.8722C28.7063 59.8792 28.7063 59.8849 28.7063 59.8912C28.6385 60.2689 28.5325 60.6387 28.3901 60.995C29.0409 61.0958 29.6584 61.3501 30.1915 61.7369C30.1915 61.742 30.1883 61.7483 30.1864 61.754C29.5004 63.9756 28.0402 65.8773 26.0712 67.1139C24.1021 68.3504 21.7549 68.8396 19.4559 68.4927C17.1568 68.1458 15.0584 66.9857 13.542 65.2232C12.0255 63.4608 11.1915 61.2128 11.1915 58.8877C11.1915 56.5626 12.0255 54.3147 13.542 52.5522C15.0584 50.7897 17.1568 49.6297 19.4559 49.2827C21.7549 48.9358 24.1021 49.425 26.0712 50.6616C28.0402 51.8981 29.5004 53.7999 30.1864 56.0214C30.1864 56.0271 30.1896 56.0334 30.1915 56.0385C29.6585 56.4254 29.041 56.6795 28.3901 56.7798C28.5324 57.1366 28.6383 57.5068 28.7063 57.8848C28.706 57.8907 28.706 57.8967 28.7063 57.9026C29.4942 57.7595 30.2393 57.4394 30.8854 56.9664C31.5065 56.5066 31.3863 55.9873 31.2921 55.6799C30.5241 53.189 28.8881 51.0564 26.6812 49.6694C24.4743 48.2824 21.8431 47.7332 19.2657 48.1215C16.6882 48.5098 14.3356 49.8099 12.6354 51.7855C10.9351 53.7612 10 56.2812 10 58.8877C10 61.4942 10.9351 64.0143 12.6354 65.9899C14.3356 67.9655 16.6882 69.2656 19.2657 69.6539C21.8431 70.0422 24.4743 69.493 26.6812 68.106C28.8881 66.7191 30.5241 64.5864 31.2921 62.0956C31.3863 61.7882 31.5065 61.2689 30.8854 60.809Z" fill="#0B0F19"/>
</svg>
