<svg width="120" height="120" viewBox="0 0 120 120" fill="none" xmlns="http://www.w3.org/2000/svg">
<circle cx="60" cy="60" r="59" fill="#B4BBC6" stroke="#94A3B8" stroke-width="2"/>
<path d="M15.1275 62.9765L19.2656 60.6578L19.3349 60.4557L19.2656 60.344H19.0633L18.3709 60.3014L16.0063 60.2376L13.9558 60.1525L11.9693 60.0461L11.4687 59.9398L11 59.3229L11.0479 59.0144L11.4687 58.7325L12.0705 58.7857L13.4019 58.8761L15.3991 59.0144L16.8477 59.0995L18.994 59.3229H19.3349L19.3828 59.1846L19.2656 59.0995L19.1751 59.0144L17.1087 57.6157L14.8719 56.1372L13.7002 55.2863L13.0664 54.8555L12.7469 54.4513L12.6084 53.5684L13.1836 52.9356L13.9558 52.9887L14.1529 53.0419L14.9358 53.6429L16.6081 54.9352L18.7916 56.5414L19.1112 56.8073L19.239 56.7169L19.255 56.6531L19.1112 56.4137L17.9235 54.2705L16.656 52.0899L16.0915 51.1858L15.9423 50.6434C15.8891 50.42 15.8518 50.2339 15.8518 50.0052L16.5069 49.117L16.869 49L17.7425 49.117L18.1099 49.4361L18.6532 50.6753L19.5319 52.6271L20.8953 55.2809L21.2948 56.068L21.5078 56.7967L21.5877 57.02H21.7262V56.8924L21.838 55.3979L22.0457 53.5631L22.2481 51.2018L22.3173 50.537L22.6475 49.7392L23.3026 49.3085L23.8139 49.5531L24.2346 50.1541L24.176 50.5423L23.9257 52.1644L23.4357 54.7066L23.1162 56.4084H23.3026L23.5156 56.1957L24.3784 55.0522L25.827 53.244L26.4661 52.526L27.2117 51.7336L27.6911 51.356H28.5964L29.2622 52.3452L28.9639 53.3663L28.0319 54.547L27.2597 55.5469L26.1519 57.036L25.4595 58.2273L25.5235 58.323L25.6886 58.3071L28.1917 57.7752L29.5444 57.5306L31.1581 57.254L31.8878 57.5944L31.9677 57.9401L31.6801 58.6474L29.9545 59.0729L27.9307 59.4771L24.9163 60.1897L24.879 60.2163L24.9216 60.2695L26.2797 60.3972L26.8602 60.4291H28.2822L30.9291 60.6258L31.6215 61.0832L32.0369 61.6416L31.9677 62.0671L30.9025 62.6096L29.4645 62.2692L26.1093 61.4715L24.9589 61.1843H24.7991V61.28L25.7578 62.216L27.5153 63.8009L29.7149 65.8431L29.8267 66.3484L29.5444 66.7472L29.2462 66.7047L27.3129 65.2528L26.5673 64.5986L24.879 63.1786H24.7672V63.3276L25.156 63.8966L27.2117 66.9812L27.3182 67.9279L27.1691 68.2364L26.6365 68.4225L26.0507 68.3161L24.8471 66.6302L23.6062 64.7316L22.6049 63.0297L22.4824 63.0989L21.8913 69.4543L21.6143 69.7787L20.9752 70.0233L20.4426 69.6191L20.1604 68.965L20.4426 67.6726L20.7835 65.9867L21.0604 64.6465L21.3107 62.9819L21.4599 62.4288L21.4492 62.3915L21.3267 62.4075L20.0698 64.1306L18.1579 66.71L16.6453 68.3268L16.2832 68.4704L15.6547 68.1459L15.7133 67.5663L16.0648 67.0504L18.1579 64.3912L19.4201 62.7425L20.2349 61.7906L20.2296 61.6523H20.1817L14.6215 65.2581L13.6309 65.3857L13.2049 64.9869L13.2581 64.3327L13.4605 64.12L15.1328 62.9712L15.1275 62.9765Z" fill="#0B0F19"/>
<path d="M45.3407 66.8428C42.6671 66.8428 40.8404 65.3537 39.9776 63.0615C39.5271 61.8671 39.3049 60.5989 39.3225 59.3227C39.3225 55.4775 41.0481 52.8077 44.8614 52.8077C47.4231 52.8077 49.0048 53.9246 49.9049 56.5891H51.002L50.8529 52.9141C49.3191 51.9249 47.4018 51.425 45.0691 51.425C41.783 51.425 38.987 52.8928 37.4319 55.5414C36.6286 56.9399 36.22 58.5297 36.2495 60.1417C36.2495 63.0827 37.6396 65.6887 40.2492 67.1353C41.6775 67.8974 43.2799 68.275 44.8986 68.2309C47.4444 68.2309 49.4628 67.7469 51.2523 66.9013L51.7157 62.8487H50.5972C49.9262 64.6995 49.1273 65.811 47.8012 66.4014C47.1514 66.6939 46.3313 66.8428 45.3407 66.8428ZM56.871 52.8077L56.9775 50.9995H56.2213L52.8554 52.01V52.5578L54.3466 53.2492V65.8961C54.3466 66.7577 53.9046 66.9492 52.7489 67.0927V68.0181H58.4741V67.0927C57.3131 66.9492 56.8764 66.7577 56.8764 65.8961V52.8131L56.871 52.8077ZM79.6388 68.2309H80.0809L83.9527 67.4969V66.5503L83.4095 66.5077C82.5041 66.4226 82.2698 66.2365 82.2698 65.4972V58.7536L82.3763 56.5891H81.7638L78.105 57.1156V58.041L78.4618 58.1048C79.4524 58.2484 79.7453 58.5249 79.7453 59.2163V65.226C78.7973 65.9599 77.892 66.4226 76.8161 66.4226C75.6232 66.4226 74.8829 65.8163 74.8829 64.4017V58.7589L74.9894 56.5944H74.361L70.6968 57.1209V58.0463L71.0749 58.1101C72.0655 58.2537 72.3585 58.5303 72.3585 59.2216V64.7686C72.3585 67.1193 73.6899 68.2362 75.8096 68.2362C77.4286 68.2362 78.7547 67.3746 79.7507 66.178L79.6441 68.2362L79.6388 68.2309ZM68.9979 60.748C68.9979 57.7431 67.4001 56.5891 64.5136 56.5891C61.9678 56.5891 60.1198 57.6421 60.1198 59.3865C60.1198 59.9077 60.3062 60.3066 60.6843 60.5831L62.6229 60.3278C62.5377 59.7428 62.4951 59.3865 62.4951 59.2376C62.4951 58.2484 63.0223 57.7485 64.0928 57.7485C65.6746 57.7485 66.4734 58.86 66.4734 60.6469V61.232L62.4791 62.4286C61.1476 62.7902 60.3914 63.104 59.8854 63.8379C59.6173 64.2869 59.4876 64.8049 59.5126 65.3271C59.5126 67.0289 60.6843 68.2309 62.6868 68.2309C64.1354 68.2309 65.4189 67.5767 66.5374 66.3375C66.9368 67.5767 67.5493 68.2309 68.641 68.2309C69.5251 68.2309 70.324 67.8745 71.0377 67.1778L70.8246 66.4439C70.5157 66.529 70.2175 66.5715 69.9033 66.5715C69.2908 66.5715 68.9979 66.0876 68.9979 65.1409V60.748ZM63.8851 66.529C62.7933 66.529 62.1169 65.8961 62.1169 64.7846C62.1169 64.0294 62.4738 63.588 63.2354 63.3327L66.4734 62.3063V65.4122C65.4402 66.1939 64.8331 66.529 63.8851 66.529ZM97.5974 67.4969V66.5503L97.0489 66.5077C96.1435 66.4226 95.9145 66.2365 95.9145 65.4972V52.8077L96.021 50.9995H95.2594L91.8935 52.01V52.5578L93.3847 53.2492V57.4081C92.5453 56.8331 91.5417 56.5457 90.5248 56.5891C87.1802 56.5891 84.5705 59.1312 84.5705 62.9338C84.5705 66.0663 86.4452 68.2309 89.5342 68.2309C91.1319 68.2309 92.5219 67.4544 93.3847 66.2525L93.2782 68.2309H93.7256L97.5974 67.4969ZM90.5887 57.8495C92.1864 57.8495 93.3847 58.7749 93.3847 60.4768V65.2632C93.0208 65.6257 92.5877 65.9113 92.111 66.1032C91.6343 66.2951 91.1238 66.3892 90.61 66.3801C88.3199 66.3801 87.1588 64.5719 87.1588 62.1573C87.1588 59.445 88.485 57.8495 90.5887 57.8495ZM105.783 60.2428C105.485 58.8387 104.622 58.041 103.424 58.041C101.634 58.041 100.393 59.3865 100.393 61.3171C100.393 64.173 101.906 66.0238 104.351 66.0238C105.152 66.0157 105.937 65.7978 106.628 65.3918C107.318 64.9859 107.89 64.406 108.286 63.7103L109 63.9018C108.68 66.3801 106.433 68.2309 103.674 68.2309C100.436 68.2309 98.2046 65.8376 98.2046 62.4339C98.2046 59.0036 100.628 56.5891 103.866 56.5891C106.284 56.5891 107.988 58.041 108.537 60.5618L100.101 63.1466V62.0084L105.783 60.2481V60.2428Z" fill="#0B0F19"/>
</svg>
