<svg width="512" height="512" viewBox="0 0 512 512" fill="none" xmlns="http://www.w3.org/2000/svg">
<g clip-path="url(#clip0_4084_444)">
<mask id="mask0_4084_444" style="mask-type:alpha" maskUnits="userSpaceOnUse" x="0" y="0" width="513" height="512">
<path d="M322.37 56.8888C332.843 56.8888 341.333 48.3987 341.333 37.9259C341.333 27.453 332.843 18.9629 322.37 18.9629H245.376C198.939 18.9626 162.541 18.9626 133.663 22.0913C104.194 25.2841 80.316 31.9164 59.929 46.7285C47.5867 55.6957 36.7328 66.5496 27.7656 78.8917C12.9535 99.2789 6.32124 123.157 3.12839 152.626C-0.000249792 181.504 -0.000248354 217.902 4.48568e-06 264.339V266.624C-0.000248354 313.061 -0.000249792 349.459 3.12839 378.336C6.32124 407.807 12.9535 431.683 27.7656 452.072C36.7328 464.413 47.5867 475.267 59.9288 484.233C80.316 499.047 104.194 505.679 133.663 508.872C162.54 512 198.939 512 245.373 512H247.664C294.098 512 330.497 512 359.373 508.872C388.844 505.679 412.72 499.047 433.109 484.233C445.45 475.267 456.304 464.413 465.27 452.072C480.084 431.683 486.716 407.807 489.909 378.336C493.037 349.459 493.037 313.061 493.037 266.627V189.63C493.037 179.157 484.547 170.667 474.074 170.667C463.601 170.667 455.111 179.157 455.111 189.63V265.481C455.111 313.309 455.086 347.654 452.203 374.253C449.359 400.495 443.92 416.935 434.588 429.779C427.961 438.901 419.939 446.924 410.816 453.551C397.972 462.883 381.532 468.322 355.29 471.166C328.691 474.049 294.346 474.074 246.519 474.074C198.691 474.074 164.345 474.049 137.748 471.166C111.506 468.322 95.0656 462.883 82.2211 453.551C73.0987 446.924 65.0763 438.901 58.4484 429.779C49.1163 416.935 43.6768 400.495 40.8336 374.253C37.952 347.654 37.9259 313.309 37.9259 265.481C37.9259 217.654 37.952 183.308 40.8336 156.711C43.6768 130.468 49.1163 114.029 58.4484 101.184C65.0763 92.0616 73.0987 84.0392 82.2211 77.4113C95.0656 68.0792 111.506 62.6397 137.748 59.7965C164.345 56.9149 198.691 56.8888 246.519 56.8888H322.37Z" fill="black"/>
<path d="M103.074 329.369C98.4613 338.772 102.345 350.135 111.747 354.746C121.15 359.358 132.511 355.475 137.123 346.071L174.047 270.801C185.491 247.469 219.128 248.609 228.966 272.662C251.196 326.997 327.184 329.571 353.04 276.864L389.964 201.593C394.576 192.19 390.692 180.829 381.289 176.217C371.886 171.604 360.526 175.488 355.912 184.89L318.99 260.162C307.546 283.494 273.908 282.353 264.07 258.301C241.841 203.965 165.851 201.391 139.997 254.099L103.074 329.369Z" fill="black"/>
<path fill-rule="evenodd" clip-rule="evenodd" d="M385.581 63.2099C385.581 98.1197 413.881 126.42 448.79 126.42C483.7 126.42 512 98.1197 512 63.2099C512 28.3001 483.7 0 448.79 0C413.881 0 385.581 28.3001 385.581 63.2099ZM423.506 63.2099C423.506 77.1737 434.826 88.4938 448.79 88.4938C462.755 88.4938 474.074 77.1737 474.074 63.2099C474.074 49.2461 462.755 37.9259 448.79 37.9259C434.826 37.9259 423.506 49.2461 423.506 63.2099Z" fill="black"/>
</mask>
<g mask="url(#mask0_4084_444)">
<rect width="512" height="512" fill="url(#paint0_linear_4084_444)"/>
</g>
</g>
<defs>
<linearGradient id="paint0_linear_4084_444" x1="0" y1="256" x2="512" y2="256" gradientUnits="userSpaceOnUse">
<stop stop-color="white"/>
<stop offset="1" stop-color="#7D7D7D"/>
</linearGradient>
<clipPath id="clip0_4084_444">
<rect width="512" height="512" fill="white"/>
</clipPath>
</defs>
</svg>
