<svg width="512" height="512" viewBox="0 0 512 512" fill="none" xmlns="http://www.w3.org/2000/svg">
<mask id="mask0_4164_17" style="mask-type:alpha" maskUnits="userSpaceOnUse" x="0" y="0" width="496" height="497">
<path d="M424 496.009H248C243.6 496.009 240 492.409 240 488.009V40.0093C240 37.1293 241.52 34.4893 244 33.0493L300 1.04932C302 -0.0706789 304.32 -0.310679 306.48 0.409321L426.48 40.4093C429.76 41.5293 431.92 44.5693 431.92 48.0093V336.009C431.92 340.409 428.32 344.009 423.92 344.009C419.52 344.009 415.92 340.409 415.92 336.009V53.7693L304.8 16.7293L255.92 44.6493V480.009H423.92C428.32 480.009 431.92 483.609 431.92 488.009C431.92 492.409 428.32 496.009 423.92 496.009H424Z" fill="black"/>
<path d="M248 496.009H72V480.009H240V189.769L128.88 152.729L80 180.649V336.009H64V176.009C64 173.129 65.52 170.489 68 169.049L124 137.049C126 135.929 128.32 135.689 130.48 136.409L250.48 176.409C253.76 177.529 255.92 180.569 255.92 184.009V488.009C255.92 492.409 252.32 496.009 247.92 496.009H248Z" fill="black"/>
<path d="M48 448.009C25.92 448.009 8 430.089 8 408.009C8 388.489 23.12 344.009 48 344.009C72.88 344.009 88 388.489 88 408.009C88 430.089 70.08 448.009 48 448.009ZM48 360.009C37.84 360.009 24 390.649 24 408.009C24 421.209 34.8 432.009 48 432.009C61.2 432.009 72 421.209 72 408.009C72 390.649 58.16 360.009 48 360.009Z" fill="black"/>
<path d="M448 448.009C425.92 448.009 408 430.089 408 408.009C408 388.489 423.12 344.009 448 344.009C472.88 344.009 488 388.489 488 408.009C488 430.089 470.08 448.009 448 448.009ZM448 360.009C437.84 360.009 424 390.649 424 408.009C424 421.209 434.8 432.009 448 432.009C461.2 432.009 472 421.209 472 408.009C472 390.649 458.16 360.009 448 360.009Z" fill="black"/>
<path d="M424 344.009C423.12 344.009 422.32 343.849 421.44 343.609L304.8 304.729L251.92 334.969C249.92 336.089 247.6 336.329 245.44 335.609L128.8 296.729L79.9198 324.649V336.009C79.9198 340.409 76.3198 344.009 71.9198 344.009C67.5198 344.009 63.9198 340.409 63.9198 336.009V320.009C63.9198 317.129 65.4398 314.489 67.9198 313.049L123.92 281.049C125.92 279.929 128.24 279.689 130.4 280.409L247.04 319.289L299.92 289.049C301.92 287.929 304.24 287.689 306.4 288.409L415.84 324.889V293.769L304.72 256.729L251.84 286.969C249.84 288.089 247.52 288.329 245.36 287.609L128.72 248.729L75.8398 278.969C73.3598 280.409 70.3198 280.409 67.8398 278.969C65.3598 277.529 63.8398 274.889 63.8398 272.089V224.089C63.8398 221.209 65.3598 218.569 67.8398 217.129L123.84 185.129C125.84 184.009 128.16 183.769 130.32 184.489L246.96 223.369L299.84 193.129C301.84 192.009 304.16 191.769 306.32 192.489L415.76 228.969V197.849L304.64 160.809L251.76 191.049C249.28 192.489 246.24 192.489 243.76 191.049C241.28 189.609 239.76 186.969 239.76 184.169V136.169C239.76 133.289 241.28 130.649 243.76 129.209L299.76 97.2091C301.76 96.0891 304.08 95.8491 306.24 96.5691L415.68 133.049V101.929L304.56 64.8891L251.68 95.1291C247.84 97.2891 242.96 96.0091 240.8 92.1691C238.64 88.3291 239.92 83.4491 243.76 81.2891L299.76 49.2891C301.76 48.1691 304.08 47.9291 306.24 48.6491L426.24 88.6491C429.52 89.7691 431.68 92.8091 431.68 96.2491V144.249C431.68 146.809 430.48 149.209 428.32 150.729C426.24 152.249 423.52 152.649 421.12 151.849L304.48 112.969L255.6 140.889V170.489L299.6 145.289C301.6 144.169 303.92 143.929 306.08 144.649L426.08 184.649C429.36 185.769 431.52 188.809 431.52 192.249V240.249C431.52 242.809 430.32 245.209 428.16 246.729C426.08 248.249 423.36 248.649 420.96 247.849L304.32 208.969L251.44 239.209C249.44 240.329 247.12 240.569 244.96 239.849L128.32 200.969L79.4398 228.889V258.489L123.44 233.289C125.44 232.169 127.76 231.929 129.92 232.649L246.56 271.529L299.44 241.289C301.44 240.169 303.76 239.929 305.92 240.649L425.92 280.649C429.2 281.769 431.36 284.809 431.36 288.249V336.249C431.36 338.809 430.16 341.209 428 342.729C426.64 343.689 424.96 344.249 423.36 344.249L424 344.009Z" fill="black"/>
<path d="M400 384.009C399.2 384.009 398.32 383.849 397.44 383.609L304.8 352.729L251.92 382.969C249.92 384.089 247.6 384.329 245.44 383.609L128.8 344.729L99.9204 361.209C96.0804 363.369 91.2004 362.089 89.0404 358.249C86.8804 354.409 88.1604 349.529 92.0004 347.369L124 329.049C126 327.929 128.32 327.689 130.48 328.409L247.12 367.289L300 337.049C302 335.929 304.32 335.689 306.48 336.409L402.48 368.409C406.64 369.769 408.96 374.329 407.52 378.569C406.4 381.929 403.28 384.009 399.92 384.009H400Z" fill="black"/>
<path d="M400 496.009C395.6 496.009 392 492.409 392 488.009V469.769L336 451.129V488.009C336 492.409 332.4 496.009 328 496.009H224C219.6 496.009 216 492.409 216 488.009V469.769L160 451.129V488.009C160 492.409 156.4 496.009 152 496.009C147.6 496.009 144 492.409 144 488.009V440.009C144 437.449 145.2 435.049 147.36 433.529C149.44 432.009 152.16 431.609 154.56 432.409L226.56 456.409C229.84 457.529 232 460.569 232 464.009V480.009H320V440.009C320 437.449 321.2 435.049 323.36 433.529C325.44 432.009 328.16 431.609 330.56 432.409L402.56 456.409C405.84 457.529 408 460.569 408 464.009V488.009C408 492.409 404.4 496.009 400 496.009Z" fill="black"/>
<path d="M96 496.009H48C43.6 496.009 40 492.409 40 488.009V440.009C40 435.609 43.6 432.009 48 432.009C52.4 432.009 56 435.609 56 440.009V480.009H88V456.009C88 451.609 91.6 448.009 96 448.009C100.4 448.009 104 451.609 104 456.009V488.009C104 492.409 100.4 496.009 96 496.009Z" fill="black"/>
<path d="M248 432.009C247.12 432.009 246.32 431.849 245.44 431.609L125.44 391.609C121.28 390.249 118.96 385.689 120.4 381.449C121.76 377.289 126.32 374.969 130.48 376.409L247.12 415.289L300 385.049C302 383.929 304.32 383.689 306.48 384.409L394.48 413.769C398.64 415.129 400.96 419.689 399.52 423.929C398.16 428.089 393.6 430.409 389.44 428.969L304.8 400.729L251.92 430.969C250.72 431.689 249.36 432.009 247.92 432.009H248Z" fill="black"/>
<path d="M488 496.009H8C3.6 496.009 0 492.409 0 488.009C0 483.609 3.6 480.009 8 480.009H440V440.009C440 435.609 443.6 432.009 448 432.009C452.4 432.009 456 435.609 456 440.009V480.009H488C492.4 480.009 496 483.609 496 488.009C496 492.409 492.4 496.009 488 496.009Z" fill="black"/>
<path d="M95.9996 464.009C88.0796 464.009 80.5596 461.129 74.6396 455.849C71.3596 452.889 71.0396 447.849 73.9996 444.569C76.9596 441.289 81.9996 440.969 85.2796 443.929C88.2396 446.569 91.9996 448.009 95.9196 448.009C104.72 448.009 111.92 440.809 111.92 432.009C111.92 423.209 105.76 406.969 98.8796 401.449C95.4396 398.649 94.8796 393.609 97.6796 390.169C100.48 386.729 105.52 386.169 108.96 388.969C120.16 398.009 127.92 418.889 127.92 432.009C127.92 449.689 113.6 464.009 95.9196 464.009H95.9996Z" fill="black"/>
</mask>
<g mask="url(#mask0_4164_17)">
<rect width="512" height="512" fill="url(#paint0_linear_4164_17)"/>
</g>
<defs>
<linearGradient id="paint0_linear_4164_17" x1="0" y1="256" x2="512" y2="256" gradientUnits="userSpaceOnUse">
<stop stop-color="white"/>
<stop offset="1" stop-color="#7D7D7D"/>
</linearGradient>
</defs>
</svg>
