<svg width="19" height="18" viewBox="0 0 19 18" fill="none" xmlns="http://www.w3.org/2000/svg">
<path d="M2.18689 8.22052C1.82346 8.22154 1.46775 8.32543 1.16091 8.52018C0.854065 8.71493 0.608629 8.99257 0.452995 9.32099C0.297361 9.64941 0.23789 10.0152 0.281462 10.376C0.325035 10.7368 0.469869 11.0779 0.69921 11.3598L5.58822 17.3488C5.76254 17.5653 5.98599 17.737 6.24 17.8498C6.49402 17.9625 6.77127 18.013 7.04873 17.9971C7.64215 17.9653 8.17791 17.6478 8.51949 17.1259L18.6752 0.770093C18.6769 0.76738 18.6786 0.764667 18.6804 0.761994C18.7757 0.615684 18.7448 0.325737 18.5481 0.143588C18.4941 0.0935679 18.4304 0.0551385 18.3609 0.0306665C18.2915 0.00619455 18.2178 -0.00380191 18.1443 0.00129304C18.0709 0.00638799 17.9992 0.0264665 17.9338 0.0602917C17.8684 0.0941169 17.8106 0.140973 17.764 0.197974C17.7604 0.202455 17.7566 0.206869 17.7528 0.211216L7.51058 11.7834C7.47161 11.8274 7.42428 11.8632 7.37133 11.8888C7.31838 11.9144 7.26088 11.9292 7.20216 11.9324C7.14344 11.9356 7.08468 11.9271 7.02928 11.9073C6.97388 11.8876 6.92296 11.8571 6.87946 11.8175L3.48027 8.72421C3.12724 8.40058 2.66581 8.22089 2.18689 8.22052Z" fill="white"/>
</svg>
