<svg width="36" height="36" viewBox="0 0 36 36" fill="none" xmlns="http://www.w3.org/2000/svg">
<path d="M4.5 15.6245C4.5 10.8281 4.5 8.42993 5.06627 7.62313C5.63255 6.81632 7.88749 6.04445 12.3974 4.5007L13.2566 4.20659C15.6075 3.40187 16.7829 2.99951 18 2.99951C19.2171 2.99951 20.3925 3.40187 22.7434 4.20659L23.6026 4.5007C28.1125 6.04445 30.3675 6.81632 30.9337 7.62313C31.5 8.42993 31.5 10.8281 31.5 15.6245C31.5 16.349 31.5 17.1346 31.5 17.9865C31.5 26.4437 25.1416 30.5477 21.1522 32.2904C20.07 32.7632 19.5289 32.9995 18 32.9995C16.4711 32.9995 15.93 32.7631 14.8478 32.2904C10.8584 30.5477 4.5 26.4437 4.5 17.9865C4.5 17.1346 4.5 16.349 4.5 15.6245Z" stroke="url(#paint0_linear_2006_1188)" stroke-width="1.5"/>
<path d="M25.5 17.9995C25.5 18.9844 25.306 19.9597 24.9291 20.8696C24.5522 21.7796 23.9997 22.6064 23.3033 23.3028C22.6069 23.9993 21.7801 24.5517 20.8701 24.9286C19.9602 25.3055 18.9849 25.4995 18 25.4995C17.0151 25.4995 16.0398 25.3055 15.1299 24.9286C14.2199 24.5517 13.3931 23.9993 12.6967 23.3028C12.0003 22.6064 11.4478 21.7796 11.0709 20.8696C10.694 19.9597 10.5 18.9844 10.5 17.9995C10.5 17.0146 10.694 16.0393 11.0709 15.1294C11.4478 14.2194 12.0003 13.3926 12.6967 12.6962C13.3931 11.9998 14.2199 11.4473 15.1299 11.0704C16.0398 10.6935 17.0151 10.4995 18 10.4995C18.9849 10.4995 19.9602 10.6935 20.8701 11.0704C21.7801 11.4473 22.6069 11.9998 23.3033 12.6962C23.9997 13.3927 24.5522 14.2194 24.9291 15.1294C25.306 16.0393 25.5 17.0146 25.5 17.9995L25.5 17.9995Z" stroke="url(#paint1_linear_2006_1188)" stroke-width="1.5"/>
<path d="M20.7716 20.8696C20.9224 19.9597 21 18.9844 21 17.9995C21 17.0146 20.9224 16.0393 20.7716 15.1294C20.6209 14.2194 20.3999 13.3927 20.1213 12.6962C19.8427 11.9998 19.512 11.4473 19.1481 11.0704C18.7841 10.6935 18.394 10.4995 18 10.4995C17.606 10.4995 17.2159 10.6935 16.8519 11.0704C16.488 11.4473 16.1573 11.9998 15.8787 12.6962C15.6001 13.3926 15.3791 14.2194 15.2284 15.1294C15.0776 16.0393 15 17.0146 15 17.9995C15 18.9844 15.0776 19.9597 15.2284 20.8696C15.3791 21.7796 15.6001 22.6064 15.8787 23.3028C16.1573 23.9993 16.488 24.5517 16.8519 24.9286C17.2159 25.3055 17.606 25.4995 18 25.4995C18.394 25.4995 18.7841 25.3055 19.148 24.9286C19.512 24.5517 19.8427 23.9993 20.1213 23.3028C20.3999 22.6064 20.6209 21.7796 20.7716 20.8696Z" stroke="url(#paint2_linear_2006_1188)" stroke-width="1.5"/>
<path d="M10.5 17.9995H25.5" stroke="url(#paint3_linear_2006_1188)" stroke-width="1.5" stroke-linecap="round"/>
<defs>
<linearGradient id="paint0_linear_2006_1188" x1="15.2918" y1="9.71593" x2="24.9165" y2="10.7831" gradientUnits="userSpaceOnUse">
<stop stop-color="white"/>
<stop offset="1" stop-color="#999999"/>
</linearGradient>
<linearGradient id="paint1_linear_2006_1188" x1="16.4954" y1="13.8577" x2="21.8273" y2="14.5146" gradientUnits="userSpaceOnUse">
<stop stop-color="white"/>
<stop offset="1" stop-color="#999999"/>
</linearGradient>
<linearGradient id="paint2_linear_2006_1188" x1="17.3982" y1="13.8577" x2="19.5581" y2="13.9642" gradientUnits="userSpaceOnUse">
<stop stop-color="white"/>
<stop offset="1" stop-color="#999999"/>
</linearGradient>
<linearGradient id="paint3_linear_2006_1188" x1="16.4954" y1="18.2234" x2="17.7215" y2="20.4891" gradientUnits="userSpaceOnUse">
<stop stop-color="white"/>
<stop offset="1" stop-color="#999999"/>
</linearGradient>
</defs>
</svg>
