<svg width="36" height="36" viewBox="0 0 36 36" fill="none" xmlns="http://www.w3.org/2000/svg">
<path d="M3.00003 27C3.00003 25.6022 3.00003 24.9033 3.22839 24.3519C3.53287 23.6169 4.1169 23.0328 4.85198 22.7284C5.40329 22.5 6.10221 22.5 7.50003 22.5H28.5C29.8979 22.5 30.5968 22.5 31.1481 22.7284C31.8832 23.0328 32.4672 23.6169 32.7717 24.3519C33 24.9033 33 25.6022 33 27C33 28.3978 33 29.0967 32.7717 29.6481C32.4672 30.3831 31.8832 30.9672 31.1481 31.2716C30.5968 31.5 29.8979 31.5 28.5 31.5H7.50003C6.10221 31.5 5.40329 31.5 4.85198 31.2716C4.1169 30.9672 3.53287 30.3831 3.22839 29.6481C3.00003 29.0967 3.00003 28.3978 3.00003 27Z" stroke="url(#paint0_linear_2006_1189)" stroke-width="1.5"/>
<path d="M3.00003 18C3.00003 16.6022 3.00003 15.9033 3.22839 15.3519C3.53287 14.6169 4.1169 14.0328 4.85198 13.7284C5.40329 13.5 6.10221 13.5 7.50003 13.5H28.5C29.8979 13.5 30.5968 13.5 31.1481 13.7284C31.8832 14.0328 32.4672 14.6169 32.7717 15.3519C33 15.9033 33 16.6022 33 18C33 19.3978 33 20.0967 32.7717 20.648C32.4672 21.3831 31.8832 21.9672 31.1481 22.2716C30.5968 22.5 29.8979 22.5 28.5 22.5H7.50003C6.10221 22.5 5.40329 22.5 4.85198 22.2716C4.1169 21.9672 3.53287 21.3831 3.22839 20.648C3.00003 20.0967 3.00003 19.3978 3.00003 18Z" stroke="url(#paint1_linear_2006_1189)" stroke-width="1.5"/>
<path d="M3.00003 9C3.00003 7.60218 3.00003 6.90326 3.22839 6.35195C3.53287 5.61687 4.1169 5.03284 4.85198 4.72836C5.40329 4.5 6.10221 4.5 7.50003 4.5H28.5C29.8979 4.5 30.5968 4.5 31.1481 4.72836C31.8832 5.03284 32.4672 5.61687 32.7717 6.35195C33 6.90326 33 7.60218 33 9C33 10.3978 33 11.0967 32.7717 11.6481C32.4672 12.3831 31.8832 12.9672 31.1481 13.2716C30.5968 13.5 29.8979 13.5 28.5 13.5H7.50003C6.10221 13.5 5.40329 13.5 4.85198 13.2716C4.1169 12.9672 3.53287 12.3831 3.22839 11.6481C3.00003 11.0967 3.00003 10.3978 3.00003 9Z" stroke="url(#paint2_linear_2006_1189)" stroke-width="1.5"/>
<ellipse cx="7.5" cy="18" rx="1.5" ry="1.5" fill="url(#paint3_linear_2006_1189)"/>
<circle cx="7.5" cy="9" r="1.5" fill="url(#paint4_linear_2006_1189)"/>
<ellipse cx="7.5" cy="27" rx="1.5" ry="1.5" fill="url(#paint5_linear_2006_1189)"/>
<defs>
<linearGradient id="paint0_linear_2006_1189" x1="14.9909" y1="24.5149" x2="24.2544" y2="28.3189" gradientUnits="userSpaceOnUse">
<stop stop-color="white"/>
<stop offset="1" stop-color="#999999"/>
</linearGradient>
<linearGradient id="paint1_linear_2006_1189" x1="14.9909" y1="15.5149" x2="24.2544" y2="19.3189" gradientUnits="userSpaceOnUse">
<stop stop-color="white"/>
<stop offset="1" stop-color="#999999"/>
</linearGradient>
<linearGradient id="paint2_linear_2006_1189" x1="14.9909" y1="6.51493" x2="24.2544" y2="10.3189" gradientUnits="userSpaceOnUse">
<stop stop-color="white"/>
<stop offset="1" stop-color="#999999"/>
</linearGradient>
<linearGradient id="paint3_linear_2006_1189" x1="7.19909" y1="17.1716" x2="8.26546" y2="17.303" gradientUnits="userSpaceOnUse">
<stop stop-color="white"/>
<stop offset="1" stop-color="#999999"/>
</linearGradient>
<linearGradient id="paint4_linear_2006_1189" x1="7.19909" y1="8.17164" x2="8.26546" y2="8.30301" gradientUnits="userSpaceOnUse">
<stop stop-color="white"/>
<stop offset="1" stop-color="#999999"/>
</linearGradient>
<linearGradient id="paint5_linear_2006_1189" x1="7.19909" y1="26.1716" x2="8.26546" y2="26.303" gradientUnits="userSpaceOnUse">
<stop stop-color="white"/>
<stop offset="1" stop-color="#999999"/>
</linearGradient>
</defs>
</svg>
