<svg width="30" height="30" viewBox="0 0 30 30" fill="none" xmlns="http://www.w3.org/2000/svg">
<path d="M15.4002 24.805L14.946 23.9141L14.946 23.9141L15.4002 24.805ZM14.5998 24.805L15.054 23.9141L15.054 23.9141L14.5998 24.805ZM22.75 13.75C22.75 16.5737 21.2854 18.8786 19.514 20.634C17.7445 22.3876 15.7588 23.4997 14.946 23.9141L15.8544 25.6959C16.7557 25.2364 18.9449 24.0137 20.9218 22.0546C22.8968 20.0974 24.75 17.3118 24.75 13.75H22.75ZM15 6C19.2802 6 22.75 9.46979 22.75 13.75H24.75C24.75 8.36522 20.3848 4 15 4V6ZM7.25 13.75C7.25 9.46979 10.7198 6 15 6V4C9.61522 4 5.25 8.36522 5.25 13.75H7.25ZM15.054 23.9141C14.2412 23.4997 12.2555 22.3876 10.486 20.634C8.71463 18.8786 7.25 16.5737 7.25 13.75H5.25C5.25 17.3118 7.1032 20.0974 9.07819 22.0546C11.0551 24.0137 13.2443 25.2364 14.1456 25.6959L15.054 23.9141ZM14.946 23.9141C14.9589 23.9076 14.9777 23.9021 15 23.9021C15.0223 23.9021 15.0411 23.9076 15.054 23.9141L14.1456 25.6959C14.6847 25.9708 15.3153 25.9708 15.8544 25.6959L14.946 23.9141ZM17.75 13.75C17.75 15.2688 16.5188 16.5 15 16.5V18.5C17.6234 18.5 19.75 16.3734 19.75 13.75H17.75ZM15 11C16.5188 11 17.75 12.2312 17.75 13.75H19.75C19.75 11.1266 17.6234 9 15 9V11ZM12.25 13.75C12.25 12.2312 13.4812 11 15 11V9C12.3766 9 10.25 11.1266 10.25 13.75H12.25ZM15 16.5C13.4812 16.5 12.25 15.2688 12.25 13.75H10.25C10.25 16.3734 12.3766 18.5 15 18.5V16.5Z" fill="white"/>
</svg>
