<svg width="120" height="120" viewBox="0 0 120 120" fill="none" xmlns="http://www.w3.org/2000/svg">
<circle cx="60" cy="60" r="59" fill="#B4BBC6" stroke="#94A3B8" stroke-width="2"/>
<path d="M23.9546 45.7178C24.3509 44.6774 24.8959 43.7195 25.7051 42.9433C28.942 39.789 34.2928 40.5817 36.4893 44.5452C38.1408 47.5509 39.8913 50.4906 41.5924 53.4632L50.114 68.2935C52.4756 72.4387 49.9158 77.6739 45.2256 78.384C42.352 78.8134 39.6601 77.4922 38.1738 74.9159L30.6761 61.9023C30.6265 61.8032 30.5605 61.7206 30.4944 61.638C30.2302 61.4234 30.1146 61.1096 29.9494 60.8288L24.4335 51.2668C23.7894 50.1438 23.4922 48.9217 23.5252 47.6335C23.5747 46.9729 23.6573 46.3123 23.9546 45.7178Z" fill="#0B0F19"/>
<path d="M23.9546 45.7178C23.806 46.3123 23.6739 46.9068 23.6409 47.5344C23.5913 48.9216 23.9381 50.2098 24.6317 51.4154L30.0651 60.8123C30.2303 61.093 30.3624 61.3738 30.5275 61.638L27.5383 66.7741L23.3601 73.9746C23.294 73.9746 23.2775 73.9415 23.261 73.892C23.2445 73.7599 23.294 73.6443 23.3271 73.5122C24.0042 71.0349 23.4427 68.8385 21.7417 66.9558C20.7012 65.8163 19.38 65.1722 17.8607 64.9575C15.8789 64.6768 14.1283 65.1887 12.5594 66.4273C12.2787 66.642 12.097 66.9558 11.7667 67.1209C11.7007 67.1209 11.6676 67.0879 11.6511 67.0384L14.0127 62.9262L23.839 45.8994C23.8721 45.8334 23.9216 45.7838 23.9546 45.7178Z" fill="#0B0F19" fill-opacity="0.85"/>
<path d="M11.7172 67.0877L12.6585 66.2454C16.6716 63.0746 22.6995 65.3702 23.5748 70.3907C23.7895 71.5962 23.6739 72.7523 23.3106 73.9083C23.294 74.0074 23.2775 74.09 23.2445 74.1891C23.0959 74.4533 22.9637 74.734 22.7986 74.9983C21.3288 77.426 19.1653 78.6315 16.3248 78.4499C13.0714 78.2187 10.5116 75.7745 10.0657 72.5376C9.851 70.9687 10.1648 69.4989 10.974 68.1446C11.1392 67.8474 11.3373 67.5831 11.519 67.2859C11.6016 67.2198 11.5685 67.0877 11.7172 67.0877Z" fill="#0B0F19"/>
<path d="M11.7172 67.088C11.6511 67.1541 11.6511 67.2697 11.5355 67.2862C11.519 67.1706 11.5851 67.1045 11.6511 67.022L11.7172 67.088Z" fill="#0B0F19" fill-opacity="0.85"/>
<path d="M23.2446 74.1894C23.1786 74.0738 23.2446 73.9913 23.3107 73.9087L23.3768 73.9747L23.2446 74.1894Z" fill="#0B0F19" fill-opacity="0.85"/>
<path d="M63.9265 76.8355L68.8795 63.665H70.7932L75.7461 76.8355H73.87L72.5942 73.2708H67.0784L65.8026 76.8355H63.9265ZM67.6413 71.6949H72.0314L69.8926 65.7663H69.8176L67.6413 71.6949ZM77.4722 75.7473C76.6467 74.8093 76.2339 73.6836 76.2339 72.3328C76.2339 71.0195 76.6467 69.8938 77.4722 68.9182C78.3352 67.9801 79.3108 67.5299 80.5115 67.5299C81.1869 67.5299 81.7873 67.68 82.3126 67.9426C82.8755 68.2428 83.2882 68.5805 83.5884 69.0683H83.6634L83.5884 67.8301V63.665H85.2769V76.8355H83.6634V75.5972H83.5884C83.2882 76.0475 82.8755 76.4227 82.3126 76.7229C81.7498 77.0231 81.1494 77.1357 80.5115 77.1357C79.3108 77.1357 78.2977 76.6854 77.4722 75.7473ZM82.8004 74.6967C83.3632 74.0963 83.6259 73.3084 83.6259 72.3328C83.6259 71.3947 83.3632 70.6067 82.8004 70.0064C82.2751 69.406 81.5997 69.1058 80.7742 69.1058C79.9487 69.1058 79.2733 69.406 78.748 70.0064C78.1851 70.6067 77.9225 71.3947 77.9225 72.3328C77.9225 73.2708 78.1851 74.0588 78.748 74.6592C79.3108 75.2595 79.9862 75.5597 80.7742 75.5597C81.5997 75.5972 82.2751 75.2971 82.8004 74.6967ZM93.0816 76.3102C92.4062 76.8355 91.5432 77.1357 90.4925 77.1357C89.592 77.1357 88.804 76.9105 88.0911 76.4227C87.4157 75.9349 86.9279 75.3346 86.6277 74.5466L88.1286 73.9087C88.3538 74.434 88.6539 74.8843 89.1042 75.1845C89.517 75.4847 90.0048 75.6348 90.4925 75.6348C91.0179 75.6348 91.4681 75.5222 91.8434 75.2971C92.2186 75.0719 92.3687 74.7717 92.3687 74.4716C92.3687 73.9087 91.9184 73.4584 91.0554 73.1958L89.517 72.8206C87.7534 72.3703 86.8904 71.5448 86.8904 70.269C86.8904 69.4435 87.2281 68.8056 87.9035 68.2803C88.5789 67.7925 89.4419 67.5299 90.455 67.5299C91.2171 67.5247 91.9673 67.7188 92.6313 68.0927C93.2692 68.4679 93.7195 68.9933 93.9822 69.6311L92.4813 70.269C92.2936 69.8938 92.031 69.5936 91.6558 69.3685C91.2805 69.1434 90.8303 69.0308 90.3425 69.0308C89.8922 69.0308 89.517 69.1434 89.1417 69.3685C88.804 69.5936 88.6164 69.8563 88.6164 70.194C88.6164 70.7193 89.1042 71.0945 90.0798 71.2821L91.4306 71.6198C93.2317 72.0701 94.0947 72.9707 94.0947 74.3215C94.1322 75.1094 93.757 75.7849 93.0816 76.3102Z" fill="#0B0F19"/>
<path d="M57.5809 44.3516C53.3408 44.3516 49.8137 47.7661 49.8137 51.9687C49.8137 56.1712 53.3408 59.5482 57.5809 59.5482C59.8698 59.5482 61.5583 58.7978 62.9091 57.4095C64.2975 56.0211 64.7102 54.1074 64.7102 52.569C64.7102 52.0812 64.6727 51.631 64.5976 51.2557H57.5809V53.3195H62.5714C62.4213 54.4827 62.0461 55.3457 61.4457 55.9461C60.7328 56.659 59.5696 57.4845 57.5809 57.4845C54.5041 57.4845 52.1026 55.008 52.1026 51.9687C52.1026 48.9293 54.5041 46.4528 57.5809 46.4528C59.2319 46.4528 60.4702 47.0907 61.3332 47.9537L62.7966 46.4904C61.5583 45.2896 59.9073 44.3516 57.5809 44.3516ZM70.3011 49.7923C67.637 49.7923 65.4231 51.8561 65.4231 54.7453C65.4231 57.5971 67.5995 59.6983 70.3011 59.6983C73.0027 59.6983 75.179 57.5971 75.179 54.7453C75.179 51.8936 72.9652 49.7923 70.3011 49.7923ZM70.3011 57.7472C68.8377 57.7472 67.5619 56.5089 67.5619 54.7453C67.5619 52.9818 68.8377 51.7435 70.3011 51.7435C71.7645 51.7435 73.0402 52.9443 73.0402 54.7453C73.0402 56.5089 71.7645 57.7472 70.3011 57.7472ZM80.8825 49.7923C78.1808 49.7923 76.0045 51.8561 76.0045 54.7453C76.0045 57.5971 78.1808 59.6983 80.8825 59.6983C83.5466 59.6983 85.7604 57.5971 85.7604 54.7453C85.7604 51.8936 83.5841 49.7923 80.8825 49.7923ZM80.8825 57.7472C79.4191 57.7472 78.1433 56.5089 78.1433 54.7453C78.1433 52.9818 79.4191 51.7435 80.8825 51.7435C82.3459 51.7435 83.6216 52.9443 83.6216 54.7453C83.6216 56.5089 82.3834 57.7472 80.8825 57.7472ZM91.4263 49.7923C88.9874 49.7923 86.7735 51.9311 86.7735 54.7078C86.7735 57.447 88.9874 59.5858 91.4263 59.5858C92.5895 59.5858 93.4901 59.0604 93.9779 58.4601H94.0529V59.173C94.0529 61.0491 93.0773 62.0623 91.4639 62.0623C90.1506 62.0623 89.3626 61.1242 89.0249 60.3362L87.1488 61.1242C87.6741 62.4375 89.0999 64.0134 91.4639 64.0134C93.9779 64.0134 96.0791 62.5125 96.0791 58.9104V50.13H94.0529V50.918H93.9779C93.4901 50.3177 92.5895 49.7923 91.4263 49.7923ZM91.6139 57.6721C90.1506 57.6721 88.9123 56.4339 88.9123 54.7078C88.9123 52.9818 90.1506 51.706 91.6139 51.706C93.0773 51.706 94.203 52.9818 94.203 54.7078C94.203 56.4339 93.0773 57.6721 91.6139 57.6721ZM97.6551 44.9519H99.7939V59.4357H97.6551V44.9519ZM105.535 49.7923C102.983 49.7923 100.845 51.7811 100.845 54.7453C100.845 57.522 102.946 59.6983 105.76 59.6983C108.049 59.6983 109.362 58.31 109.887 57.522L108.199 56.3963C107.636 57.2218 106.848 57.7472 105.76 57.7472C104.634 57.7472 103.846 57.2594 103.359 56.2462L110 53.5071L109.775 52.9442C109.362 51.8561 108.086 49.7923 105.535 49.7923ZM102.983 54.5953C102.908 52.6816 104.484 51.706 105.572 51.706C106.435 51.706 107.186 52.1187 107.411 52.7566L102.983 54.5953Z" fill="#0B0F19"/>
</svg>
