<svg width="120" height="120" viewBox="0 0 120 120" fill="none" xmlns="http://www.w3.org/2000/svg">
<circle cx="60" cy="60" r="59" fill="#B4BBC6" stroke="#94A3B8" stroke-width="2"/>
<mask id="mask0_4095_474" style="mask-type:luminance" maskUnits="userSpaceOnUse" x="10" y="47" width="100" height="26">
<path d="M110 47H10V73H110V47Z" fill="white"/>
</mask>
<g mask="url(#mask0_4095_474)">
<path d="M36.165 66.5832V47.0288H39.2037V54.738C40.1603 53.3128 41.5953 52.6 43.5083 52.5997C45.1403 52.5997 46.4016 53.0827 47.2926 54.0487C48.1835 55.0147 48.629 56.3605 48.629 58.0861V66.5832H45.5905V58.5083C45.5905 56.2764 44.5963 55.1604 42.6081 55.1602C41.6137 55.1602 40.7976 55.4603 40.1603 56.0606C39.5229 56.6608 39.204 57.5049 39.2037 58.5927V66.5834L36.165 66.5832Z" fill="#0B0F19"/>
<path d="M62.9859 64.8943C61.6355 66.2448 59.9381 66.9202 57.8935 66.9202C55.849 66.9202 54.1468 66.2448 52.7868 64.8943C51.4268 63.5439 50.7466 61.8276 50.7466 59.7455C50.7466 57.6633 51.4266 55.9518 52.7864 54.6108C54.1464 53.2701 55.8485 52.5995 57.8931 52.5991C59.9377 52.5988 61.6353 53.2693 62.9855 54.6108C64.3361 55.9521 65.0116 57.6637 65.0116 59.7455C65.0114 61.8272 64.3361 63.5437 62.9859 64.8943ZM55.0096 63.1785C55.7316 64.0226 56.6929 64.4446 57.8935 64.4443C59.0944 64.4443 60.0557 64.0224 60.7775 63.1785C61.4992 62.3343 61.8603 61.1902 61.8607 59.7458C61.8607 58.3206 61.4948 57.1859 60.7633 56.3416C60.032 55.4973 59.0753 55.0752 57.8935 55.0753C56.6931 55.0753 55.7318 55.4927 55.0096 56.3274C54.2877 57.1621 53.9266 58.3016 53.9264 59.7458C53.9264 61.1904 54.2875 62.3346 55.0096 63.1785Z" fill="#0B0F19"/>
<path d="M72.0458 66.92C69.2508 66.92 67.8534 65.4196 67.8537 62.4183V55.4965H65.7437V52.9359H67.938L68.6415 48.9126H70.9204V52.9359H76.3506V55.4965H70.9204V62.3335C70.9204 63.5902 71.38 64.2187 72.2989 64.2187C73.1615 64.2187 73.94 63.4309 74.6341 61.8552L76.9976 63.0652C75.8343 65.6354 74.1839 66.9202 72.0458 66.92Z" fill="#0B0F19"/>
<path d="M77.9738 72.8284C76.6233 72.8284 75.5073 72.4534 74.6257 71.703L75.7514 69.3116C76.2953 69.9488 76.8862 70.2677 77.5238 70.2677C78.3677 70.2677 78.7896 69.7238 78.7896 68.636V52.9366H81.8283V68.6925C81.8283 70.1558 81.4673 71.2108 80.7451 71.8575C80.0231 72.5045 79.0992 72.828 77.9738 72.8284ZM80.309 50.6293C79.8094 50.6463 79.3238 50.4642 78.9586 50.123C78.7829 49.9574 78.6444 49.7564 78.5523 49.5333C78.4603 49.3102 78.4164 49.0701 78.4242 48.8288C78.4175 48.5856 78.4614 48.3436 78.5536 48.1183C78.6455 47.893 78.7836 47.6894 78.9586 47.5205C79.3259 47.1856 79.8051 47 80.302 47C80.799 47 81.2781 47.1856 81.6455 47.5205C81.8244 47.6873 81.9657 47.8902 82.0603 48.1158C82.1549 48.3413 82.2005 48.5843 82.1942 48.8288C82.1986 49.0689 82.152 49.3071 82.0575 49.5278C81.9629 49.7485 81.8225 49.9465 81.6455 50.1089C81.4681 50.2793 81.2586 50.4131 81.0292 50.5024C80.8001 50.5917 80.5551 50.6348 80.309 50.6293Z" fill="#0B0F19"/>
<path d="M89.3739 66.9204C87.8167 66.9204 86.5554 66.5313 85.5898 65.7528C84.6241 64.9743 84.1411 63.9287 84.1406 62.6156C84.1406 61.4154 84.6426 60.3979 85.6463 59.563C86.65 58.728 87.9113 58.3107 89.4304 58.3109C90.9874 58.3109 92.3002 58.808 93.3695 59.8022V58.1421C93.3695 57.1671 93.1208 56.4121 92.6239 55.8772C92.1267 55.3423 91.4187 55.0749 90.4998 55.075C88.6428 55.075 87.4893 56.0222 87.0389 57.9167L84.2535 57.3258C84.6285 55.8628 85.3693 54.7093 86.4763 53.8653C87.5835 53.0212 88.9619 52.5991 90.6122 52.5991C92.4128 52.5991 93.8339 53.0728 94.8748 54.02C95.9156 54.9672 96.4363 56.3505 96.4363 58.1699V66.5826H93.4819V64.8665C92.4874 66.2358 91.118 66.9206 89.3739 66.9204ZM89.9367 64.6695C91.2872 64.6695 92.4313 63.9943 93.3691 62.6439V62.2217C92.4313 61.0963 91.2872 60.5336 89.9367 60.5338C89.1489 60.5338 88.5111 60.7261 88.0235 61.1106C87.7926 61.2806 87.6058 61.5034 87.4785 61.7604C87.3513 62.0174 87.2871 62.3008 87.2917 62.5876C87.2843 62.8774 87.3454 63.1645 87.4702 63.4263C87.5948 63.688 87.7795 63.9165 88.0093 64.093C88.4878 64.4778 89.1302 64.6698 89.9367 64.6695Z" fill="#0B0F19"/>
<path d="M99.3926 66.5823V52.9365H102.347V55.2993C103.097 53.5739 104.391 52.7112 106.23 52.7109C107.317 52.7109 108.217 53.0673 108.931 53.7801C109.644 54.4929 110 55.4495 110 56.6499C109.992 57.3683 109.869 58.0808 109.634 58.7598L106.848 58.4786C106.906 58.1058 106.943 57.7301 106.961 57.3533C106.961 55.9466 106.38 55.2433 105.217 55.2433C104.429 55.2433 103.768 55.6606 103.233 56.4953C102.699 57.33 102.431 58.432 102.431 59.8014V66.582L99.3926 66.5823Z" fill="#0B0F19"/>
<path d="M17.1893 55.0252C19.4531 53.7672 22.5548 52.0444 22.5548 47.0288H18.7999C18.7999 49.8349 17.4338 50.5939 15.366 51.7427C13.1021 53.0006 10.0005 54.7235 10.0005 59.739H13.7557C13.7557 56.9329 15.1215 56.1741 17.1893 55.0252Z" fill="#0B0F19"/>
<path d="M23.688 53.8721C23.688 56.6782 22.322 57.437 20.2541 58.5858C17.9903 59.8439 14.8887 61.5668 14.8887 66.5824H18.6438C18.6438 63.7761 20.01 63.0172 22.0778 61.8683C24.3417 60.6104 27.4432 58.8876 27.4432 53.8721H23.688Z" fill="#0B0F19"/>
</g>
</svg>
