<svg width="120" height="120" viewBox="0 0 120 120" fill="none" xmlns="http://www.w3.org/2000/svg">
<circle cx="60" cy="60" r="59" fill="#B4BBC6" stroke="#94A3B8" stroke-width="2"/>
<path d="M10 51.4038H13.4869V59.1475H20.841V51.4038H24.3324V70.4122H20.841V62.5059H13.4869V70.4122H10V51.4038ZM35.3789 64.2209C35.3789 65.8121 34.0819 67.1069 32.4904 67.1069C30.8984 67.1069 29.6022 65.8121 29.6022 64.2209V56.0371H26.2954V64.2209C26.2954 67.6351 29.0746 70.4122 32.4904 70.4122C35.9055 70.4122 38.6845 67.6351 38.6845 64.2209V56.0371H35.3789V64.2209ZM47.9159 56.133C46.2755 56.133 45.1306 56.6088 44.0248 57.6937V51.4038H40.7073V63.0607C40.7073 67.424 43.8633 70.4122 47.409 70.4122C51.3508 70.4122 54.8045 67.3707 54.8045 63.2728C54.8045 59.2268 51.6198 56.133 47.9159 56.133ZM47.9983 67.3444C45.7503 67.3444 44.0313 65.4677 44.0313 63.2728C44.0313 61.0775 45.7503 59.2002 47.9983 59.2002C49.9031 59.2002 51.6231 61.0775 51.6231 63.2728C51.6231 65.4677 49.9031 67.3444 47.9983 67.3444ZM60.3765 56.9684C60.3765 55.3014 61.4877 54.7729 62.7041 54.7729C63.6835 54.7729 64.9795 55.5133 65.8252 56.4126L67.9939 53.8742C66.91 52.42 64.7148 51.4149 62.9159 51.4149C59.3178 51.4149 56.7253 53.504 56.7253 56.9684C56.7253 63.3938 64.6353 61.3571 64.6353 64.9542C64.6353 66.0636 63.5511 67.0429 62.3084 67.0429C60.3501 67.0429 59.7149 66.0909 58.8159 65.0858L56.4081 67.571C57.9433 69.4487 59.8474 70.4011 62.1227 70.4011C65.535 70.4011 68.2863 68.2856 68.2863 64.9798C68.2863 57.8406 60.3765 60.062 60.3765 56.9684ZM77.0199 55.9467C73.4746 55.9467 70.3182 58.9331 70.3182 63.2974V74.9844H73.6356V68.6646C74.7415 69.7488 75.8859 70.2254 77.5268 70.2254C81.2305 70.2254 84.4156 67.1319 84.4156 63.0859C84.4156 58.9874 80.961 55.9467 77.0199 55.9467ZM77.6094 67.1585C75.3616 67.1585 73.6424 65.2793 73.6424 63.0859C73.6424 60.8906 75.3616 59.0134 77.6094 59.0134C79.5138 59.0134 81.234 60.8906 81.234 63.0859C81.234 65.2793 79.5138 67.1585 77.6094 67.1585ZM108.835 67.3444C106.878 67.3444 106.323 66.4986 106.323 65.2024V59.4646H109.364V56.5562H106.323V52.7217L102.964 54.2286V65.9164C102.964 68.9047 105.027 70.4122 107.856 70.4122C108.279 70.4122 108.862 70.3849 109.18 70.3066L110 67.2924C109.63 67.318 109.207 67.3444 108.835 67.3444Z" fill="#0B0F19"/>
<path d="M100.086 59.6336C99.4504 58.5398 98.5558 57.663 97.4374 57.0029C96.6016 56.5165 95.735 56.2078 94.7584 56.0753V52.6C95.735 52.1855 96.3411 51.268 96.3411 50.1977C96.3411 48.7389 95.1707 47.5567 93.7124 47.5567C92.253 47.5567 91.0621 48.7389 91.0621 50.1977C91.0621 51.268 91.6332 52.1855 92.6098 52.6V56.0768C91.8285 56.1897 91.0183 56.4332 90.2784 56.8072C88.7672 55.66 83.8119 51.8963 80.9131 49.6981C80.9818 49.4503 81.0348 49.1949 81.0348 48.9255C81.0348 47.3097 79.7257 46 78.1086 46C76.4916 46 75.1831 47.3097 75.1831 48.9255C75.1831 50.5411 76.4929 51.8512 78.11 51.8512C78.6616 51.8512 79.1718 51.6899 79.612 51.4248L80.2238 51.8887L88.6297 57.9428C88.1854 58.3506 87.7715 58.8145 87.4404 59.335C86.7695 60.3962 86.3595 61.5637 86.3595 62.8373V63.103C86.3595 63.997 86.5294 64.8411 86.8189 65.6339C87.0738 66.3263 87.4465 66.9557 87.908 67.5249L85.1182 70.3203C84.7139 70.1699 84.2748 70.139 83.8534 70.2314C83.432 70.3238 83.0461 70.5355 82.7419 70.8412C82.5313 71.0508 82.3643 71.3 82.2507 71.5745C82.1371 71.849 82.0791 72.1432 82.0802 72.4403C82.0803 73.0442 82.3157 73.6117 82.7431 74.0387C82.9525 74.2494 83.2018 74.4165 83.4763 74.5303C83.7508 74.644 84.0452 74.7022 84.3424 74.7014C84.6396 74.7021 84.9341 74.644 85.2087 74.5302C85.4833 74.4165 85.7327 74.2494 85.9423 74.0387C86.1528 73.8292 86.3197 73.5801 86.4333 73.3057C86.547 73.0314 86.6051 72.7372 86.6044 72.4403C86.6044 72.2066 86.5683 71.9785 86.5003 71.7618L89.3839 68.8791C89.7792 69.152 90.2062 69.3818 90.6652 69.58C91.5705 69.9712 92.5698 70.2096 93.6634 70.2096H93.8638C95.0728 70.2096 96.2133 69.9258 97.2854 69.3451C98.4152 68.7315 99.2994 67.8923 99.9674 66.821C100.639 65.7468 101.009 64.5599 101.009 63.2541V63.1889C101.009 61.9044 100.711 60.7193 100.086 59.6336ZM96.5631 65.6808C95.7805 66.5502 94.8808 67.0858 93.8638 67.0858H93.6962C93.1153 67.0858 92.5471 66.9253 91.9908 66.6334C91.3638 66.312 90.8873 65.8536 90.4972 65.2731C90.094 64.7034 89.8753 64.0814 89.8753 63.4218V63.2215C89.8753 62.5731 89.9997 61.9583 90.3134 61.3777C90.6488 60.7429 91.1017 60.2494 91.7041 59.8569C92.2955 59.4672 92.9272 59.2761 93.6308 59.2761H93.6962C94.3341 59.2761 94.9381 59.4018 95.508 59.6933C96.0887 60.0041 96.5631 60.4288 96.9309 60.9874C97.2882 61.5462 97.5007 62.1489 97.5691 62.8055C97.5798 62.9419 97.5853 63.0817 97.5853 63.2153C97.5853 64.1064 97.2446 64.9317 96.5631 65.6808Z" fill="#0B0F19"/>
</svg>
