<svg width="61" height="87" viewBox="0 0 61 87" fill="none" xmlns="http://www.w3.org/2000/svg">
<path d="M53.3855 30.1354C57.8181 27.2355 60.75 22.2427 60.75 16.5817C60.75 7.64507 53.445 0.375 44.4676 0.375H16.5324C7.55501 0.375 0.25 7.64507 0.25 16.5817C0.25 22.2427 3.18186 27.2355 7.61449 30.1354C3.18186 33.0336 0.25 38.0264 0.25 43.6875C0.25 49.3486 3.18186 54.3414 7.61449 57.2413C3.18186 60.1378 0.25 65.1323 0.25 70.7933C0.25 79.7299 7.5941 87 16.6191 87C25.7427 87 33.1667 79.6504 33.1667 70.6174V55.6712C36.0595 58.2953 39.9024 59.8942 44.114 59.8942H44.4676C53.445 59.8942 60.75 52.6241 60.75 43.6875C60.75 38.0264 57.8181 33.0336 53.3855 30.1354ZM33.1667 5.68417H44.4676C50.5046 5.68417 55.4166 10.572 55.4166 16.5817C55.4166 22.5913 50.5046 27.4808 44.4676 27.4808H33.1667V5.68417ZM5.58344 16.5817C5.58344 10.572 10.4954 5.68417 16.5324 5.68417H27.8333V27.4808H16.5324C10.4954 27.4808 5.58344 22.5913 5.58344 16.5817ZM5.58344 43.6875C5.58344 37.6779 10.4954 32.79 16.5324 32.79H27.8333V54.5867H16.4628C10.458 54.5495 5.58344 49.6734 5.58344 43.6875ZM27.8333 70.6174C27.8333 76.7234 22.8024 81.6908 16.6191 81.6908C10.5345 81.6908 5.58344 76.8029 5.58344 70.7933C5.58344 64.7837 10.4954 59.8942 16.5324 59.8942H27.8333V70.6174ZM44.4676 54.5867H44.114C38.077 54.5867 33.1667 49.6971 33.1667 43.6875C33.1667 37.6779 38.077 32.79 44.114 32.79H44.4676C50.5046 32.79 55.4166 37.6779 55.4166 43.6875C55.4166 49.6971 50.5046 54.5867 44.4676 54.5867Z" fill="white"/>
<path d="M14.6105 49.9541C14.5835 49.9541 14.5583 49.9541 14.5312 49.956H27.467V49.9541H14.6105Z" fill="white"/>
</svg>
