<svg width="512" height="512" viewBox="0 0 512 512" fill="none" xmlns="http://www.w3.org/2000/svg">
<mask id="mask0_4136_11" style="mask-type:alpha" maskUnits="userSpaceOnUse" x="0" y="30" width="512" height="452">
<path d="M256 30C185.691 30 121.935 58.5254 75.6236 104.588C75.4225 104.765 75.1665 104.826 74.9775 105.015C74.7886 105.204 74.7276 105.46 74.5509 105.661C28.5135 151.986 0 215.769 0 286.107C0 347.975 22.339 407.69 62.9272 454.283C67.8644 459.972 76.4221 460.582 82.1211 455.747L135.619 410.404C141.489 405.458 142.129 396.61 137.045 390.86C111.543 361.92 97.5116 324.705 97.5116 286.1C97.5116 198.671 168.6 127.552 255.994 127.552C292.37 127.552 327.924 140.199 356.066 163.139C370.066 174.572 387.456 153.346 373.388 141.882C343.918 117.838 307.529 103.527 269.708 100.71V58.129C389.358 65.2878 484.571 164.651 484.571 286.107C484.571 336.736 467.803 385.793 437.09 425.648L404.431 398.098C428.696 365.945 441.911 326.693 441.911 286.107C441.911 268.063 439.32 250.197 434.213 232.995C428.983 215.476 402.804 223.58 407.924 240.818C412.264 255.465 414.476 270.704 414.476 286.107C414.476 324.693 400.457 361.89 374.991 390.811C369.938 396.525 370.505 405.373 376.436 410.373L430.025 455.588C435.742 460.43 444.312 459.753 449.201 454.106C489.698 407.55 512 347.883 512 286.107C512 144.888 397.16 30 256 30ZM134.766 145.406L104.613 115.247C141.763 82.264 189.605 61.2816 242.286 58.129V100.807C201.344 103.826 164.096 120.076 134.766 145.406ZM107.642 398.171L75.0324 425.807C47.037 389.531 30.7444 345.609 27.9954 299.827H70.6499C73.283 335.505 86.0891 369.634 107.642 398.171ZM70.784 272.387H28.1234C31.2747 219.677 52.2484 171.816 85.2175 134.65L115.371 164.804C90.0449 194.152 73.7951 231.422 70.784 272.387Z" fill="black"/>
<path d="M286.856 355.563C299.8 342.668 406.908 202.956 419.082 187.07C428.493 174.777 413.221 158.886 400.515 167.409C372.904 185.702 234.488 277.66 221.508 290.573C203.497 308.489 203.497 337.647 221.508 355.563C239.481 373.443 268.803 373.516 286.856 355.563ZM240.948 309.912C246.961 304.015 295.877 270.499 346.369 236.514C309.2 284.567 273.411 330.236 267.41 336.218C249.913 353.63 223.445 327.324 240.948 309.912Z" fill="black"/>
<path d="M208.656 430H303.344C321.552 430 321.552 403 303.344 403H208.656C190.448 403 190.448 430 208.656 430Z" fill="black"/>
<path d="M371.395 455H140.609C122.464 455 122.464 482 140.609 482H371.395C389.535 482 389.535 455 371.395 455Z" fill="black"/>
</mask>
<g mask="url(#mask0_4136_11)">
<rect width="512" height="512" fill="url(#paint0_linear_4136_11)"/>
</g>
<defs>
<linearGradient id="paint0_linear_4136_11" x1="0" y1="256" x2="512" y2="256" gradientUnits="userSpaceOnUse">
<stop stop-color="white"/>
<stop offset="1" stop-color="#7D7D7D"/>
</linearGradient>
</defs>
</svg>
