<svg width="512" height="512" viewBox="0 0 512 512" fill="none" xmlns="http://www.w3.org/2000/svg">
<mask id="mask0_4136_2" style="mask-type:alpha" maskUnits="userSpaceOnUse" x="42" y="42" width="428" height="428">
<path d="M187.326 50.673C179.965 41.4725 166.54 39.9809 157.34 47.3411L50.8121 132.564C50.4656 132.836 50.1277 133.12 49.7992 133.413C49.0924 134.043 48.4325 134.716 47.822 135.427C44.7402 139.009 42.8276 143.626 42.6768 148.686C42.6702 148.901 42.667 149.117 42.667 149.333C42.667 154.569 44.5898 159.575 47.9973 163.441C48.4995 164.01 49.0344 164.555 49.5997 165.073C49.9941 165.434 50.4022 165.78 50.8229 166.111L157.34 251.326C166.54 258.686 179.965 257.192 187.326 247.993C194.686 238.792 193.194 225.367 183.994 218.007L124.817 170.666L448 170.667C459.783 170.667 469.334 161.115 469.334 149.333C469.334 137.551 459.783 128 448 128L124.817 128L183.994 80.6582C193.194 73.298 194.686 59.8732 187.326 50.673Z" fill="black"/>
<path d="M354.66 464.659C345.459 472.019 332.036 470.528 324.674 461.327C317.314 452.126 318.808 438.701 328.007 431.341L387.183 384H64.0003C52.2181 384 42.667 374.449 42.667 362.667C42.667 350.884 52.2181 341.333 64.0003 341.333H387.183L328.007 293.992C318.808 286.632 317.314 273.207 324.674 264.006C332.036 254.805 345.459 253.314 354.66 260.674L461.173 345.884C461.632 346.246 462.076 346.624 462.503 347.021C462.997 347.479 463.467 347.957 463.911 348.454C467.266 352.211 469.208 357.064 469.327 362.163L469.333 362.667L469.327 363.17C469.212 368.132 467.369 372.862 464.179 376.574C463.569 377.284 462.908 377.956 462.202 378.586C461.873 378.88 461.534 379.164 461.188 379.437L354.66 464.659Z" fill="black"/>
</mask>
<g mask="url(#mask0_4136_2)">
<rect width="512" height="512" fill="url(#paint0_linear_4136_2)"/>
</g>
<defs>
<linearGradient id="paint0_linear_4136_2" x1="0" y1="256" x2="512" y2="256" gradientUnits="userSpaceOnUse">
<stop stop-color="white"/>
<stop offset="1" stop-color="#7D7D7D"/>
</linearGradient>
</defs>
</svg>
