<svg width="112" height="48" viewBox="0 0 112 48" fill="none" xmlns="http://www.w3.org/2000/svg">
<g clip-path="url(#clip0_8208_68478)">
<path d="M98.5482 22.7753L98.4987 22.8249C98.8457 21.8833 99.5394 21.5364 100.134 21.5364C100.977 21.5364 101.72 22.1807 101.72 23.1223C101.72 23.3205 101.72 23.5683 101.621 23.8656C99.8863 28.3259 96.219 30.6055 92.6509 30.9524C91.0155 33.7276 88.3394 35.7595 84.5234 35.7595C79.0721 35.7595 76.6438 31.448 76.6438 26.74C76.6438 20.9417 80.3111 14.4992 86.4562 14.4992C87.7942 14.4992 88.9341 14.7967 89.8757 15.1931C92.6509 16.2337 94.435 19.8515 94.435 23.7169C94.435 24.9559 94.3358 26.1948 94.0385 27.3843C95.8722 26.74 97.6066 25.2532 98.5482 22.7753ZM88.1907 18.5629V18.5135C87.1005 18.5135 86.4562 19.9505 86.4562 21.6851C86.4562 24.2125 87.8438 26.5417 90.0243 27.3843C90.3713 26.294 90.5199 25.0551 90.5199 23.6179C90.5199 20.8427 89.6774 18.5629 88.1907 18.5629ZM84.573 32.1417C85.9606 32.1417 87.3482 31.5471 88.4385 30.3081C85.2173 28.8709 83.1854 25.5011 83.1854 22.2797C83.1854 21.1895 83.3837 20.0497 83.681 19.0585C81.6987 20.694 80.5589 23.9152 80.5589 26.74C80.5589 30.4072 82.2934 32.1417 84.573 32.1417Z" fill="#0D0806"/>
<path d="M77.409 22.7753L77.3595 22.8249C77.7064 21.8833 78.301 21.4869 78.8957 21.4869C79.7382 21.4869 80.5806 22.2303 80.5806 23.1719C80.5806 23.4196 80.5312 23.6179 80.432 23.8656C78.4993 28.5736 75.6249 34.0745 71.0161 37.2957L70.917 38.2869C70.3718 44.2339 67.3489 48.0001 63.5329 48.0001C60.6585 48.0001 58.9736 46.0179 58.9736 43.6887C58.9736 39.4763 63.285 37.94 67.2993 35.3631C67.3984 34.3223 67.448 33.1329 67.4974 31.7948C65.5152 33.9753 63.3842 34.8675 61.501 34.8675C57.7346 34.8675 54.6621 31.7948 54.6621 27.0869C54.6621 19.8515 59.4196 15.094 64.7222 15.094H64.7718C68.3896 15.094 72.255 17.0267 72.255 20.4957C72.255 21.6356 71.7594 27.8303 71.363 32.6373C74.039 30.1099 76.2692 25.9967 77.409 22.7753ZM62.0461 31.2993C63.8798 31.2993 66.3577 30.1595 67.894 24.5595C68.1417 23.3205 68.2904 22.2303 68.2409 20.9417C67.9436 19.6037 66.8037 18.8108 65.1682 18.8108C61.7984 18.8108 58.5772 22.032 58.5772 26.9383C58.5772 29.9117 59.9648 31.2993 62.0461 31.2993ZM63.9293 44.3825H63.9789C65.0196 44.3825 66.1594 43.6887 66.9028 39.2285C64.7222 40.5169 62.6904 41.8055 62.6904 43.3417C62.6904 43.986 63.186 44.3825 63.9293 44.3825Z" fill="#0D0806"/>
<path d="M55.5321 22.7753L55.4826 22.8249C55.8294 21.8833 56.5233 21.5364 57.118 21.5364C57.9605 21.5364 58.7038 22.1807 58.7038 23.1223C58.7038 23.3205 58.7038 23.5683 58.6048 23.8656C56.8702 28.3259 53.2029 30.6055 49.6348 30.9524C47.9994 33.7276 45.3233 35.7595 41.5073 35.7595C36.056 35.7595 33.6277 31.448 33.6277 26.74C33.6277 20.9417 37.2949 14.4992 43.4401 14.4992C44.7781 14.4992 45.918 14.7967 46.8596 15.1931C49.6348 16.2337 51.4189 19.8515 51.4189 23.7169C51.4189 24.9559 51.3197 26.1948 51.0224 27.3843C52.8561 26.74 54.5905 25.2532 55.5321 22.7753ZM45.1746 18.5629V18.5135C44.0844 18.5135 43.4401 19.9505 43.4401 21.6851C43.4401 24.2125 44.8277 26.5417 47.0082 27.3843C47.3552 26.294 47.5038 25.0551 47.5038 23.6179C47.5038 20.8427 46.6613 18.5629 45.1746 18.5629ZM41.5569 32.1417C42.9445 32.1417 44.3321 31.5471 45.4224 30.3081C42.2012 28.8709 40.1693 25.5011 40.1693 22.2797C40.1693 21.1895 40.3676 20.0497 40.6649 19.0585C38.6826 20.694 37.5428 23.9152 37.5428 26.74C37.5428 30.4072 39.2773 32.1417 41.5569 32.1417Z" fill="#0D0806"/>
<path d="M36.1461 21.2111C35.4522 21.2111 34.8576 21.5581 34.4611 22.4997C33.1727 25.7705 30.4964 31.321 27.7706 31.321C26.0544 31.321 24.7262 30.9329 23.3841 30.5406C22.0136 30.1401 20.6285 29.7351 18.8006 29.7351C18.1564 29.7351 17.2643 29.8343 16.4218 29.983C18.9599 26.5219 19.9081 22.3303 20.8269 14.4073C19.0969 14.2971 17.6897 13.9775 16.664 13.6547C15.5685 23.7034 14.3244 27.5349 9.78097 31.321C9.18626 31.8166 8.88892 32.5105 8.88892 33.2043C8.88892 34.2946 9.83053 35.2362 11.0199 35.2362C11.4164 35.2362 11.8624 35.0875 12.3084 34.8893C14.8359 33.7494 16.3722 33.4521 18.2555 33.4521C19.453 33.4521 20.886 33.7946 22.4203 34.1611C24.1875 34.5835 26.0889 35.0379 27.9194 35.0379C31.9336 35.0379 34.5602 31.1229 37.4841 23.5403C37.6329 23.2926 37.6824 22.9953 37.6824 22.7474C37.6824 21.8058 36.939 21.2111 36.1461 21.2111Z" fill="#0D0806"/>
<path fill-rule="evenodd" clip-rule="evenodd" d="M16.9155 11.6038C17.8129 11.9171 19.214 12.2819 21.0306 12.3898L21.3279 12.3896C26.9281 12.3896 30.5954 8.92053 30.5954 4.75761C30.5954 2.08145 28.5139 0 25.5899 0C21.6748 0 18.9491 2.67616 17.5615 7.97892C15.8269 7.03731 14.6375 5.35232 14.0428 3.22131C13.7455 2.18057 13.1012 1.53631 12.2092 1.53631C11.1189 1.53631 10.425 2.37881 10.425 3.51865C10.425 6.88864 13.0517 10.1099 16.9172 11.5967L16.9155 11.6038ZM21.6253 8.77185C22.3686 5.35232 23.5581 3.71689 25.1439 3.71689C25.9865 3.71689 26.5315 4.21248 26.5315 5.10453C26.5315 6.73996 24.797 8.67273 21.6253 8.77185Z" fill="#0D0806"/>
</g>
<defs>
<clipPath id="clip0_8208_68478">
<rect width="93.3333" height="48" fill="white" transform="translate(8.88892)"/>
</clipPath>
</defs>
</svg>
