<svg width="120" height="120" viewBox="0 0 120 120" fill="none" xmlns="http://www.w3.org/2000/svg">
<circle cx="60" cy="60" r="59" fill="#B4BBC6" stroke="#94A3B8" stroke-width="2"/>
<path d="M44.5706 60.5604V69.3979C44.5706 69.6869 44.3374 69.9203 44.0487 69.9203H40.2287C39.94 69.9203 39.7068 69.6869 39.7068 69.3979V55.4358C39.7068 55.1468 39.94 54.9134 40.2287 54.9134H44.0487C44.3374 54.9134 44.5706 55.1468 44.5706 55.4358V56.5364C45.5256 55.3358 46.8693 54.591 48.7571 54.591C50.5227 54.591 52.0552 55.3136 52.9769 56.6586C54.1096 55.3136 55.7308 54.591 57.7075 54.591C61.0611 54.591 63.3709 56.5697 63.3709 60.3492V69.3979C63.3709 69.6869 63.1377 69.9203 62.8489 69.9203H59.0289C58.7402 69.9203 58.507 69.6869 58.507 69.3979V61.3719C58.507 59.7267 57.5742 58.9152 56.3194 58.9152C55.2755 58.9152 54.4316 59.5711 53.9541 60.5604V69.3979C53.9541 69.6869 53.7209 69.9203 53.4322 69.9203H49.6122C49.3234 69.9203 49.0902 69.6869 49.0902 69.3979V61.3719C49.0902 59.7267 48.1574 58.9152 46.9026 58.9152C45.8588 58.9152 45.0481 59.5711 44.5706 60.5604ZM69.7671 70.2205C66.9466 70.2205 64.5813 68.364 64.5813 65.4849C64.5813 62.8504 66.3136 61.6165 69.5562 60.7716L73.6871 59.6934C73.5649 58.704 72.7876 58.226 71.5328 58.226C70.4223 58.226 69.6117 58.6484 69.2452 59.5044C69.1453 59.7378 68.8899 59.8823 68.6456 59.8268L65.3697 59.0486C65.0699 58.9708 64.8922 58.6484 65.0032 58.3594C65.9471 55.8138 68.5567 54.4798 71.7216 54.4798C75.9747 54.4798 78.4288 56.4919 78.4288 60.0269V69.409C78.4288 69.698 78.1956 69.9314 77.9069 69.9314H74.2868C74.0091 69.9314 73.7759 69.7091 73.7648 69.4201L73.7426 68.642L73.7093 68.6753C72.4878 69.7091 71.2885 70.2093 69.7671 70.2205ZM70.9887 66.4632C71.6216 66.4632 72.0991 66.2853 72.8209 65.8629L73.6538 65.3515L73.6871 62.9171L71.5328 63.5174C70.067 63.9398 69.4007 64.2955 69.4007 65.1403C69.4007 66.0741 70.2113 66.4632 70.9887 66.4632ZM86.1688 62.8393L84.7029 64.1843V69.3867C84.7029 69.6758 84.4697 69.9092 84.181 69.9092H80.461C80.1722 69.9092 79.939 69.6758 79.939 69.3867V50.5225C79.939 50.2334 80.1722 50 80.461 50H84.181C84.4697 50 84.7029 50.2334 84.7029 50.5225V59.0597L89.0449 55.0579C89.1448 54.969 89.267 54.9245 89.4002 54.9245H93.9976C94.4751 54.9245 94.6971 55.5137 94.3529 55.8249L89.8888 59.8935L94.9748 69.1422C95.1635 69.4868 94.9192 69.9092 94.5195 69.9092H90.1775C89.9888 69.9092 89.8111 69.798 89.7111 69.6313L86.1688 62.8393Z" fill="#0B0F19"/>
<path d="M101.971 70.2429C97.8065 70.2429 93.9976 67.6306 93.9976 62.3504C93.9976 57.3703 97.651 54.4912 101.671 54.4912C105.691 54.4912 108.867 57.4037 108.978 61.9836C108.989 62.4727 109 62.8062 109 63.0507C109 63.3397 108.767 63.5732 108.478 63.5732H98.7837C98.928 65.374 100.372 66.5079 102.204 66.5079C103.503 66.5079 104.569 65.9632 105.313 64.985C105.48 64.7737 105.78 64.7182 106.013 64.8738L108.434 66.4968C108.678 66.6635 108.733 66.9859 108.567 67.2304C107.29 69.1647 105.147 70.2429 101.971 70.2429ZM98.8947 60.6496H104.136C104.103 58.9377 102.848 58.1929 101.527 58.1929C100.305 58.1929 99.0391 58.9155 98.8947 60.6496Z" fill="#0B0F19"/>
<path d="M28.3244 54.9243H32.0889C32.3776 54.9243 32.6108 55.1578 32.6108 55.4468V69.3532C32.6108 69.6422 32.3776 69.8757 32.0889 69.8757H28.3244C28.0357 69.8757 27.8025 69.6422 27.8025 69.3532V55.4468C27.8136 55.1578 28.0468 54.9243 28.3244 54.9243Z" fill="#0B0F19"/>
<path d="M22.539 55.1578L19.8739 68.6974C19.8184 68.9753 19.9961 69.2532 20.2848 69.3088L23.9715 70.0535C24.2491 70.1091 24.5268 69.9313 24.5823 69.6422L27.2474 56.1027C27.3029 55.8247 27.1253 55.5468 26.8365 55.4913L23.1498 54.7465C23.1165 54.7354 23.0832 54.7354 23.0498 54.7354C22.8055 54.7354 22.5834 54.9132 22.539 55.1578Z" fill="#0B0F19"/>
<path d="M17.2976 55.1137L11.0567 67.5306C10.9235 67.7863 11.0345 68.0975 11.2899 68.2309L14.6546 69.9206C14.9101 70.054 15.221 69.9428 15.3542 69.6871L21.584 57.2703C21.7172 57.0146 21.6062 56.7034 21.3508 56.57L17.9861 54.8803C17.9083 54.8469 17.8306 54.8247 17.7529 54.8247C17.5641 54.8247 17.3864 54.9359 17.2976 55.1137Z" fill="#0B0F19"/>
</svg>
