<svg width="120" height="120" viewBox="0 0 120 120" fill="none" xmlns="http://www.w3.org/2000/svg">
<circle cx="60" cy="60" r="59" fill="#B4BBC6" stroke="#94A3B8" stroke-width="2"/>
<path d="M46.7034 50.6587H50.4885L56.9354 62.2726L63.3822 50.6587H67.0941V69.7631H63.9928V55.1237L58.3517 65.2493H55.4457L49.8047 55.1237V69.7631H46.7034V50.6587Z" fill="#0B0F19"/>
<path fill-rule="evenodd" clip-rule="evenodd" d="M77.0574 70.1046C75.6248 70.1046 74.3712 69.7874 73.2967 69.153C72.2223 68.5186 71.3431 67.6159 70.7571 66.5179C70.1384 65.3955 69.8291 64.1105 69.8291 62.6629C69.8291 61.1989 70.1303 59.9058 70.7326 58.7834C71.3187 57.6611 72.1409 56.7746 73.1991 56.1239C74.2573 55.4896 75.4701 55.1724 76.8377 55.1724C78.1889 55.1724 79.3529 55.4977 80.3297 56.1483C81.3228 56.7827 82.0798 57.6773 82.6008 58.8322C83.138 59.9871 83.4066 61.3453 83.4066 62.9068V63.7608H72.906C73.1014 64.9157 73.5735 65.8266 74.3224 66.4935C75.0713 67.1604 76.0237 67.4939 77.1795 67.4939C78.0912 67.4939 78.8808 67.3637 79.5483 67.1035C80.2158 66.827 80.8425 66.4122 81.4286 65.8591L83.0648 67.8598C81.4368 69.3563 79.4343 70.1046 77.0574 70.1046ZM79.3285 58.759C78.6773 58.1084 77.8226 57.7831 76.7644 57.7831C75.755 57.7831 74.9003 58.1165 74.2003 58.7834C73.5165 59.4503 73.0851 60.3531 72.906 61.4917H80.4274C80.3297 60.3368 79.9634 59.4259 79.3285 58.759Z" fill="#0B0F19"/>
<path d="M87.1428 58.0515H84.3101V55.514H87.1428V51.3418H90.122V55.514H94.4444V58.0515H90.122V64.4441C90.122 65.5176 90.3092 66.274 90.6837 66.7132C91.0418 67.1686 91.6605 67.3963 92.5396 67.3963C92.8815 67.4126 93.2152 67.4045 93.5408 67.3719C93.8176 67.3394 94.1188 67.2906 94.4444 67.2256V69.7387C94.0699 69.8362 93.6874 69.9176 93.2966 69.9826C92.8571 70.0477 92.4175 70.0802 91.978 70.0802C88.7545 70.0802 87.1428 68.3235 87.1428 64.8101V58.0515Z" fill="#0B0F19"/>
<path fill-rule="evenodd" clip-rule="evenodd" d="M110 69.763H107.07V67.7623C106.557 68.4942 105.873 69.0798 105.092 69.4946C104.278 69.9012 103.358 70.1046 102.332 70.1046C101.079 70.1046 99.9634 69.7792 98.9866 69.1286C98.0261 68.4942 97.2691 67.6159 96.7155 66.4935C96.1457 65.3711 95.8608 64.0861 95.8608 62.6385C95.8608 61.1745 96.1457 59.8814 96.7155 58.759C97.2853 57.6529 98.0668 56.7746 99.0599 56.1239C100.069 55.4896 101.217 55.1724 102.503 55.1724C103.48 55.1724 104.359 55.3676 105.14 55.7579C105.897 56.1239 106.557 56.6607 107.07 57.3439V55.5139H110V69.763ZM106.996 60.5157C106.687 59.7024 106.191 59.0599 105.507 58.5882C104.807 58.1328 104.009 57.9051 103.114 57.9051C101.827 57.9051 100.81 58.328 100.061 59.1738C99.2959 60.0359 98.9133 61.1908 98.9133 62.6385C98.9133 64.1024 99.2796 65.2654 100.012 66.1275C100.745 66.9896 101.738 67.4207 102.991 67.4207C103.903 67.4207 104.725 67.1767 105.458 66.6887C106.166 66.2495 106.703 65.5663 106.996 64.7856V60.5157Z" fill="#0B0F19"/>
<path d="M25.5801 54.2454C26.0522 54.8473 26.5406 55.5304 27.0453 56.2949C27.5011 56.9456 27.9651 57.6613 28.4372 58.4421L28.4616 58.4665L26.4103 61.5407V61.5163L26.1661 61.1259C22.5276 55.0018 20.8426 53.2939 18.6692 53.2939H18.6448L18.6936 50H18.718C21.1356 50 23.1625 51.1712 25.5801 54.2454Z" fill="#0B0F19"/>
<path d="M18.7181 50L18.6692 53.2939H18.6448C17.4238 53.2939 16.3005 54.1722 15.3969 55.5386L12.5398 54.0014V53.977C14.1027 51.5859 16.2516 50.0244 18.6936 50H18.7181Z" fill="#0B0F19"/>
<path d="M15.3967 55.5386C14.542 56.8317 13.8827 58.5397 13.5408 60.3696V60.4184L10.3418 59.662V59.6376C10.7569 57.5393 11.514 55.5874 12.5396 54.0014V53.9771L15.3967 55.5386Z" fill="#0B0F19"/>
<path d="M13.5409 60.4185C13.3618 61.3456 13.2723 62.2891 13.2723 63.2487V63.4683L10 63.1756V63.1512C10 61.98 10.1221 60.8088 10.3419 59.6621V59.6377L13.5409 60.3697V60.4185Z" fill="#0B0F19"/>
<path d="M13.3944 64.5177L10.1954 65.2497C10.1791 65.2497 10.1709 65.2415 10.1709 65.2253C10.057 64.5584 10 63.8752 10 63.1758V63.1514L13.2723 63.4442V63.4686C13.2886 63.8101 13.3293 64.1517 13.3944 64.4933V64.5177Z" fill="#0B0F19"/>
<path d="M14.1514 66.2011L11.6117 68.397C11.5954 68.397 11.5873 68.3889 11.5873 68.3726C10.9035 67.5918 10.4151 66.5183 10.1953 65.2495C10.179 65.2495 10.1709 65.2414 10.1709 65.2251L13.3943 64.4932V64.5176C13.5164 65.2495 13.7851 65.8107 14.1269 66.2011H14.1514Z" fill="#0B0F19"/>
<path d="M25.1649 59.4668C24.2614 61.0771 22.9427 63.395 22.9427 63.395C19.7681 68.9336 17.9854 70.1048 15.4946 70.1048C13.8585 70.1048 12.5398 69.4948 11.6118 68.3968C11.5955 68.3968 11.5874 68.3887 11.5874 68.3724L14.1271 66.2009H14.1515C14.5422 66.6157 15.0306 66.8353 15.6167 66.8353C17.0575 66.8353 17.961 65.9325 20.5251 61.9067C20.5251 61.9067 21.6973 60.0524 23.6265 57.1001C24.0905 57.7833 24.6033 58.564 25.1649 59.4668Z" fill="#0B0F19"/>
<path d="M28.8035 54.0015L28.7791 54.0259C28.2419 54.5871 27.6558 55.3434 27.0697 56.295C26.5487 55.5305 26.0522 54.8473 25.5801 54.2455C26.0359 53.6274 26.5243 53.0337 27.0453 52.4643L27.0697 52.4399L28.8035 54.0015Z" fill="#0B0F19"/>
<path d="M36.4469 52.1715L34.4444 53.9526H34.42C33.5653 53.0743 32.5885 52.5863 31.5629 52.5863C30.5861 52.5863 29.7069 53.0499 28.8034 54.0014L28.779 54.0258L27.0452 52.4643L27.0696 52.4399C28.4371 51.0004 29.9511 50 31.7582 50C33.4676 50 35.0794 50.8052 36.4225 52.1471L36.4469 52.1715Z" fill="#0B0F19"/>
<path d="M40.3298 62.7605L37.4238 62.7361V62.7117C37.3262 58.9543 36.154 55.7092 34.4446 53.9525H34.4202L36.4226 52.147L36.447 52.1714C38.7181 54.4649 40.2321 58.3687 40.3298 62.7117V62.7605Z" fill="#0B0F19"/>
<path d="M40.3297 63.0535C40.3297 65.103 39.9145 66.7621 39.1331 67.9821C39.1168 67.9821 39.1087 67.9902 39.1087 68.0065L36.9597 65.7618V65.7374C37.2772 65.1274 37.4237 64.2979 37.4237 63.2731V62.7363V62.7119H40.3297V63.0535Z" fill="#0B0F19"/>
<path d="M39.1331 67.982C39.1169 67.982 39.1087 67.9901 39.1087 68.0064C39.0924 68.0227 39.0762 68.0471 39.0599 68.0796C39.0273 68.1121 39.0029 68.1528 38.9866 68.2016C38.5471 68.7872 37.9854 69.2752 37.3261 69.6167C37.3098 69.6167 37.2935 69.6249 37.2772 69.6411C37.2284 69.6574 37.1877 69.6737 37.1551 69.6899C37.0412 69.7387 36.9191 69.7875 36.7888 69.8363L35.7876 66.7377C36.3004 66.5913 36.6911 66.2497 36.9598 65.7617V65.7373L39.1331 67.982Z" fill="#0B0F19"/>
<path d="M35.8119 66.7377L36.8131 69.8364C36.2515 70.0072 35.6654 70.1048 35.1037 70.1048C34.42 70.1048 33.8095 70.0072 33.2478 69.812L34.249 66.6646C34.5421 66.7865 34.8595 66.8353 35.177 66.8353C35.3886 66.8353 35.6003 66.8028 35.8119 66.7377Z" fill="#0B0F19"/>
<path d="M34.298 66.6645L33.2723 69.8363C32.4176 69.5435 31.6362 69.0068 30.8303 68.1528C30.8303 68.1365 30.8222 68.1284 30.8059 68.1284L33.1258 65.7129L33.1502 65.7373C33.5654 66.2253 33.9073 66.5181 34.298 66.6645Z" fill="#0B0F19"/>
<path d="M33.1501 65.7372L30.8302 68.1527C30.8302 68.1364 30.822 68.1283 30.8058 68.1283C29.8534 67.1035 28.8766 65.6396 27.6556 63.6389L26.4102 61.5406V61.5162L28.437 58.4419L28.4614 58.4663L30.2197 61.3942C31.5872 63.5657 32.4419 64.9076 33.1257 65.7128L33.1501 65.7372Z" fill="#0B0F19"/>
</svg>
