<svg width="120" height="120" viewBox="0 0 120 120" fill="none" xmlns="http://www.w3.org/2000/svg">
<circle cx="60" cy="60" r="59" fill="#B4BBC6" stroke="#94A3B8" stroke-width="2"/>
<mask id="mask0_4095_468" style="mask-type:luminance" maskUnits="userSpaceOnUse" x="11" y="46" width="98" height="28">
<path d="M109 46H11V73.2222H109V46Z" fill="white"/>
</mask>
<g mask="url(#mask0_4095_468)">
<path fill-rule="evenodd" clip-rule="evenodd" d="M57.2778 56.8889C54.7408 56.8889 52.6093 55.1538 52.0048 52.8056H45.7646C44.434 52.8056 43.2983 53.7676 43.0795 55.0802L42.8558 56.4228C42.6433 57.6976 41.9985 58.807 41.0865 59.6111C41.9985 60.4152 42.6433 61.5246 42.8558 62.7994L43.0795 64.1419C43.2983 65.4545 44.434 66.4167 45.7646 66.4167H46.5604C47.1649 64.0684 49.2964 62.3333 51.8333 62.3333C54.8402 62.3333 57.2778 64.7709 57.2778 67.7778C57.2778 70.7846 54.8402 73.2222 51.8333 73.2222C49.2964 73.2222 47.1647 71.4871 46.5604 69.1389H45.7646C43.1032 69.1389 40.8318 67.2148 40.3942 64.5895L40.1705 63.247C39.9517 61.9343 38.816 60.9722 37.4854 60.9722H35.3285C34.7242 63.3205 32.5925 65.0556 30.0556 65.0556C27.5187 65.0556 25.387 63.3205 24.7826 60.9722H21.7174C21.113 63.3205 18.9813 65.0556 16.4444 65.0556C13.4376 65.0556 11 62.618 11 59.6111C11 56.6042 13.4376 54.1667 16.4444 54.1667C18.9813 54.1667 21.113 55.9018 21.7174 58.25H24.7826C25.387 55.9018 27.5187 54.1667 30.0556 54.1667C32.5925 54.1667 34.7242 55.9018 35.3285 58.25H37.4854C38.816 58.25 39.9517 57.2879 40.1705 55.9753L40.3942 54.6327C40.8318 52.0075 43.1032 50.0833 45.7646 50.0833H52.0048C52.6092 47.7351 54.7408 46 57.2778 46C60.2846 46 62.7222 48.4376 62.7222 51.4444C62.7222 54.4513 60.2846 56.8889 57.2778 56.8889ZM57.2778 54.1667C58.7813 54.1667 60 52.9479 60 51.4444C60 49.941 58.7813 48.7222 57.2778 48.7222C55.7743 48.7222 54.5556 49.941 54.5556 51.4444C54.5556 52.9479 55.7743 54.1667 57.2778 54.1667ZM16.4444 62.3333C17.9479 62.3333 19.1667 61.1146 19.1667 59.6111C19.1667 58.1077 17.9479 56.8889 16.4444 56.8889C14.941 56.8889 13.7222 58.1077 13.7222 59.6111C13.7222 61.1146 14.941 62.3333 16.4444 62.3333ZM32.7778 59.6111C32.7778 61.1146 31.5591 62.3333 30.0556 62.3333C28.552 62.3333 27.3333 61.1146 27.3333 59.6111C27.3333 58.1077 28.552 56.8889 30.0556 56.8889C31.5591 56.8889 32.7778 58.1077 32.7778 59.6111ZM54.5556 67.7778C54.5556 69.2813 53.3368 70.5 51.8333 70.5C50.3298 70.5 49.1111 69.2813 49.1111 67.7778C49.1111 66.2743 50.3298 65.0556 51.8333 65.0556C53.3368 65.0556 54.5556 66.2743 54.5556 67.7778Z" fill="#040506"/>
<path fill-rule="evenodd" clip-rule="evenodd" d="M92.6705 57.771V57.6413C93.6202 57.1656 94.5701 56.344 94.5701 54.7224C94.5701 52.3873 92.6489 50.9819 89.9937 50.9819C87.2739 50.9819 85.3311 52.4738 85.3311 54.7657C85.3311 56.3224 86.2377 57.1656 87.2307 57.6413V57.771C86.1297 58.1602 84.813 59.3277 84.813 61.2737C84.813 63.6303 86.7558 65.2735 89.9721 65.2735C93.1886 65.2735 95.0666 63.6303 95.0666 61.2737C95.0666 59.3277 93.7715 58.1818 92.6705 57.771ZM89.9721 52.9711C91.0515 52.9711 91.8503 53.663 91.8503 54.8305C91.8503 55.9981 91.0299 56.6899 89.9721 56.6899C88.9144 56.6899 88.0293 55.9981 88.0293 54.8305C88.0293 53.6413 88.8713 52.9711 89.9721 52.9711ZM89.9721 63.198C88.7201 63.198 87.7055 62.398 87.7055 61.0358C87.7055 59.8034 88.5474 58.8737 89.9505 58.8737C91.332 58.8737 92.174 59.7818 92.174 61.0791C92.174 62.398 91.2026 63.198 89.9721 63.198Z" fill="#040506"/>
<path d="M98.397 65.057H101.16V59.1977C101.16 57.2735 102.326 56.4302 103.643 56.4302C104.938 56.4302 105.952 57.2951 105.952 59.068V65.057H108.715V58.5059C108.715 55.6735 107.075 54.0303 104.506 54.0303C102.887 54.0303 101.98 54.6789 101.333 55.5221H101.16L100.923 54.2465H98.397V65.057Z" fill="#040506"/>
<path d="M73.9379 65.057H71.1748V54.2465H73.7003L73.9379 55.5221H74.1106C74.7581 54.6789 75.6648 54.0303 77.2838 54.0303C79.8526 54.0303 81.4932 55.6735 81.4932 58.5059V65.057H78.7302V59.068C78.7302 57.2951 77.7155 56.4302 76.4204 56.4302C75.1035 56.4302 73.9379 57.2735 73.9379 59.1977V65.057Z" fill="#040506"/>
</g>
</svg>
