<svg width="123" height="41" viewBox="0 0 123 41" fill="none" xmlns="http://www.w3.org/2000/svg">
<g clip-path="url(#clip0_161_8149)">
<path d="M6.6382 2.40894H16.6862L21.7073 11.1309L16.6862 19.8529H6.6382L1.61719 11.1309L6.6382 2.40894Z" fill="white"/>
<path d="M16.6862 38.7103H6.6382L1.61719 29.9903L6.6382 21.2683H16.6862L17.3141 22.3563L21.7073 29.9903L16.6862 38.7103Z" fill="white"/>
<path d="M22.9234 29.2826L22.2956 28.1926L17.9023 20.5606L22.9234 11.8386H32.9714L37.9924 20.5606L32.9714 29.2826H22.9234Z" fill="white"/>
<path d="M39.6135 20.5609L33.7785 10.4249H22.9243L17.4953 0.994873H5.83507L0 11.1309L5.42705 20.5609L0 29.9909L5.83507 40.1269H17.4953L22.9243 30.6969H33.7785L39.6135 20.5609ZM6.64121 2.40887H16.6892L21.7102 11.1309L16.6892 19.8529H6.64121L1.62019 11.1309L6.64121 2.40887ZM16.6892 38.7129H6.64121L1.62019 29.9909L6.64121 21.2689H16.6892L17.3171 22.3609L21.7102 29.9949L16.6892 38.7129ZM22.9243 29.2829L22.2965 28.1929L17.9033 20.5609L22.9243 11.8389H32.9723L37.9933 20.5609L32.9723 29.2829H22.9243Z" fill="white"/>
<path d="M49.0063 34.4877H52.5418C53.1241 34.4877 53.4153 34.1937 53.4153 33.6057V20.8797C53.4153 18.7517 54.3719 17.6877 56.2853 17.6877H57.7827C58.67 17.6877 59.2939 17.8837 59.6544 18.2757C60.0426 18.6397 60.2367 19.2697 60.2367 20.1657V33.6057C60.2367 34.1937 60.5279 34.4877 61.1102 34.4877H64.6041C65.2142 34.4877 65.5192 34.1937 65.5192 33.6057V19.9137C65.5192 15.3497 63.3424 13.0677 58.9889 13.0677H57.6579C55.5504 13.0677 54.1917 13.8237 53.5817 15.3357H53.4153V5.84367C53.4153 5.25567 53.1241 4.96167 52.5418 4.96167H49.0063C48.424 4.96167 48.1328 5.25567 48.1328 5.84367V33.6057C48.1328 34.1937 48.424 34.4877 49.0063 34.4877Z" fill="white"/>
<path fill-rule="evenodd" clip-rule="evenodd" d="M84.2936 34.4873H75.1013C72.9107 34.4873 71.2192 33.8993 70.0268 32.7233C68.8345 31.5473 68.2383 29.8533 68.2383 27.6413V19.9133C68.2383 17.7013 68.8345 16.0073 70.0268 14.8313C71.2192 13.6553 72.9107 13.0673 75.1013 13.0673H78.3873C80.5779 13.0673 82.2694 13.6553 83.4618 14.8313C84.6541 16.0073 85.2503 17.7013 85.2503 19.9133V25.2473C85.2503 25.8353 84.9592 26.1293 84.3768 26.1293H73.9367C73.6039 26.1293 73.4376 26.2833 73.4376 26.5913V27.5153C73.4376 28.3833 73.6178 29.0133 73.9783 29.4053C74.3667 29.7693 75.0043 29.9513 75.8916 29.9513H84.2936C84.876 29.9513 85.1671 30.2593 85.1671 30.8753V33.6473C85.1671 33.9553 85.0978 34.1793 84.9592 34.3193C84.8484 34.4313 84.6264 34.4873 84.2936 34.4873ZM73.9367 22.5593H79.5935C79.8985 22.5593 80.051 22.4053 80.051 22.0973V20.0813C80.051 19.1853 79.8708 18.5553 79.5103 18.1913C79.1498 17.8273 78.5259 17.6453 77.6386 17.6453H75.8916C75.0043 17.6453 74.3804 17.8273 74.0199 18.1913C73.6594 18.5553 73.4791 19.1853 73.4791 20.0813V22.0973C73.4791 22.4053 73.6317 22.5593 73.9367 22.5593Z" fill="white"/>
<path d="M87.1699 34.4873H91.3709C92.0087 34.4873 92.4246 34.1933 92.6187 33.6053L95.2391 27.1793H95.4055L98.026 33.6053C98.2755 34.1933 98.6915 34.4873 99.2738 34.4873H103.558C103.835 34.4873 104.016 34.4033 104.099 34.2353C104.21 34.0673 104.196 33.8573 104.057 33.6053L98.6915 23.5673L103.683 13.9493C104.043 13.3613 103.863 13.0673 103.142 13.0673H98.9826C98.3171 13.0673 97.8873 13.3613 97.6932 13.9493L95.4055 20.3333H95.2391L92.6187 13.9493C92.4246 13.3613 91.9948 13.0673 91.3293 13.0673H87.0867C86.4766 13.0673 86.3103 13.3613 86.5876 13.9493L91.8284 23.5673L86.5876 33.6053C86.2548 34.1933 86.4489 34.4873 87.1699 34.4873Z" fill="white"/>
<path fill-rule="evenodd" clip-rule="evenodd" d="M112.371 34.4872H113.369C114.229 34.4872 115.047 34.3052 115.823 33.9412C116.6 33.5492 117.14 32.9752 117.445 32.2192H117.612V33.6052C117.612 34.1932 117.903 34.4872 118.485 34.4872H121.979C122.589 34.4872 122.894 34.1932 122.894 33.6052V13.9491C122.894 13.3611 122.589 13.0671 121.979 13.0671H112.371C110.18 13.0671 108.489 13.6551 107.296 14.8311C106.104 16.0071 105.508 17.7011 105.508 19.9131V27.6412C105.508 29.8532 106.104 31.5472 107.296 32.7232C108.489 33.8992 110.18 34.4872 112.371 34.4872ZM117.612 18.1491V26.6752C117.612 28.8032 116.655 29.8672 114.742 29.8672H113.203C112.315 29.8672 111.691 29.6852 111.331 29.3212C110.971 28.9292 110.79 28.2852 110.79 27.3892V20.1651C110.79 19.2691 110.971 18.6391 111.331 18.2751C111.691 17.8831 112.315 17.6871 113.203 17.6871H117.113C117.445 17.6871 117.612 17.8411 117.612 18.1491Z" fill="white"/>
</g>
<defs>
<clipPath id="clip0_161_8149">
<rect width="123" height="40" fill="white" transform="translate(0 0.561279)"/>
</clipPath>
</defs>
</svg>
