<svg width="96" height="23" viewBox="0 0 96 23" fill="none" xmlns="http://www.w3.org/2000/svg">
<g clip-path="url(#clip0_161_8177)">
<path fill-rule="evenodd" clip-rule="evenodd" d="M5.68888 1.66699V22.9946H0L0 1.66699H5.68888Z" fill="white"/>
<path fill-rule="evenodd" clip-rule="evenodd" d="M8.5332 1.66699H20.6221C24.5495 1.66699 27.7332 4.84989 27.7332 8.77618C27.7332 12.7025 24.5495 15.8854 20.6221 15.8854H14.2221V22.9946H8.5332V1.66699ZM14.2221 10.198H20.6221C21.4076 10.198 22.0443 9.56144 22.0443 8.77618C22.0443 7.99093 21.4076 7.35435 20.6221 7.35435H14.2221V10.198Z" fill="white"/>
<path fill-rule="evenodd" clip-rule="evenodd" d="M49.0658 1.66687V12.6861C49.0658 15.2382 51.1352 17.3071 53.688 17.3071C56.2408 17.3071 58.3103 15.2382 58.3103 12.6861V1.66687H63.9993V12.6861C63.9993 18.3793 59.3828 22.9944 53.688 22.9944C47.9934 22.9944 43.377 18.3793 43.377 12.6861V1.66687H49.0658Z" fill="white"/>
<path fill-rule="evenodd" clip-rule="evenodd" d="M29.8666 11.6199C29.8666 6.12303 34.3239 1.66699 39.8222 1.66699H41.2444V7.35435H39.8222C37.4657 7.35435 35.5555 9.2641 35.5555 11.6199V12.3308C35.5555 18.2202 30.7799 22.9946 24.8888 22.9946H24.1777V17.3072H24.8888C27.638 17.3072 29.8666 15.0792 29.8666 12.3308V11.6199Z" fill="white"/>
<path d="M95.999 2.37787C95.999 3.55577 95.0441 4.51063 93.8654 4.51063C92.6873 4.51063 91.7324 3.55577 91.7324 2.37787C91.7324 1.19998 92.6873 0.245117 93.8654 0.245117C95.0441 0.245117 95.999 1.19998 95.999 2.37787Z" fill="white"/>
<path d="M70.1084 22.9952L72.8231 11.6308L74.8414 18.4677C76.0445 22.5454 81.8221 22.5454 83.0258 18.4677L85.0435 11.6308L87.7582 22.9952H93.6068L89.3385 5.12529C88.3234 0.875671 82.3333 0.718326 81.0961 4.90884L78.9336 12.2366L76.7704 4.90885C75.5338 0.718351 69.5432 0.875649 68.5281 5.12529L64.2598 22.9952H70.1084Z" fill="white"/>
</g>
<defs>
<clipPath id="clip0_161_8177">
<rect width="96" height="22.7494" fill="white" transform="translate(0 0.245117)"/>
</clipPath>
</defs>
</svg>
