<svg width="123" height="40" viewBox="0 0 123 40" fill="none" xmlns="http://www.w3.org/2000/svg">
<g clip-path="url(#clip0_2058_3988)">
<path d="M6.6382 1.84766H16.6862L21.7073 10.5697L16.6862 19.2917H6.6382L1.61719 10.5697L6.6382 1.84766Z" fill="white"/>
<path d="M16.6862 38.149H6.6382L1.61719 29.429L6.6382 20.707H16.6862L17.3141 21.795L21.7073 29.429L16.6862 38.149Z" fill="white"/>
<path d="M22.9234 28.7214L22.2956 27.6314L17.9023 19.9993L22.9234 11.2773H32.9714L37.9924 19.9993L32.9714 28.7214H22.9234Z" fill="white"/>
<path d="M39.6135 19.9996L33.7785 9.86359H22.9243L17.4953 0.433594H5.83507L0 10.5696L5.42705 19.9996L0 29.4296L5.83507 39.5656H17.4953L22.9243 30.1356H33.7785L39.6135 19.9996ZM6.64121 1.84759H16.6892L21.7102 10.5696L16.6892 19.2916H6.64121L1.62019 10.5696L6.64121 1.84759ZM16.6892 38.1516H6.64121L1.62019 29.4296L6.64121 20.7076H16.6892L17.3171 21.7996L21.7102 29.4336L16.6892 38.1516ZM22.9243 28.7216L22.2965 27.6316L17.9033 19.9996L22.9243 11.2776H32.9723L37.9933 19.9996L32.9723 28.7216H22.9243Z" fill="white"/>
<path d="M49.0063 33.9264H52.5418C53.1241 33.9264 53.4153 33.6324 53.4153 33.0444V20.3184C53.4153 18.1904 54.3719 17.1264 56.2853 17.1264H57.7827C58.67 17.1264 59.2939 17.3224 59.6544 17.7144C60.0426 18.0784 60.2367 18.7084 60.2367 19.6044V33.0444C60.2367 33.6324 60.5279 33.9264 61.1102 33.9264H64.6041C65.2142 33.9264 65.5192 33.6324 65.5192 33.0444V19.3524C65.5192 14.7884 63.3424 12.5064 58.9889 12.5064H57.6579C55.5504 12.5064 54.1917 13.2624 53.5817 14.7744H53.4153V5.28239C53.4153 4.69439 53.1241 4.40039 52.5418 4.40039H49.0063C48.424 4.40039 48.1328 4.69439 48.1328 5.28239V33.0444C48.1328 33.6324 48.424 33.9264 49.0063 33.9264Z" fill="white"/>
<path fill-rule="evenodd" clip-rule="evenodd" d="M84.2936 33.9259H75.1013C72.9107 33.9259 71.2192 33.3379 70.0268 32.1619C68.8345 30.9859 68.2383 29.2919 68.2383 27.0799V19.3519C68.2383 17.1399 68.8345 15.4459 70.0268 14.2699C71.2192 13.0939 72.9107 12.5059 75.1013 12.5059H78.3873C80.5779 12.5059 82.2694 13.0939 83.4618 14.2699C84.6541 15.4459 85.2503 17.1399 85.2503 19.3519V24.6859C85.2503 25.2739 84.9592 25.5679 84.3768 25.5679H73.9367C73.6039 25.5679 73.4376 25.7219 73.4376 26.0299V26.9539C73.4376 27.8219 73.6178 28.4519 73.9783 28.8439C74.3667 29.2079 75.0043 29.3899 75.8916 29.3899H84.2936C84.876 29.3899 85.1671 29.6979 85.1671 30.3139V33.0859C85.1671 33.3939 85.0978 33.6179 84.9592 33.7579C84.8484 33.8699 84.6264 33.9259 84.2936 33.9259ZM73.9367 21.9979H79.5935C79.8985 21.9979 80.051 21.8439 80.051 21.5359V19.5199C80.051 18.6239 79.8708 17.9939 79.5103 17.6299C79.1498 17.2659 78.5259 17.0839 77.6386 17.0839H75.8916C75.0043 17.0839 74.3804 17.2659 74.0199 17.6299C73.6594 17.9939 73.4791 18.6239 73.4791 19.5199V21.5359C73.4791 21.8439 73.6317 21.9979 73.9367 21.9979Z" fill="white"/>
<path d="M87.1696 33.9259H91.3706C92.0084 33.9259 92.4244 33.6319 92.6185 33.0439L95.2389 26.6179H95.4053L98.0257 33.0439C98.2753 33.6319 98.6912 33.9259 99.2735 33.9259H103.558C103.835 33.9259 104.015 33.8419 104.098 33.6739C104.209 33.5059 104.196 33.2959 104.057 33.0439L98.6912 23.0059L103.683 13.3879C104.043 12.7999 103.863 12.5059 103.142 12.5059H98.9824C98.3169 12.5059 97.8871 12.7999 97.693 13.3879L95.4053 19.7719H95.2389L92.6185 13.3879C92.4244 12.7999 91.9946 12.5059 91.329 12.5059H87.0864C86.4764 12.5059 86.31 12.7999 86.5873 13.3879L91.8282 23.0059L86.5873 33.0439C86.2546 33.6319 86.4487 33.9259 87.1696 33.9259Z" fill="white"/>
<path fill-rule="evenodd" clip-rule="evenodd" d="M112.371 33.9259H113.369C114.229 33.9259 115.047 33.7439 115.823 33.3799C116.6 32.9879 117.14 32.4139 117.445 31.6579H117.612V33.0439C117.612 33.6319 117.903 33.9259 118.485 33.9259H121.979C122.589 33.9259 122.894 33.6319 122.894 33.0439V13.3879C122.894 12.7999 122.589 12.5059 121.979 12.5059H112.371C110.18 12.5059 108.489 13.0939 107.296 14.2699C106.104 15.4459 105.508 17.1399 105.508 19.3519V27.0799C105.508 29.2919 106.104 30.9859 107.296 32.1619C108.489 33.3379 110.18 33.9259 112.371 33.9259ZM117.612 17.5879V26.1139C117.612 28.2419 116.655 29.3059 114.742 29.3059H113.203C112.315 29.3059 111.691 29.1239 111.331 28.7599C110.971 28.3679 110.79 27.7239 110.79 26.8279V19.6039C110.79 18.7079 110.971 18.0779 111.331 17.7139C111.691 17.3219 112.315 17.1259 113.203 17.1259H117.113C117.445 17.1259 117.612 17.2799 117.612 17.5879Z" fill="white"/>
</g>
<defs>
<clipPath id="clip0_2058_3988">
<rect width="123" height="40" fill="white"/>
</clipPath>
</defs>
</svg>
