<svg width="151" height="68" viewBox="0 0 151 68" fill="none" xmlns="http://www.w3.org/2000/svg">
<path d="M37.4274 36.4958C37.7105 36.4263 37.9759 36.4784 38.2236 36.6521C38.4713 36.7911 38.6128 36.9996 38.6482 37.2776C38.719 37.5208 38.6836 37.7641 38.542 38.0073C38.4005 38.2506 38.1882 38.5633 37.9051 38.9455C37.622 39.3278 37.1089 39.9532 36.3658 40.8219C35.6581 41.6559 34.9327 42.403 34.1896 43.0632C33.4465 43.7234 32.5442 44.3141 31.4826 44.8353C30.4564 45.3566 29.4833 45.6172 28.5632 45.6172C27.6432 45.6172 26.847 45.4434 26.1747 45.096C25.5024 44.7485 24.9893 44.3662 24.6354 43.9493C24.2816 43.5323 23.9808 42.9589 23.7331 42.2292C23.4854 41.4648 23.3262 40.8914 23.2554 40.5092C23.1846 40.0922 23.0961 39.5362 22.99 38.8413C22.9546 38.3548 22.9192 38.0073 22.8838 37.7988C22.353 38.3896 21.3976 39.7795 20.0176 41.9686C18.3545 44.6095 17.0629 46.4859 16.1428 47.5978C15.2228 48.675 14.3382 49.2136 13.4889 49.2136C13.0289 49.2136 12.6573 49.0399 12.3743 48.6924C12.0558 48.3449 11.8612 47.7716 11.7904 46.9724C11.755 46.1732 11.7904 45.235 11.8965 44.1578C12.0027 43.0458 12.215 41.3953 12.5335 39.2061C13.2058 34.4109 13.4358 31.5789 13.2235 30.7102C12.0204 31.0924 10.4103 32.9341 8.39335 36.2352C7.01331 38.4243 5.31479 41.5864 3.2978 45.7214C3.15626 46.0342 3.0501 46.26 2.97933 46.399C2.90856 46.538 2.82009 46.7118 2.71394 46.9202C2.64316 47.094 2.57239 47.233 2.50162 47.3372C2.39546 47.5457 2.307 47.7021 2.23623 47.8063C2.20084 47.9106 2.13007 48.0148 2.02391 48.1191C1.91776 48.258 1.8116 48.3449 1.70544 48.3797C1.5639 48.4492 1.40466 48.4839 1.22773 48.4839C0.732332 48.4839 0.378474 48.2407 0.166159 47.7542C-0.25847 46.7812 0.130774 43.706 1.33389 38.5285C2.60778 33.1426 3.86397 29.8415 5.10248 28.6253C5.45633 28.2778 5.84558 28.1736 6.27021 28.3126C6.73022 28.4168 7.01331 28.7122 7.11947 29.1986C7.29639 29.8589 7.10177 30.9187 6.5356 32.3781C6.00481 33.8375 5.19094 35.1232 4.09398 36.2352C3.52781 38.2158 3.0501 40.266 2.66086 42.3856C4.92555 37.8683 6.92484 34.463 8.65875 32.1696C10.3927 29.8415 12.0027 28.6774 13.4889 28.6774C13.9843 28.6774 14.3912 28.8512 14.7097 29.1986C15.0636 29.5809 15.2759 30.2237 15.3467 31.1272C15.4174 31.9959 15.382 33.0383 15.2405 34.2545C15.1343 35.436 14.922 37.1734 14.6036 39.4667C14.002 43.5323 13.7543 46.0342 13.8605 46.9724C14.6036 46.3816 16.0721 44.3662 18.266 40.9262C19.6814 38.7023 20.6899 37.2255 21.2915 36.4958C21.9284 35.7313 22.5477 35.3491 23.1492 35.3491C23.4323 35.3491 23.68 35.4186 23.8923 35.5576C24.1046 35.6966 24.2639 35.8529 24.37 36.0267C24.5116 36.2004 24.6354 36.461 24.7416 36.8085C24.8477 37.1212 24.9008 37.3992 24.9008 37.6425C24.9362 37.851 24.9893 38.1637 25.0601 38.5807C25.2724 40.3181 25.5908 41.5864 26.0155 42.3856C26.4755 43.1848 27.3247 43.5844 28.5632 43.5844C29.5541 43.5844 30.651 43.1327 31.8541 42.2292C33.0572 41.3258 34.048 40.4223 34.8265 39.5189C35.605 38.6154 36.2597 37.7467 36.7904 36.9128C36.9674 36.7043 37.1797 36.5653 37.4274 36.4958Z" fill="#FAFAFA"/>
<path d="M87.4296 16.1159C87.7127 16.1507 87.9427 16.2723 88.1196 16.4808C88.3319 16.6545 88.4204 16.8978 88.385 17.2105C88.385 17.4885 88.2788 17.7317 88.0665 17.9402C87.8542 18.114 87.6065 18.1835 87.3234 18.1487C82.8294 17.975 77.5923 18.0445 71.6121 18.3572C71.329 19.2259 71.0637 20.0946 70.8159 20.9633C67.3128 32.048 64.9419 41.6906 63.7034 49.8912C62.748 56.2501 62.7834 60.0377 63.8096 61.2539C63.9865 61.4624 64.0573 61.7056 64.0219 61.9836C64.0219 62.2616 63.898 62.4874 63.6503 62.6612C63.4734 62.8349 63.2611 62.9218 63.0134 62.9218C62.6949 62.9218 62.4295 62.8002 62.2172 62.5569C61.0141 61.1323 60.6956 57.8138 61.2618 52.6016C61.7218 48.258 62.748 42.8373 64.3403 36.3394C64.9419 33.8028 65.6319 31.1967 66.4104 28.5211C65.6319 29.9457 64.8711 31.2835 64.128 32.5345C62.3234 35.7313 60.6248 38.4764 59.0325 40.7698C57.4401 43.0632 56.1485 44.7485 55.1577 45.8257C54.2023 46.9029 53.2823 47.7368 52.3976 48.3275C51.513 48.9183 50.9114 49.2484 50.593 49.3179C50.2745 49.3874 49.903 49.4221 49.4783 49.4221C48.2752 49.4221 47.3906 49.0051 46.8244 48.1712C46.4705 47.7194 46.2582 47.1461 46.1874 46.4511C46.1167 45.7562 46.1521 44.9743 46.2936 44.1056C46.4705 43.2369 46.6828 42.3856 46.9305 41.5516C47.2136 40.6829 47.5675 39.6926 47.9921 38.5807C46.329 40.3876 44.7543 41.8644 43.2681 43.0111C41.8173 44.1578 40.4019 44.7311 39.0218 44.7311C38.7387 44.7311 38.4733 44.7137 38.2256 44.679C37.9779 44.6095 37.7302 44.5226 37.4825 44.4184C37.2348 44.2794 36.9694 44.0709 36.6864 43.7929C36.4033 43.5149 36.2087 43.1153 36.1025 42.5941C35.961 42.0381 35.9256 41.3779 35.9963 40.6134C36.1025 39.5015 36.474 38.2332 37.111 36.8085C37.7479 35.3491 38.5441 33.9765 39.4995 32.6908C40.4549 31.3704 41.605 30.2585 42.9496 29.355C44.2943 28.4516 45.639 27.9998 46.9836 27.9998C48.3637 27.9998 49.3722 28.5037 50.0091 29.5114C50.363 30.0674 50.5399 30.7102 50.5399 31.4399C50.5399 32.1696 50.416 32.743 50.1683 33.1599C50.0268 33.4379 49.8145 33.6117 49.5314 33.6812C49.2837 33.7507 49.0183 33.7333 48.7352 33.629C48.4875 33.4901 48.3106 33.2989 48.2044 33.0557C48.1337 32.7777 48.169 32.5171 48.3106 32.2739C48.5937 31.6831 48.576 31.1272 48.2575 30.6059C48.0098 30.2237 47.5852 30.0326 46.9836 30.0326C45.7097 30.0326 44.3828 30.6581 43.0027 31.909C41.6227 33.1599 40.4726 34.6194 39.5526 36.2873C38.668 37.9552 38.1726 39.4667 38.0664 40.8219C37.9249 41.9686 38.1195 42.5941 38.6503 42.6983C39.1103 42.7678 39.6765 42.6636 40.3488 42.3856C41.0211 42.1076 41.6227 41.7601 42.1535 41.3431C42.7196 40.9262 43.3743 40.3528 44.1174 39.6231C44.8959 38.8587 45.4797 38.2679 45.869 37.851C46.2582 37.3992 46.7713 36.8259 47.4083 36.1309C48.2929 35.1232 48.8945 34.4804 49.2129 34.2024C49.5668 33.8897 49.903 33.7333 50.2214 33.7333C50.5753 33.6985 50.8584 33.8028 51.0707 34.046C51.283 34.2545 51.3892 34.5151 51.3892 34.8279C51.3892 35.1406 51.3184 35.4881 51.1768 35.8703C51.0707 36.2525 50.823 36.9301 50.4337 37.9031C48.4521 43.0111 47.8152 46.0515 48.5229 47.0245C48.6998 47.2677 49.0183 47.3893 49.4783 47.3893C49.6906 47.3893 49.903 47.3546 50.1153 47.2851C50.363 47.2156 50.6991 47.0419 51.1238 46.7639C51.5484 46.4859 51.9907 46.121 52.4507 45.6693C52.9461 45.2176 53.53 44.5921 54.2023 43.7929C54.91 42.9937 55.6531 42.0555 56.4316 40.9783C57.2101 39.9011 58.1125 38.5633 59.1386 36.9649C60.1648 35.3317 61.2264 33.5248 62.3234 31.5441C64.5881 27.6176 66.8881 23.2741 69.2236 18.5136C62.4649 18.9653 56.697 19.7645 51.9199 20.9112C49.8322 22.2316 47.8506 22.8918 45.9751 22.8918C45.5151 22.8918 45.1789 22.8397 44.9666 22.7355C44.5774 22.4922 44.4005 22.1448 44.4359 21.693C44.4712 21.2413 44.7543 20.9286 45.2851 20.7548C51.2299 18.4962 59.5102 17.0541 70.1259 16.4287C71.6475 11.8419 73.0276 8.28022 74.2661 5.7436C75.0092 4.17993 75.6284 3.12011 76.1238 2.56413C76.6192 2.00816 77.1146 1.73018 77.61 1.73018C78.1408 1.73018 78.5301 1.95604 78.7777 2.40777C79.5209 3.6587 77.5392 8.28022 72.8329 16.2723C78.247 15.9943 83.1125 15.9422 87.4296 16.1159Z" fill="#FAFAFA"/>
<path d="M98.6893 36.9128C98.9724 36.8433 99.2378 36.878 99.4855 37.017C99.7686 37.1212 99.9455 37.3124 100.016 37.5903C100.087 37.8683 100.052 38.1289 99.9101 38.3722C99.0255 40.0053 97.9816 41.6733 96.7785 43.3759C94.2661 46.9202 92.1783 48.6924 90.5152 48.6924C89.7367 48.6924 89.0821 48.4144 88.5513 47.8584C87.8436 47.1287 87.4366 45.8604 87.3305 44.0535C87.2243 42.2119 87.2774 40.3181 87.4897 38.3722C87.7728 34.6541 87.7374 32.5866 87.3835 32.1696C86.5697 32.2391 85.2427 33.5248 83.4026 36.0267C82.1641 37.6946 80.2533 40.6482 77.6702 44.8875C75.2639 48.7445 73.53 51.3506 72.4684 52.7058C71.4423 54.0957 70.5222 54.7907 69.7083 54.7907C69.1068 54.7907 68.6998 54.478 68.4875 53.8525C68.3814 53.6093 68.3283 53.2792 68.3283 52.8622C68.3283 49.7001 70.8407 40.1443 75.8655 24.1949C77.7409 18.1835 79.5102 12.7801 81.1733 7.98486C81.9518 5.79572 82.5711 4.05831 83.0311 2.77262C83.4557 1.69543 83.7742 1.00046 83.9865 0.687729C84.1988 0.374995 84.4996 0.218628 84.8888 0.218628C85.3489 0.218628 85.685 0.427118 85.8973 0.844097C86.322 1.64331 85.9504 3.90194 84.7827 7.62C83.5796 11.5466 82.1995 14.5001 80.6426 16.4808C80.5718 16.5503 80.501 16.6198 80.4302 16.6893C79.3333 20.0946 78.2363 23.5521 77.1394 27.0616C73.1408 39.9532 70.9115 48.258 70.4514 51.9761C71.3715 50.8989 73.1762 48.1886 75.8655 43.845C78.8379 39.015 81.1733 35.5228 82.8719 33.3684C84.5704 31.214 86.092 30.1368 87.4366 30.1368C88.0028 30.1368 88.4805 30.3453 88.8697 30.7623C89.3651 31.2835 89.6482 32.2217 89.719 33.5769C89.8252 34.8974 89.7721 36.5479 89.5598 38.5285C89.2413 43.1501 89.4005 45.8083 90.0375 46.5033C90.179 46.6075 90.3383 46.6596 90.5152 46.6596C91.0106 46.6596 91.7006 46.1905 92.5853 45.2523C93.5053 44.3141 94.443 43.1501 95.3984 41.7601C96.3892 40.3702 97.2916 38.9108 98.1054 37.3819C98.247 37.1386 98.4416 36.9822 98.6893 36.9128Z" fill="#FAFAFA"/>
<path d="M116.694 37.0691C116.977 37.0344 117.225 37.1212 117.437 37.3297C117.65 37.5035 117.756 37.7293 117.756 38.0073C117.791 38.2853 117.72 38.5285 117.543 38.737C117.26 39.0498 116.889 39.4494 116.429 39.9358C115.969 40.4223 115.12 41.2042 113.881 42.2814C112.643 43.3585 111.422 44.3141 110.219 45.1481C109.015 45.9473 107.582 46.677 105.919 47.3372C104.291 47.9974 102.752 48.3275 101.301 48.3275C99.7444 48.3275 98.5236 47.8758 97.6389 46.9724C96.7543 46.0689 96.312 44.818 96.312 43.2196C96.312 40.5787 97.2497 37.851 99.1251 35.0363C100.081 33.5769 101.107 32.4476 102.204 31.6484C103.301 30.8492 104.362 30.4496 105.388 30.4496C106.45 30.4496 107.264 30.7623 107.83 31.3878C108.361 31.9438 108.626 32.6561 108.626 33.5248C108.626 35.019 108.007 36.5131 106.768 38.0073C105.565 39.5015 104.256 40.2486 102.841 40.2486C101.425 40.2486 100.346 39.6231 99.6028 38.3722C98.789 40.1443 98.382 41.7601 98.382 43.2196C98.382 44.2273 98.612 44.9917 99.0721 45.5129C99.5321 46.0342 100.275 46.2948 101.301 46.2948C102.221 46.2948 103.194 46.1384 104.221 45.8257C105.282 45.4782 106.255 45.0612 107.14 44.5747C108.025 44.0883 108.927 43.5149 109.847 42.8547C110.802 42.1597 111.616 41.5343 112.289 40.9783C112.961 40.3876 113.598 39.7969 114.199 39.2061C114.836 38.6154 115.261 38.1984 115.473 37.9552C115.686 37.712 115.845 37.5382 115.951 37.434C116.163 37.2255 116.411 37.1039 116.694 37.0691ZM105.388 32.4824C104.716 32.4824 103.955 32.8298 103.106 33.5248C102.292 34.2198 101.514 35.1232 100.771 36.2352C100.912 36.3394 101.001 36.461 101.036 36.6C101.425 37.6772 102.027 38.2158 102.841 38.2158C103.371 38.2158 103.92 37.9552 104.486 37.434C105.088 36.878 105.583 36.2352 105.972 35.5054C106.362 34.7757 106.556 34.1155 106.556 33.5248C106.556 33.1773 106.468 32.9167 106.291 32.743C106.149 32.5692 105.848 32.4824 105.388 32.4824Z" fill="#FAFAFA"/>
<path d="M132.98 48.9009C131.564 50.3951 130.114 51.1421 128.627 51.1421C126.469 51.1421 124.841 50.0128 123.744 47.7542C123.178 46.5728 122.806 45.1828 122.629 43.5844C120.011 46.4338 117.675 47.8584 115.623 47.8584C114.455 47.8584 113.73 47.3025 113.447 46.1905C113.022 44.6616 113.73 42.0207 115.57 38.2679C117.304 34.7931 118.507 32.8646 119.179 32.4824C119.675 32.2044 120.117 32.2565 120.506 32.6387C120.825 32.9515 120.949 33.4379 120.878 34.0981C120.772 34.8626 120.471 35.6444 119.976 36.4437C119.516 37.2429 118.879 37.8683 118.065 38.3201C117.994 38.3896 117.905 38.4243 117.799 38.4243C117.516 38.9803 117.251 39.5015 117.003 39.988C116.437 41.2389 116.012 42.3335 115.729 43.2717C115.446 44.2099 115.322 44.8353 115.358 45.1481C115.393 45.4261 115.428 45.6519 115.464 45.8257C115.499 45.8257 115.552 45.8257 115.623 45.8257C116.543 45.8257 117.658 45.2871 118.967 44.2099C120.276 43.1327 121.462 41.8817 122.523 40.4571C122.736 37.434 123.549 35.9224 124.965 35.9224C125.39 35.9224 125.743 36.0788 126.026 36.3915C126.239 36.6348 126.345 36.9475 126.345 37.3297C126.345 38.1984 125.761 39.4667 124.593 41.1347C124.523 43.1848 124.806 44.9743 125.443 46.5033C126.186 48.2407 127.247 49.1094 128.627 49.1094C129.512 49.1094 130.45 48.5882 131.441 47.5457C132.75 46.121 133.847 44.123 134.731 41.5516C135.616 38.9455 135.97 36.322 135.793 33.6812C135.793 33.5422 135.793 33.4032 135.793 33.2642C135.793 33.2294 135.793 33.1947 135.793 33.1599C135.793 33.1947 135.793 33.2121 135.793 33.2121C135.793 32.8993 135.828 32.6735 135.899 32.5345C136.182 32.1175 136.554 31.9611 137.014 32.0654C137.509 32.1696 137.775 32.4824 137.81 33.0036C137.845 33.1426 137.863 33.2816 137.863 33.4206C138.111 34.9842 138.818 36.1483 139.986 36.9128C142.039 38.2332 145.223 38.0247 149.54 36.2873C149.717 36.2178 149.894 36.2004 150.071 36.2352C150.248 36.2699 150.407 36.3394 150.549 36.4437C150.726 36.5479 150.85 36.6869 150.92 36.8606C151.027 37.1039 151.027 37.3645 150.92 37.6425C150.814 37.8857 150.62 38.0594 150.337 38.1637C144.498 40.5266 140.287 40.3702 137.704 37.6946C137.421 39.8837 136.855 41.986 136.005 44.0014C135.191 45.982 134.183 47.6152 132.98 48.9009Z" fill="#FAFAFA"/>
<path d="M97.9914 67.4778C97.1771 67.4778 96.476 67.289 95.8879 66.9114C95.2998 66.5338 94.8474 66.0137 94.5307 65.351C94.2141 64.6884 94.0558 63.9314 94.0558 63.0799C94.0558 62.2137 94.2178 61.4493 94.5421 60.7866C94.87 60.1203 95.3262 59.6002 95.9105 59.2263C96.4986 58.8487 97.1847 58.6599 97.9688 58.6599C98.5795 58.6599 99.1299 58.771 99.62 58.9931C100.11 59.2152 100.512 59.5261 100.824 59.9259C101.137 60.3257 101.331 60.7922 101.407 61.3253H100.072C99.9706 60.9366 99.7444 60.5923 99.3938 60.2924C99.047 59.9889 98.5795 59.8371 97.9914 59.8371C97.4712 59.8371 97.015 59.9704 96.623 60.2369C96.2347 60.4997 95.9312 60.8718 95.7126 61.353C95.4977 61.8306 95.3903 62.3914 95.3903 63.0355C95.3903 63.6945 95.4958 64.2682 95.7069 64.7569C95.9218 65.2455 96.2234 65.625 96.6117 65.8952C97.0037 66.1655 97.4636 66.3006 97.9914 66.3006C98.3382 66.3006 98.653 66.2413 98.9358 66.1229C99.2185 66.0044 99.4579 65.8341 99.6539 65.612C99.8499 65.3899 99.9894 65.1234 100.072 64.8124H101.407C101.331 65.3159 101.145 65.7693 100.847 66.1729C100.553 66.5727 100.163 66.891 99.6765 67.1279C99.194 67.3612 98.6323 67.4778 97.9914 67.4778Z" fill="#FAFAFA"/>
<path d="M106.886 67.4778C106.102 67.4778 105.414 67.2945 104.822 66.928C104.234 66.5616 103.774 66.0488 103.443 65.3899C103.115 64.731 102.951 63.961 102.951 63.0799C102.951 62.1915 103.115 61.416 103.443 60.7533C103.774 60.0907 104.234 59.5761 104.822 59.2096C105.414 58.8432 106.102 58.6599 106.886 58.6599C107.67 58.6599 108.356 58.8432 108.945 59.2096C109.536 59.5761 109.996 60.0907 110.324 60.7533C110.656 61.416 110.822 62.1915 110.822 63.0799C110.822 63.961 110.656 64.731 110.324 65.3899C109.996 66.0488 109.536 66.5616 108.945 66.928C108.356 67.2945 107.67 67.4778 106.886 67.4778ZM106.886 66.3006C107.482 66.3006 107.972 66.1506 108.356 65.8508C108.741 65.5509 109.026 65.1567 109.21 64.668C109.395 64.1794 109.487 63.65 109.487 63.0799C109.487 62.5099 109.395 61.9786 109.21 61.4863C109.026 60.9939 108.741 60.596 108.356 60.2924C107.972 59.9889 107.482 59.8371 106.886 59.8371C106.291 59.8371 105.801 59.9889 105.416 60.2924C105.032 60.596 104.747 60.9939 104.562 61.4863C104.377 61.9786 104.285 62.5099 104.285 63.0799C104.285 63.65 104.377 64.1794 104.562 64.668C104.747 65.1567 105.032 65.5509 105.416 65.8508C105.801 66.1506 106.291 66.3006 106.886 66.3006Z" fill="#FAFAFA"/>
<path d="M116.388 67.4778C115.603 67.4778 114.915 67.2945 114.324 66.928C113.735 66.5616 113.276 66.0488 112.944 65.3899C112.616 64.731 112.452 63.961 112.452 63.0799C112.452 62.1915 112.616 61.416 112.944 60.7533C113.276 60.0907 113.735 59.5761 114.324 59.2096C114.915 58.8432 115.603 58.6599 116.388 58.6599C117.172 58.6599 117.858 58.8432 118.446 59.2096C119.038 59.5761 119.498 60.0907 119.826 60.7533C120.157 61.416 120.323 62.1915 120.323 63.0799C120.323 63.961 120.157 64.731 119.826 65.3899C119.498 66.0488 119.038 66.5616 118.446 66.928C117.858 67.2945 117.172 67.4778 116.388 67.4778ZM116.388 66.3006C116.983 66.3006 117.473 66.1506 117.858 65.8508C118.242 65.5509 118.527 65.1567 118.712 64.668C118.896 64.1794 118.989 63.65 118.989 63.0799C118.989 62.5099 118.896 61.9786 118.712 61.4863C118.527 60.9939 118.242 60.596 117.858 60.2924C117.473 59.9889 116.983 59.8371 116.388 59.8371C115.792 59.8371 115.302 59.9889 114.917 60.2924C114.533 60.596 114.248 60.9939 114.063 61.4863C113.879 61.9786 113.786 62.5099 113.786 63.0799C113.786 63.65 113.879 64.1794 114.063 64.668C114.248 65.1567 114.533 65.5509 114.917 65.8508C115.302 66.1506 115.792 66.3006 116.388 66.3006Z" fill="#FAFAFA"/>
<path d="M123.333 67.3889C123.054 67.3889 122.815 67.2908 122.615 67.0946C122.415 66.8984 122.315 66.6633 122.315 66.3894C122.315 66.1155 122.415 65.8804 122.615 65.6842C122.815 65.488 123.054 65.3899 123.333 65.3899C123.612 65.3899 123.851 65.488 124.051 65.6842C124.251 65.8804 124.351 66.1155 124.351 66.3894C124.351 66.5708 124.304 66.7374 124.209 66.8892C124.119 67.0409 123.996 67.1631 123.842 67.2556C123.691 67.3445 123.521 67.3889 123.333 67.3889Z" fill="#FAFAFA"/>
</svg>
