<svg width="129" height="32" viewBox="0 0 129 32" fill="none" xmlns="http://www.w3.org/2000/svg">
<path fill-rule="evenodd" clip-rule="evenodd" d="M0 7.33963L14.0058 0.11438L28.162 7.33963L14.0058 14.583L0 7.33963ZM84.0807 10.8481V10.6736C84.0807 8.29603 85.4882 7.53354 87.8589 7.70242V3.35514C82.1796 3.01111 79.4878 5.83841 79.4878 10.6736V10.8481H76.9194V15.196H79.4878V28.3567H84.0807V15.196H89.3653V28.3567H93.9582V15.196H97.7364V10.8481H93.9582V10.6736C93.9582 8.29603 95.3412 7.53354 97.7364 7.70242V3.35514C92.0571 3.01111 89.3653 5.83841 89.3653 10.6736V10.8481H84.0807ZM51.978 15.6089C53.4346 14.4579 54.3235 12.8128 54.3235 10.6986C54.3235 6.6009 50.9651 3.79925 46.7424 3.79925H36.9385V28.3067H47.5324C51.8539 28.3067 55.3112 25.4106 55.3112 21.2134C55.2621 18.6801 53.9779 16.7404 51.978 15.6089ZM46.7669 8.34044C48.3476 8.34044 49.4341 9.49701 49.4341 11.0426C49.4341 12.5933 48.2979 13.7442 46.7669 13.7442H41.8531V8.34044H46.7669ZM47.5079 23.8155H41.8531V18.0415H47.5079C49.1874 18.0415 50.3973 19.2675 50.3973 20.9125C50.3973 22.5833 49.1874 23.8155 47.5079 23.8155ZM69.6342 10.8231V20.2751C69.6342 23.3214 67.9553 24.6224 65.708 24.6224C63.6332 24.6224 62.1765 23.3964 62.1765 21.0126V10.8231H57.583V21.5762C57.583 26.2425 60.5222 28.8259 64.325 28.8259C66.7203 28.8259 68.5723 27.9376 69.6097 26.3676V28.3317H74.2025V10.8231H69.6342ZM116.776 21.4317H103.343C104.009 23.7405 105.935 24.7225 108.331 24.7225C110.133 24.7225 111.566 23.9838 112.331 22.9773L116.035 25.0665C114.381 27.4491 111.714 28.8259 108.281 28.8259C102.305 28.8259 98.5271 24.7976 98.5271 19.5683C98.5271 14.3328 102.33 10.3039 107.936 10.3039C113.196 10.3039 116.949 14.4079 116.949 19.5683C116.949 20.2501 116.875 20.8444 116.776 21.4317ZM107.936 14.4079C105.467 14.4079 103.787 15.7089 103.268 17.9414H112.356C111.788 15.4149 109.862 14.4079 107.936 14.4079ZM123.592 13.8443V10.8231H118.999V28.3317H123.592V19.9561C123.592 16.2713 126.605 15.221 129 15.5144V10.4797C126.753 10.4797 124.506 11.4617 123.592 13.8443ZM14.0058 26.9743L4.45058 21.8139L0 24.2096L14.0058 31.7657L28.162 24.2096L23.6611 21.8139L14.0058 26.9743ZM4.45058 13.676L14.0058 18.3542L23.6611 13.676L28.162 15.8591L14.0058 22.7209L0 15.8591L4.45058 13.676Z" fill="white"/>
</svg>
