<svg width="120" height="38" viewBox="0 0 120 38" fill="none" xmlns="http://www.w3.org/2000/svg">
<path d="M6.04666 30.1434C6.04666 30.7636 6.1862 31.3062 6.46527 31.7713C6.77536 32.2055 7.19397 32.5465 7.72112 32.7946C8.24826 33.0117 8.85293 33.1202 9.53512 33.1202C10.4344 33.1202 11.2561 32.9342 12.0003 32.5621C12.7755 32.19 13.3957 31.6473 13.8608 30.9341C14.3259 30.2209 14.5585 29.3372 14.5585 28.2829L15.3027 31.0736C15.3027 32.438 14.9151 33.5853 14.1399 34.5156C13.3957 35.4458 12.4189 36.1435 11.2096 36.6087C10.0313 37.0738 8.79091 37.3064 7.48855 37.3064C6.12418 37.3064 4.86834 37.0428 3.72102 36.5156C2.60471 35.9885 1.70547 35.2288 1.02328 34.2365C0.341094 33.2132 0 31.9729 0 30.5155C0 29.1511 0.325589 27.9573 0.976768 26.934C1.62795 25.9107 2.57371 25.1355 3.81405 24.6084C5.05439 24.0502 6.5738 23.7711 8.3723 23.7711C9.70566 23.7711 10.884 23.9107 11.9073 24.1898C12.9616 24.4378 13.8453 24.7634 14.5585 25.1665C15.3027 25.5696 15.8298 25.9572 16.1399 26.3293V29.2131C15.3027 28.562 14.3569 28.0968 13.3026 27.8178C12.2484 27.5077 11.1476 27.3526 10.0002 27.3526C9.06999 27.3526 8.31028 27.4612 7.72112 27.6782C7.16297 27.8953 6.74435 28.2054 6.46527 28.6085C6.1862 29.0116 6.04666 29.5232 6.04666 30.1434ZM3.67451 21.492L1.4419 17.3989C2.5582 16.8097 3.92258 16.2516 5.53502 15.7244C7.14746 15.1663 8.94595 14.8872 10.9305 14.8872C12.76 14.8872 14.3879 15.1508 15.8143 15.6779C17.2407 16.2051 18.357 16.9803 19.1633 18.0036C20.0005 18.9958 20.4191 20.2052 20.4191 21.6316V36.8412H14.5585V22.9804C14.5585 22.3913 14.45 21.8951 14.2329 21.492C14.0469 21.0579 13.7678 20.7013 13.3957 20.4222C13.0236 20.1431 12.5739 19.9416 12.0468 19.8176C11.5197 19.6935 10.9305 19.6315 10.2793 19.6315C9.28705 19.6315 8.34129 19.7555 7.44204 20.0036C6.54279 20.2207 5.76758 20.4687 5.1164 20.7478C4.46522 21.0269 3.98459 21.275 3.67451 21.492Z" fill="white"/>
<path d="M31 15.4454V36.8412H25.0464V15.4454H31ZM37.2792 21.7711C36.8761 21.399 36.4575 21.1199 36.0234 20.9339C35.6203 20.7168 35.1087 20.6083 34.4885 20.6083C33.7443 20.6083 33.1086 20.8098 32.5815 21.2129C32.0543 21.6161 31.6512 22.1897 31.3721 22.9339C31.1241 23.6471 31 24.5153 31 25.5386L29.3256 23.8177C29.3256 22.1122 29.6512 20.6083 30.3023 19.3059C30.9535 17.9726 31.7907 16.9183 32.814 16.1431C33.8683 15.3678 34.9691 14.9802 36.1164 14.9802C36.8916 14.9802 37.6358 15.1198 38.349 15.3988C39.0622 15.6779 39.6204 16.081 40.0235 16.6082L37.2792 21.7711Z" fill="white"/>
<path d="M46.2097 26.1433C46.2097 27.3836 46.4733 28.4689 47.0004 29.3992C47.5586 30.3294 48.3028 31.0581 49.233 31.5853C50.1633 32.0814 51.2021 32.3295 52.3494 32.3295C53.2796 32.3295 54.1789 32.19 55.0471 31.9109C55.9154 31.6318 56.6906 31.2442 57.3728 30.7481C58.086 30.2209 58.6286 29.6162 59.0007 28.9341V35.1203C58.2565 35.8024 57.2797 36.3451 56.0704 36.7482C54.8921 37.1203 53.5277 37.3064 51.9773 37.3064C49.6827 37.3064 47.6206 36.8412 45.7911 35.911C43.9926 34.9807 42.5662 33.6784 41.5119 32.0039C40.4886 30.2984 39.977 28.3449 39.977 26.1433C39.977 23.9107 40.4886 21.9571 41.5119 20.2827C42.5662 18.6082 43.9926 17.3059 45.7911 16.3756C47.6206 15.4454 49.6827 14.9802 51.9773 14.9802C53.5277 14.9802 54.8921 15.1818 56.0704 15.5849C57.2797 15.988 58.2565 16.4996 59.0007 17.1198V23.3525C58.6286 22.6703 58.0705 22.0812 57.3262 21.585C56.6131 21.0579 55.8223 20.6548 54.9541 20.3757C54.0859 20.0656 53.2176 19.9106 52.3494 19.9106C51.2021 19.9106 50.1633 20.1897 49.233 20.7478C48.3028 21.306 47.5586 22.0502 47.0004 22.9804C46.4733 23.9107 46.2097 24.965 46.2097 26.1433Z" fill="white"/>
<path d="M69.3861 0.561279V36.8412H63.3395V0.561279H69.3861ZM77.2003 23.8177C77.2003 22.8874 77.0762 22.0967 76.8282 21.4455C76.6111 20.7633 76.239 20.2672 75.7119 19.9571C75.1847 19.616 74.5025 19.4455 73.6653 19.4455C72.8281 19.4455 72.0839 19.6315 71.4327 20.0036C70.8125 20.3447 70.3164 20.8408 69.9443 21.492C69.5722 22.1122 69.3861 22.8874 69.3861 23.8177H68.1768C68.1768 22.1122 68.4714 20.5773 69.0605 19.2129C69.6497 17.8485 70.5179 16.7632 71.6653 15.957C72.8126 15.1508 74.2235 14.7477 75.8979 14.7477C77.5724 14.7477 78.9523 15.0733 80.0376 15.7244C81.1229 16.3446 81.9291 17.2594 82.4562 18.4687C82.9834 19.678 83.2469 21.1819 83.2469 22.9804V36.8412H77.2003V23.8177Z" fill="white"/>
<path d="M87.9767 7.16609C87.9767 6.17382 88.3178 5.35209 89 4.70091C89.6822 4.04974 90.5349 3.72415 91.5582 3.72415C92.5815 3.72415 93.4342 4.04974 94.1164 4.70091C94.8296 5.35209 95.1862 6.17382 95.1862 7.16609C95.1862 8.12735 94.8296 8.93357 94.1164 9.58475C93.4342 10.2359 92.5815 10.5615 91.5582 10.5615C90.5349 10.5615 89.6822 10.2359 89 9.58475C88.3178 8.93357 87.9767 8.12735 87.9767 7.16609ZM88.6279 15.4454H94.442V36.8412H88.6279V15.4454Z" fill="white"/>
<path d="M113.767 23.8177C113.767 22.8874 113.643 22.0967 113.395 21.4455C113.178 20.7633 112.806 20.2672 112.279 19.9571C111.752 19.616 111.07 19.4455 110.232 19.4455C109.395 19.4455 108.651 19.6315 108 20.0036C107.38 20.3447 106.883 20.8408 106.511 21.492C106.139 22.1432 105.953 22.9184 105.953 23.8177V36.8412H99.9065V15.4454H105.953V18.7013C106.604 17.4919 107.473 16.5772 108.558 15.957C109.643 15.3058 110.946 14.9802 112.465 14.9802C114.17 14.9802 115.566 15.3058 116.651 15.957C117.767 16.6082 118.605 17.5539 119.163 18.7943C119.721 20.0036 120 21.461 120 23.1665V36.8412H113.767V23.8177Z" fill="white"/>
</svg>
