<svg width="138" height="33" viewBox="0 0 138 33" fill="none" xmlns="http://www.w3.org/2000/svg">
<path fill-rule="evenodd" clip-rule="evenodd" d="M12 22.961C10.9391 22.961 9.92172 22.5396 9.17157 21.7895C8.42143 21.0393 8 20.0219 8 18.961V0.561035H0V18.961C0 25.5882 5.3728 30.961 12 30.961H20.8V22.961H12ZM36 8.56104C35.0545 8.56104 34.1182 8.74727 33.2447 9.1091C32.3711 9.47094 31.5774 10.0013 30.9088 10.6699C30.2403 11.3384 29.7099 12.1322 29.3481 13.0057C28.9862 13.8793 28.8 14.8155 28.8 15.761C28.8 16.7066 28.9862 17.6428 29.3481 18.5164C29.7099 19.3899 30.2403 20.1836 30.9088 20.8522C31.5774 21.5208 32.3711 22.0511 33.2447 22.413C34.1182 22.7748 35.0545 22.961 36 22.961C37.9096 22.961 39.7409 22.2025 41.0912 20.8522C42.4414 19.5019 43.2 17.6706 43.2 15.761C43.2 13.8515 42.4414 12.0201 41.0912 10.6699C39.7409 9.3196 37.9096 8.56104 36 8.56104ZM20.8 15.761C20.8 7.36663 27.6056 0.561035 36 0.561035C44.3944 0.561035 51.2 7.36663 51.2 15.761C51.2 24.1554 44.3944 30.961 36 30.961C27.6056 30.961 20.8 24.1554 20.8 15.761ZM122.4 8.56104C120.49 8.56104 118.659 9.3196 117.309 10.6699C115.959 12.0201 115.2 13.8515 115.2 15.761C115.2 17.6706 115.959 19.5019 117.309 20.8522C118.659 22.2025 120.49 22.961 122.4 22.961C124.31 22.961 126.141 22.2025 127.491 20.8522C128.841 19.5019 129.6 17.6706 129.6 15.761C129.6 13.8515 128.841 12.0201 127.491 10.6699C126.141 9.3196 124.31 8.56104 122.4 8.56104ZM107.2 15.761C107.2 7.36663 114.006 0.561035 122.4 0.561035C130.794 0.561035 137.6 7.36663 137.6 15.761C137.6 24.1554 130.794 30.961 122.4 30.961C114.006 30.961 107.2 24.1554 107.2 15.761ZM68 0.561035C59.6056 0.561035 52.8 7.36663 52.8 15.761C52.8 24.1554 59.6056 30.961 68 30.961H90.4C91.9752 30.961 93.4944 30.721 94.9232 30.2762L99.2 32.561L103.814 23.9178C104.987 21.7176 105.6 19.2629 105.6 16.7698V15.761C105.6 7.36663 98.7944 0.561035 90.4 0.561035H68ZM97.6 15.761C97.6 13.8515 96.8414 12.0201 95.4912 10.6699C94.1409 9.3196 92.3096 8.56104 90.4 8.56104H68C67.0545 8.56104 66.1182 8.74727 65.2447 9.1091C64.3711 9.47094 63.5774 10.0013 62.9088 10.6699C62.2403 11.3384 61.7099 12.1322 61.3481 13.0057C60.9862 13.8793 60.8 14.8155 60.8 15.761C60.8 16.7066 60.9862 17.6428 61.3481 18.5164C61.7099 19.3899 62.2403 20.1836 62.9088 20.8522C63.5774 21.5208 64.3711 22.0511 65.2447 22.413C66.1182 22.7748 67.0545 22.961 68 22.961H90.4C92.2999 22.9611 94.1228 22.2102 95.4715 20.872C96.8201 19.5339 97.5852 17.7169 97.6 15.817V15.761Z" fill="white"/>
</svg>
