<svg width="28" height="28" viewBox="0 0 28 28" fill="none" xmlns="http://www.w3.org/2000/svg">
<rect x="0.5" y="0.5" width="27" height="27" stroke="white" stroke-opacity="0.08"/>
<path fill-rule="evenodd" clip-rule="evenodd" d="M20.0333 8.29312C20.2208 8.48065 20.3261 8.73496 20.3261 9.00012C20.3261 9.26528 20.2208 9.51959 20.0333 9.70712L12.538 17.2025C12.4389 17.3015 12.3213 17.3801 12.1919 17.4337C12.0624 17.4874 11.9237 17.515 11.7836 17.515C11.6435 17.515 11.5048 17.4874 11.3754 17.4337C11.2459 17.3801 11.1283 17.3015 11.0293 17.2025L7.30529 13.4791C7.20978 13.3869 7.1336 13.2765 7.08119 13.1545C7.02878 13.0325 7.00119 12.9013 7.00004 12.7685C6.99888 12.6357 7.02419 12.5041 7.07447 12.3812C7.12475 12.2583 7.199 12.1466 7.29289 12.0527C7.38679 11.9588 7.49844 11.8846 7.62133 11.8343C7.74423 11.784 7.87591 11.7587 8.00869 11.7599C8.14147 11.761 8.27269 11.7886 8.39469 11.841C8.5167 11.8934 8.62704 11.9696 8.71929 12.0651L11.7833 15.1291L18.6186 8.29312C18.7115 8.20019 18.8218 8.12648 18.9431 8.07618C19.0645 8.02589 19.1946 8 19.326 8C19.4573 8 19.5874 8.02589 19.7088 8.07618C19.8302 8.12648 19.9404 8.20019 20.0333 8.29312Z" fill="white"/>
</svg>
