<svg width="68" height="80" viewBox="0 0 68 80" fill="none" xmlns="http://www.w3.org/2000/svg">
<path d="M56.5 27H64C66.0711 27 67.75 28.6789 67.75 30.75V75.75C67.75 77.8211 66.0711 79.5 64 79.5H4C1.92895 79.5 0.25 77.8211 0.25 75.75V30.75C0.25 28.6789 1.92895 27 4 27H11.5V23.25C11.5 10.8236 21.5736 0.75 34 0.75C46.4264 0.75 56.5 10.8236 56.5 23.25V27ZM30.25 55.9965V64.5H37.75V55.9965C39.9918 54.6997 41.5 52.2761 41.5 49.5C41.5 45.3578 38.1422 42 34 42C29.8578 42 26.5 45.3578 26.5 49.5C26.5 52.2761 28.0082 54.6997 30.25 55.9965ZM49 27V23.25C49 14.9657 42.2841 8.25 34 8.25C25.7157 8.25 19 14.9657 19 23.25V27H49Z" fill="white"/>
</svg>
