<svg width="120" height="120" viewBox="0 0 120 120" fill="none" xmlns="http://www.w3.org/2000/svg">
<circle cx="60" cy="60" r="59" fill="#B4BBC6" stroke="#94A3B8" stroke-width="2"/>
<path d="M53.2042 36.6415C56.0101 33.718 59.9163 31.9048 64.2366 31.9048C69.9796 31.9048 74.9901 35.1071 77.6584 39.8611C79.9772 38.8251 82.5438 38.2488 85.2442 38.2488C95.6024 38.2488 104 46.7196 104 57.1682C104 67.6181 95.6024 76.0888 85.2442 76.0888C84.0036 76.0896 82.7659 75.9662 81.5498 75.7207C79.2001 79.912 74.7225 82.7439 69.583 82.7439C67.4315 82.7439 65.3966 82.247 63.5847 81.3634C61.2027 86.9663 55.6531 90.8949 49.185 90.8949C42.4494 90.8949 36.7089 86.6329 34.5054 80.6557C33.5425 80.8602 32.5448 80.9668 31.5211 80.9668C23.5015 80.9668 17 74.3985 17 66.2946C17 60.8639 19.9211 56.1222 24.2611 53.5854C23.3676 51.5294 22.8706 49.2602 22.8706 46.8744C22.8706 37.5548 30.4367 30 39.7687 30C45.2477 30 50.117 32.605 53.2042 36.6415Z" fill="#0B0F19"/>
<path d="M29.6012 61.5784C29.5467 61.721 29.6211 61.7507 29.6384 61.7755C29.8019 61.8944 29.9681 61.98 30.1354 62.0754C31.0227 62.5463 31.8606 62.6838 32.7368 62.6838C34.5214 62.6838 35.6293 61.7345 35.6293 60.2064V60.1767C35.6293 58.7638 34.3789 58.2508 33.2052 57.8802L33.0528 57.8307C32.1679 57.5431 31.4045 57.2954 31.4045 56.7128V56.6819C31.4045 56.1837 31.8507 55.8168 32.5422 55.8168C33.3106 55.8168 34.2227 56.0721 34.8101 56.3968C34.8101 56.3968 34.9824 56.5084 35.0456 56.3411C35.0803 56.2518 35.3778 55.4512 35.4088 55.3645C35.4422 55.2702 35.3827 55.2008 35.322 55.1636C34.6515 54.7559 33.7245 54.4771 32.7653 54.4771L32.5869 54.4783C30.9535 54.4783 29.8133 55.4648 29.8133 56.8788V56.9086C29.8133 58.3995 31.0712 58.8828 32.2499 59.2199L32.4395 59.2782C33.2983 59.5421 34.0382 59.7689 34.0382 60.3737V60.4035C34.0382 60.9562 33.5574 61.3676 32.7815 61.3676C32.4804 61.3676 31.5199 61.3615 30.4826 60.7058C30.3574 60.6326 30.2843 60.5794 30.1876 60.5212C30.1369 60.4889 30.0092 60.4331 29.9535 60.6017L29.6012 61.5784ZM55.7271 61.5784C55.6726 61.721 55.747 61.7507 55.7643 61.7755C55.9279 61.8944 56.094 61.98 56.2613 62.0754C57.1486 62.5463 57.9865 62.6838 58.8626 62.6838C60.6472 62.6838 61.7552 61.7345 61.7552 60.2064V60.1767C61.7552 58.7638 60.5047 58.2508 59.3311 57.8802L59.1787 57.8307C58.2938 57.5431 57.5303 57.2954 57.5303 56.7128V56.6819C57.5303 56.1837 57.9764 55.8168 58.668 55.8168C59.4364 55.8168 60.3485 56.0721 60.936 56.3968C60.936 56.3968 61.1083 56.5084 61.1714 56.3411C61.2061 56.2518 61.5035 55.4512 61.5345 55.3645C61.5681 55.2702 61.5085 55.2008 61.4478 55.1636C60.7773 54.7559 59.8503 54.4771 58.8911 54.4771L58.7126 54.4783C57.0792 54.4783 55.939 55.4648 55.939 56.8788V56.9086C55.939 58.3995 57.1969 58.8828 58.3756 59.2199L58.5651 59.2782C59.424 59.5421 60.1652 59.7689 60.1652 60.3737V60.4035C60.1652 60.9562 59.6831 61.3676 58.9072 61.3676C58.6062 61.3676 57.6457 61.3615 56.6084 60.7058C56.4831 60.6326 56.4089 60.5819 56.3147 60.5212C56.2824 60.5001 56.1312 60.4418 56.0792 60.6017L55.7271 61.5784ZM73.5627 58.5852C73.5627 59.449 73.4016 60.1294 73.0843 60.6102C72.7707 61.0862 72.2961 61.3179 71.6344 61.3179C70.9714 61.3179 70.4992 61.0874 70.1906 60.6102C69.8782 60.1307 69.7197 59.449 69.7197 58.5852C69.7197 57.7227 69.8782 57.0435 70.1906 56.5676C70.4992 56.0967 70.9714 55.8674 71.6344 55.8674C72.2962 55.8674 72.7708 56.0967 73.0856 56.5676C73.4016 57.0434 73.5627 57.7226 73.5627 58.5852ZM75.0524 56.984C74.9061 56.4895 74.6781 56.0532 74.3745 55.6902C74.0708 55.3258 73.6867 55.0334 73.2305 54.8202C72.7757 54.6083 72.2379 54.5005 71.6344 54.5005C71.0296 54.5005 70.4917 54.6083 70.0369 54.8202C69.5808 55.0334 69.1966 55.3259 68.8918 55.6902C68.5894 56.0545 68.3613 56.4908 68.2139 56.984C68.0689 57.476 67.9957 58.0138 67.9957 58.5852C67.9957 59.1566 68.0689 59.6957 68.2139 60.1864C68.3613 60.6797 68.5882 61.116 68.8931 61.4802C69.1966 61.8446 69.5821 62.1358 70.037 62.3428C70.4929 62.5498 71.0296 62.6551 71.6345 62.6551C72.238 62.6551 72.7746 62.5498 73.2306 62.3428C73.6855 62.1358 74.0708 61.8445 74.3746 61.4802C74.6782 61.1171 74.9062 60.6809 75.0525 60.1864C75.1988 59.6944 75.2718 59.1553 75.2718 58.5852C75.2718 58.0151 75.1986 57.476 75.0524 56.984ZM87.2852 61.0872C87.2357 60.9422 87.0957 60.9967 87.0957 60.9967C86.8788 61.0798 86.6482 61.1566 86.4029 61.195C86.1537 61.2334 85.8798 61.2533 85.5861 61.2533C84.8649 61.2533 84.2923 61.0389 83.8821 60.615C83.4707 60.1912 83.2401 59.5059 83.2426 58.5789C83.2451 57.7349 83.4483 57.1003 83.814 56.617C84.1771 56.1362 84.7298 55.8895 85.4672 55.8895C86.082 55.8895 86.5504 55.9601 87.041 56.1151C87.041 56.1151 87.1588 56.1658 87.2145 56.0122C87.3446 55.6503 87.4413 55.3913 87.5801 54.9935C87.6198 54.8807 87.5232 54.8324 87.4884 54.8187C87.2951 54.7431 86.839 54.6205 86.4945 54.5684C86.1723 54.5189 85.7955 54.4928 85.3766 54.4928C84.7507 54.4928 84.193 54.5994 83.716 54.8126C83.24 55.0245 82.836 55.3169 82.5164 55.6814C82.1966 56.0458 81.9537 56.4819 81.7914 56.9751C81.6302 57.4671 81.5485 58.0075 81.5485 58.5789C81.5485 59.8144 81.8818 60.8132 82.54 61.5445C83.1992 62.2782 84.1895 62.6512 85.4809 62.6512C86.2443 62.6512 87.0276 62.4964 87.5902 62.2745C87.5902 62.2745 87.698 62.2224 87.6509 62.0973L87.2852 61.0872ZM89.8917 57.7577C89.9623 57.2781 90.0949 56.879 90.2994 56.568C90.6081 56.0958 91.0789 55.8368 91.7408 55.8368C92.4027 55.8368 92.8401 56.097 93.1536 56.568C93.3618 56.879 93.4523 57.2955 93.4883 57.7577H89.8917ZM94.9072 56.703C94.7808 56.2258 94.4672 55.7437 94.2615 55.5231C93.9368 55.1737 93.6196 54.9296 93.3048 54.7932C92.8933 54.6172 92.4 54.5007 91.8598 54.5007C91.2302 54.5007 90.6588 54.6061 90.1953 54.8242C89.7306 55.0423 89.3403 55.3398 89.0341 55.7104C88.7279 56.0796 88.4975 56.5196 88.3512 57.019C88.2037 57.516 88.1294 58.0576 88.1294 58.6288C88.1294 59.2101 88.2063 59.7517 88.3587 60.2387C88.5124 60.7296 88.7577 61.162 89.0899 61.5201C89.4207 61.8808 89.8471 62.1634 90.3577 62.3603C90.8646 62.5562 91.4806 62.6578 92.1882 62.6565C93.6444 62.6516 94.4115 62.3269 94.7275 62.1521C94.7834 62.1212 94.8366 62.0667 94.7696 61.9105L94.44 60.9872C94.3905 60.8497 94.2504 60.9004 94.2504 60.9004C93.8897 61.0343 93.3767 61.2747 92.1807 61.2723C91.3987 61.2711 90.8186 61.0405 90.4555 60.6798C90.0825 60.3106 89.9003 59.7677 89.8681 59.0018L94.9108 59.0068C94.9108 59.0068 95.0434 59.0044 95.0572 58.8754C95.0621 58.821 95.2307 57.8395 94.9072 56.703ZM49.5063 57.7577C49.5782 57.2781 49.7096 56.879 49.9141 56.568C50.2226 56.0958 50.6936 55.8368 51.3554 55.8368C52.0171 55.8368 52.4547 56.097 52.7694 56.568C52.9763 56.879 53.0668 57.2955 53.1028 57.7577H49.5063ZM54.5206 56.703C54.3942 56.2258 54.0819 55.7437 53.8762 55.5231C53.5515 55.1737 53.2342 54.9296 52.9195 54.7932C52.508 54.6172 52.0148 54.5007 51.4744 54.5007C50.8461 54.5007 50.2735 54.6061 49.81 54.8242C49.3453 55.0423 48.9549 55.3398 48.6488 55.7104C48.3427 56.0796 48.1122 56.5196 47.9659 57.019C47.8197 57.516 47.7441 58.0576 47.7441 58.6288C47.7441 59.2101 47.8209 59.7517 47.9734 60.2387C48.1271 60.7296 48.3726 61.162 48.7046 61.5201C49.0355 61.8808 49.4618 62.1634 49.9724 62.3603C50.4794 62.5562 51.0952 62.6578 51.8029 62.6565C53.2591 62.6516 54.0262 62.3269 54.3423 62.1521C54.3981 62.1212 54.4513 62.0667 54.3844 61.9105L54.056 60.9872C54.0052 60.8497 53.8652 60.9004 53.8652 60.9004C53.5046 61.0343 52.9927 61.2747 51.7943 61.2723C51.0136 61.2711 50.4336 61.0405 50.0704 60.6798C49.6973 60.3106 49.5152 59.7677 49.4829 59.0018L54.5257 59.0068C54.5257 59.0068 54.6582 59.0044 54.6719 58.8754C54.6767 58.821 54.8452 57.8395 54.5206 56.703ZM38.6064 61.0596C38.4094 60.9022 38.3821 60.8625 38.3152 60.7609C38.216 60.606 38.1653 60.3854 38.1653 60.1053C38.1653 59.6616 38.3115 59.3431 38.6151 59.1287C38.6115 59.13 39.0489 58.7508 40.0775 58.7643C40.8 58.7743 41.4456 58.8809 41.4456 58.8809V61.1736H41.4469C41.4469 61.1736 40.8062 61.3111 40.0849 61.3545C39.0588 61.4165 38.6027 61.0584 38.6064 61.0596ZM40.6128 57.5164C40.4084 57.5015 40.1431 57.4928 39.8258 57.4928C39.3934 57.4928 38.9757 57.5473 38.5841 57.6527C38.19 57.758 37.8355 57.9229 37.5306 58.1409C37.2262 58.3582 36.976 58.6428 36.7995 58.9725C36.621 59.3046 36.5305 59.6963 36.5305 60.135C36.5305 60.5812 36.6074 60.969 36.7611 61.2864C36.9148 61.6049 37.1366 61.8701 37.4191 62.0746C37.6992 62.2791 38.045 62.429 38.4465 62.5195C38.8418 62.6099 39.2904 62.6557 39.7812 62.6557C40.298 62.6557 40.8136 62.6137 41.313 62.5281C41.8075 62.4438 42.4148 62.3211 42.5833 62.2828C42.7014 62.2543 42.8192 62.2241 42.9365 62.1923C43.0617 62.1614 43.0518 62.0274 43.0518 62.0274L43.0493 57.416C43.0493 56.4046 42.7791 55.6548 42.2475 55.1901C41.7182 54.7266 40.9387 54.4923 39.9312 54.4923C39.5532 54.4923 38.9447 54.5445 38.5803 54.6175C38.5803 54.6175 37.4786 54.8307 37.0249 55.1852C37.0249 55.1852 36.9258 55.2472 36.9803 55.386L37.3373 56.3452C37.3819 56.4692 37.5022 56.427 37.5022 56.427C37.5022 56.427 37.5406 56.4121 37.5853 56.3861C38.5557 55.8582 39.7825 55.8743 39.7825 55.8743C40.3279 55.8743 40.7468 55.9833 41.0293 56.2002C41.3044 56.4108 41.4444 56.7293 41.4444 57.401V57.6142C41.0106 57.5523 40.6128 57.5164 40.6128 57.5164ZM81.285 54.9181C81.3233 54.804 81.2429 54.7495 81.2094 54.7371C81.1239 54.7037 80.6951 54.6132 80.3642 54.5921C79.731 54.5537 79.379 54.6603 79.0641 54.8015C78.7518 54.9428 78.4049 55.1708 78.2115 55.4299V54.8164C78.2115 54.7309 78.1508 54.6627 78.0665 54.6627H76.7738C76.6896 54.6627 76.6289 54.7308 76.6289 54.8164V62.3378C76.6289 62.4221 76.6983 62.4915 76.7825 62.4915H78.1074C78.148 62.4913 78.1868 62.475 78.2154 62.4461C78.2439 62.4173 78.2599 62.3784 78.2598 62.3378V58.5802C78.2598 58.0758 78.3156 57.5727 78.4272 57.2567C78.5362 56.9443 78.685 56.694 78.8684 56.5143C79.053 56.3358 79.2624 56.2107 79.4917 56.1401C79.7259 56.0681 79.9849 56.0446 80.1684 56.0446C80.4324 56.0446 80.7224 56.1127 80.7224 56.1127C80.8189 56.1239 80.8735 56.0644 80.9057 55.9764C80.9925 55.7459 81.2379 55.0556 81.285 54.9181Z" fill="#94A3B8"/>
<path d="M68.8495 51.4323C68.6884 51.3827 68.5422 51.3492 68.3513 51.3133C68.1578 51.2786 67.9274 51.2612 67.666 51.2612C66.7537 51.2612 66.0349 51.519 65.5306 52.0271C65.0286 52.5328 64.6878 53.3024 64.5167 54.3149L64.4547 54.6557H63.3097C63.3097 54.6557 63.1709 54.6507 63.1411 54.802L62.954 55.8517C62.9404 55.9509 62.9838 56.014 63.1176 56.014H64.2318L63.1015 62.3246C63.0134 62.8328 62.9118 63.2504 62.799 63.5676C62.6887 63.88 62.581 64.1142 62.4471 64.2852C62.3182 64.4488 62.1967 64.5702 61.986 64.6409C61.8125 64.6991 61.6118 64.7264 61.3924 64.7264C61.2709 64.7264 61.1087 64.7064 60.9884 64.6817C60.8694 64.6581 60.8062 64.6321 60.7157 64.5937C60.7157 64.5937 60.5856 64.5442 60.5335 64.6743C60.4926 64.7821 60.1952 65.5987 60.1592 65.6992C60.1246 65.7995 60.1741 65.8777 60.2373 65.9012C60.386 65.9533 60.4963 65.9879 60.6983 66.0363C60.9785 66.102 61.2151 66.1057 61.4369 66.1057C61.9004 66.1057 62.3242 66.04 62.675 65.9136C63.027 65.786 63.3343 65.5641 63.6069 65.2642C63.9007 64.9395 64.0853 64.5999 64.2614 64.1352C64.4361 63.6766 64.5861 63.1066 64.705 62.4423L65.8415 56.014H67.5022C67.5022 56.014 67.6421 56.019 67.6708 55.8666L67.859 54.8181C67.8715 54.7178 67.8294 54.6558 67.6942 54.6558H66.0819C66.0906 54.6199 66.1636 54.0522 66.3483 53.5182C66.4277 53.2914 66.5763 53.1067 66.7016 52.9802C66.8256 52.8563 66.9681 52.7684 67.1243 52.7175C67.2841 52.6654 67.4664 52.6407 67.6659 52.6407C67.8171 52.6407 67.9669 52.658 68.0797 52.6815C68.2359 52.7151 68.2966 52.7324 68.3376 52.7448C68.5024 52.7944 68.5247 52.7461 68.557 52.6668L68.9424 51.6084C68.982 51.4942 68.8842 51.4459 68.8495 51.4323ZM46.3218 62.3383C46.3218 62.4226 46.2611 62.4908 46.1768 62.4908H44.8396C44.7553 62.4908 44.6958 62.4226 44.6958 62.3383V51.576C44.6958 51.4918 44.7553 51.4236 44.8396 51.4236H46.1768C46.2611 51.4236 46.3218 51.4918 46.3218 51.576V62.3383Z" fill="#94A3B8"/>
</svg>
