<svg width="120" height="120" viewBox="0 0 120 120" fill="none" xmlns="http://www.w3.org/2000/svg">
<circle cx="60" cy="60" r="59" fill="#B4BBC6" stroke="#94A3B8" stroke-width="2"/>
<path fill-rule="evenodd" clip-rule="evenodd" d="M42.3521 66.6846L43.5751 63.8195C44.8961 64.8154 46.6562 65.3331 48.3928 65.3331C49.6746 65.3331 50.4861 64.8351 50.4861 64.0803C50.4665 61.97 42.8068 63.6219 42.748 58.3302C42.7284 55.6429 45.0961 53.5721 48.4516 53.5721C50.4469 53.5721 52.4382 54.07 53.8612 55.2042L52.7165 58.1287C51.4151 57.2909 49.7961 56.6941 48.2556 56.6941C47.2089 56.6941 46.519 57.1921 46.519 57.8283C46.5386 59.8992 54.2571 58.7649 54.3355 63.8195C54.3355 66.5661 52.0266 68.4986 48.7103 68.4986C46.2799 68.4946 44.0494 67.9177 42.3521 66.6846ZM89.3176 62.7841C88.7061 63.859 87.5614 64.5941 86.2364 64.5941C84.2804 64.5941 82.7045 63.0014 82.7045 61.0334C82.7045 59.0653 84.2843 57.4727 86.2364 57.4727C87.5575 57.4727 88.7061 58.2077 89.3176 59.2827L92.6927 57.3936C91.4304 55.1252 89 53.5721 86.2364 53.5721C82.1479 53.5721 78.8316 56.9154 78.8316 61.0373C78.8316 65.1592 82.1479 68.5025 86.2364 68.5025C89.0196 68.5025 91.4304 66.9692 92.6927 64.681L89.3176 62.7841ZM56.0329 47.3794H60.2586V68.218H56.0329V47.3794ZM94.3508 47.3794V68.218H98.5766V61.966L103.59 68.218H109L102.622 60.7923L108.526 53.8645H103.351L98.5727 59.6146V47.3794H94.3508Z" fill="#0B0F19"/>
<path d="M72.8144 62.8238C72.2029 63.8395 70.9406 64.5943 69.5177 64.5943C67.5616 64.5943 65.9857 63.0017 65.9857 61.0336C65.9857 59.0655 67.5655 57.4729 69.5177 57.4729C70.9406 57.4729 72.2029 58.2672 72.8144 59.3026V62.8238ZM72.8144 53.8687V55.5601C72.1245 54.3864 70.4075 53.5684 68.6082 53.5684C64.896 53.5684 61.9756 56.8722 61.9756 61.0138C61.9756 65.1555 64.896 68.4988 68.6082 68.4988C70.4036 68.4988 72.1205 67.6847 72.8144 66.507V68.1985H77.0401V53.8687H72.8144Z" fill="#0B0F19"/>
<path fill-rule="evenodd" clip-rule="evenodd" d="M16.2331 62.8038C16.2331 64.2581 15.0689 65.4319 13.6263 65.4319C12.1838 65.4319 11.0195 64.2542 11.0195 62.8038C11.0195 61.3535 12.1838 60.1758 13.6263 60.1758H16.2331V62.8038ZM17.5346 62.8038C17.5346 61.3495 18.6988 60.1758 20.1414 60.1758C21.5839 60.1758 22.7482 61.3495 22.7482 62.8038V69.372C22.7482 70.8263 21.5839 72 20.1414 72C18.6988 72 17.5346 70.8263 17.5346 69.372V62.8038Z" fill="#0B0F19"/>
<path fill-rule="evenodd" clip-rule="evenodd" d="M20.1414 52.2561C18.6989 52.2561 17.5346 51.0824 17.5346 49.628C17.5346 48.1737 18.6989 47 20.1414 47C21.584 47 22.7482 48.1737 22.7482 49.628V52.2561H20.1414ZM20.1414 53.5879C21.584 53.5879 22.7482 54.7616 22.7482 56.2159C22.7482 57.6703 21.584 58.844 20.1414 58.844H13.6068C12.1642 58.844 11 57.6663 11 56.2159C11 54.7656 12.1642 53.5879 13.6068 53.5879H20.1414Z" fill="#0B0F19"/>
<path fill-rule="evenodd" clip-rule="evenodd" d="M30.5844 56.2159C30.5844 54.7616 31.7486 53.5879 33.1912 53.5879C34.6337 53.5879 35.798 54.7616 35.798 56.2159C35.798 57.6703 34.6337 58.844 33.1912 58.844H30.5844V56.2159ZM29.2829 56.2159C29.2829 57.6703 28.1187 58.844 26.6761 58.844C25.2336 58.844 24.0693 57.6703 24.0693 56.2159V49.628C24.0693 48.1737 25.2336 47 26.6761 47C28.1187 47 29.2829 48.1737 29.2829 49.628V56.2159Z" fill="#0B0F19"/>
<path fill-rule="evenodd" clip-rule="evenodd" d="M26.6761 66.7439C28.1187 66.7439 29.2829 67.9176 29.2829 69.372C29.2829 70.8263 28.1187 72 26.6761 72C25.2336 72 24.0693 70.8263 24.0693 69.372V66.7439H26.6761ZM26.6761 65.4319C25.2336 65.4319 24.0693 64.2581 24.0693 62.8038C24.0693 61.3495 25.2336 60.1758 26.6761 60.1758H33.2108C34.6533 60.1758 35.8176 61.3495 35.8176 62.8038C35.8176 64.2581 34.6533 65.4319 33.2108 65.4319H26.6761Z" fill="#0B0F19"/>
</svg>
