<svg width="36" height="36" viewBox="0 0 36 36" fill="none" xmlns="http://www.w3.org/2000/svg">
<path d="M21.6667 4.50024H24.75C25.9926 4.50024 27 5.5076 27 6.75024V9.00024C27 10.2429 25.9926 11.2502 24.75 11.2502H21.6667M21.6667 4.50024H16.5C9.04415 4.50024 3 10.5444 3 18.0002C3 25.4561 9.04416 31.5002 16.5 31.5002H21.6667M21.6667 4.50024V11.2502M21.6667 11.2502H16.4167C12.6887 11.2502 9.66667 14.2723 9.66667 18.0002C9.66667 21.7282 12.6887 24.7502 16.4167 24.7502H21.6667M21.6667 24.7502H24.75C25.9926 24.7502 27 25.7576 27 27.0002V29.2502C27 30.4929 25.9926 31.5002 24.75 31.5002H21.6667M21.6667 24.7502V31.5002" stroke="url(#paint0_linear_2006_992)" stroke-width="1.5" stroke-linecap="round" stroke-linejoin="round"/>
<path d="M32.25 9.00024C32.25 9.00024 34.5 11.7002 34.5 18.0002C34.5 24.3002 32.25 27.0002 32.25 27.0002" stroke="url(#paint1_linear_2006_992)" stroke-width="1.5" stroke-linecap="round"/>
<path d="M29.25 13.5002C29.25 13.5002 30 14.8502 30 18.0002C30 21.1502 29.25 22.5002 29.25 22.5002" stroke="url(#paint2_linear_2006_992)" stroke-width="1.5" stroke-linecap="round"/>
<defs>
<linearGradient id="paint0_linear_2006_992" x1="12.5927" y1="10.545" x2="21.1506" y2="11.4821" gradientUnits="userSpaceOnUse">
<stop stop-color="white"/>
<stop offset="1" stop-color="#999999"/>
</linearGradient>
<linearGradient id="paint1_linear_2006_992" x1="33.1493" y1="13.0301" x2="33.961" y2="13.0426" gradientUnits="userSpaceOnUse">
<stop stop-color="white"/>
<stop offset="1" stop-color="#999999"/>
</linearGradient>
<linearGradient id="paint2_linear_2006_992" x1="29.5498" y1="15.5152" x2="29.8204" y2="15.5179" gradientUnits="userSpaceOnUse">
<stop stop-color="white"/>
<stop offset="1" stop-color="#999999"/>
</linearGradient>
</defs>
</svg>
