<svg width="36" height="36" viewBox="0 0 36 36" fill="none" xmlns="http://www.w3.org/2000/svg">
<path d="M3.75 9.74988C3.75 6.92145 3.75 5.50724 4.62868 4.62856C5.50736 3.74988 6.92157 3.74988 9.75 3.74988C12.5784 3.74988 13.9926 3.74988 14.8713 4.62856C15.75 5.50724 15.75 6.92145 15.75 9.74988V26.2499C15.75 29.0783 15.75 30.4925 14.8713 31.3712C13.9926 32.2499 12.5784 32.2499 9.75 32.2499C6.92157 32.2499 5.50736 32.2499 4.62868 31.3712C3.75 30.4925 3.75 29.0783 3.75 26.2499V9.74988Z" stroke="url(#paint0_linear_2006_993)" stroke-width="1.5"/>
<path d="M20.25 23.2498C20.25 20.4213 20.25 19.0071 21.1287 18.1284C22.0074 17.2498 23.4216 17.2498 26.25 17.2498C29.0784 17.2498 30.4926 17.2498 31.3713 18.1284C32.25 19.0071 32.25 20.4213 32.25 23.2498V26.2498C32.25 29.0782 32.25 30.4924 31.3713 31.3711C30.4926 32.2498 29.0784 32.2498 26.25 32.2498C23.4216 32.2498 22.0074 32.2498 21.1287 31.3711C20.25 30.4924 20.25 29.0782 20.25 26.2498V23.2498Z" stroke="url(#paint1_linear_2006_993)" stroke-width="1.5"/>
<path d="M20.25 8.24988C20.25 6.85205 20.25 6.15314 20.4784 5.60183C20.7828 4.86674 21.3669 4.28272 22.1019 3.97824C22.6533 3.74988 23.3522 3.74988 24.75 3.74988H27.75C29.1478 3.74988 29.8467 3.74988 30.3981 3.97824C31.1331 4.28272 31.7172 4.86674 32.0216 5.60183C32.25 6.15314 32.25 6.85205 32.25 8.24988C32.25 9.6477 32.25 10.3466 32.0216 10.8979C31.7172 11.633 31.1331 12.217 30.3981 12.5215C29.8467 12.7499 29.1478 12.7499 27.75 12.7499H24.75C23.3522 12.7499 22.6533 12.7499 22.1019 12.5215C21.3669 12.217 20.7828 11.633 20.4784 10.8979C20.25 10.3466 20.25 9.6477 20.25 8.24988Z" stroke="url(#paint2_linear_2006_993)" stroke-width="1.5"/>
<defs>
<linearGradient id="paint0_linear_2006_993" x1="8.54635" y1="10.1305" x2="12.865" y2="10.3545" gradientUnits="userSpaceOnUse">
<stop stop-color="white"/>
<stop offset="1" stop-color="#999999"/>
</linearGradient>
<linearGradient id="paint1_linear_2006_993" x1="25.0464" y1="20.608" x2="29.3349" y2="21.0306" gradientUnits="userSpaceOnUse">
<stop stop-color="white"/>
<stop offset="1" stop-color="#999999"/>
</linearGradient>
<linearGradient id="paint2_linear_2006_993" x1="25.0464" y1="5.7648" x2="29.2628" y2="6.45739" gradientUnits="userSpaceOnUse">
<stop stop-color="white"/>
<stop offset="1" stop-color="#999999"/>
</linearGradient>
</defs>
</svg>
