<svg width="36" height="36" viewBox="0 0 36 36" fill="none" xmlns="http://www.w3.org/2000/svg">
<path d="M3.00006 26.9998C3.00006 25.6019 3.00006 24.903 3.22842 24.3517C3.5329 23.6166 4.11693 23.0326 4.85201 22.7281C5.40332 22.4998 6.10224 22.4998 7.50006 22.4998H28.5001C29.8979 22.4998 30.5968 22.4998 31.1481 22.7281C31.8832 23.0326 32.4672 23.6166 32.7717 24.3517C33.0001 24.903 33.0001 25.6019 33.0001 26.9998C33.0001 28.3976 33.0001 29.0965 32.7717 29.6478C32.4672 30.3829 31.8832 30.9669 31.1481 31.2714C30.5968 31.4998 29.8979 31.4998 28.5001 31.4998H7.50006C6.10224 31.4998 5.40332 31.4998 4.85201 31.2714C4.11693 30.9669 3.5329 30.3829 3.22842 29.6478C3.00006 29.0965 3.00006 28.3976 3.00006 26.9998Z" stroke="url(#paint0_linear_2006_994)" stroke-width="1.5"/>
<path d="M3.00006 17.9998C3.00006 16.6019 3.00006 15.903 3.22842 15.3517C3.5329 14.6166 4.11693 14.0326 4.85201 13.7281C5.40332 13.4998 6.10224 13.4998 7.50006 13.4998H28.5001C29.8979 13.4998 30.5968 13.4998 31.1481 13.7281C31.8832 14.0326 32.4672 14.6166 32.7717 15.3517C33.0001 15.903 33.0001 16.6019 33.0001 17.9998C33.0001 19.3976 33.0001 20.0965 32.7717 20.6478C32.4672 21.3829 31.8832 21.9669 31.1481 22.2714C30.5968 22.4998 29.8979 22.4998 28.5001 22.4998H7.50006C6.10224 22.4998 5.40332 22.4998 4.85201 22.2714C4.11693 21.9669 3.5329 21.3829 3.22842 20.6478C3.00006 20.0965 3.00006 19.3976 3.00006 17.9998Z" stroke="url(#paint1_linear_2006_994)" stroke-width="1.5"/>
<path d="M3.00006 8.99976C3.00006 7.60193 3.00006 6.90302 3.22842 6.35171C3.5329 5.61662 4.11693 5.0326 4.85201 4.72812C5.40332 4.49976 6.10224 4.49976 7.50006 4.49976H28.5001C29.8979 4.49976 30.5968 4.49976 31.1481 4.72812C31.8832 5.0326 32.4672 5.61662 32.7717 6.35171C33.0001 6.90302 33.0001 7.60193 33.0001 8.99976C33.0001 10.3976 33.0001 11.0965 32.7717 11.6478C32.4672 12.3829 31.8832 12.9669 31.1481 13.2714C30.5968 13.4998 29.8979 13.4998 28.5001 13.4998H7.50006C6.10224 13.4998 5.40332 13.4998 4.85201 13.2714C4.11693 12.9669 3.5329 12.3829 3.22842 11.6478C3.00006 11.0965 3.00006 10.3976 3.00006 8.99976Z" stroke="url(#paint2_linear_2006_994)" stroke-width="1.5"/>
<ellipse cx="7.5" cy="18" rx="1.5" ry="1.5" fill="url(#paint3_linear_2006_994)"/>
<circle cx="7.5" cy="9" r="1.5" fill="url(#paint4_linear_2006_994)"/>
<ellipse cx="7.5" cy="27" rx="1.5" ry="1.5" fill="url(#paint5_linear_2006_994)"/>
<defs>
<linearGradient id="paint0_linear_2006_994" x1="14.9909" y1="24.5147" x2="24.2545" y2="28.3187" gradientUnits="userSpaceOnUse">
<stop stop-color="white"/>
<stop offset="1" stop-color="#999999"/>
</linearGradient>
<linearGradient id="paint1_linear_2006_994" x1="14.9909" y1="15.5147" x2="24.2545" y2="19.3187" gradientUnits="userSpaceOnUse">
<stop stop-color="white"/>
<stop offset="1" stop-color="#999999"/>
</linearGradient>
<linearGradient id="paint2_linear_2006_994" x1="14.9909" y1="6.51468" x2="24.2545" y2="10.3187" gradientUnits="userSpaceOnUse">
<stop stop-color="white"/>
<stop offset="1" stop-color="#999999"/>
</linearGradient>
<linearGradient id="paint3_linear_2006_994" x1="7.19909" y1="17.1716" x2="8.26546" y2="17.303" gradientUnits="userSpaceOnUse">
<stop stop-color="white"/>
<stop offset="1" stop-color="#999999"/>
</linearGradient>
<linearGradient id="paint4_linear_2006_994" x1="7.19909" y1="8.17164" x2="8.26546" y2="8.30301" gradientUnits="userSpaceOnUse">
<stop stop-color="white"/>
<stop offset="1" stop-color="#999999"/>
</linearGradient>
<linearGradient id="paint5_linear_2006_994" x1="7.19909" y1="26.1716" x2="8.26546" y2="26.303" gradientUnits="userSpaceOnUse">
<stop stop-color="white"/>
<stop offset="1" stop-color="#999999"/>
</linearGradient>
</defs>
</svg>
