<svg width="120" height="120" viewBox="0 0 120 120" fill="none" xmlns="http://www.w3.org/2000/svg">
<circle cx="60" cy="60" r="59" fill="#B4BBC6" stroke="#94A3B8" stroke-width="2"/>
<path d="M19.4726 51.852H26.704V44H18.852V51.2641C18.852 51.5907 18.5907 51.852 18.2641 51.852H11C11 59.4231 18.2968 61.5201 18.8194 66.9355C18.8324 67.2621 18.5842 67.5365 18.2641 67.5495H11V75.4015H18.852V68.144C18.852 67.8174 19.1133 67.5561 19.4399 67.5561H26.704C26.704 59.9849 19.4073 57.888 18.8847 52.4726C18.8716 52.146 19.1198 51.8716 19.4465 51.8586C19.453 51.852 19.4595 51.852 19.4726 51.852Z" fill="#0B0F19"/>
<path d="M42.5911 62.5064L45.3021 62.4803L45.4654 62.6305C45.6287 64.1853 46.8307 65.041 48.7382 65.0214C50.4301 65.0084 51.4687 64.3094 51.4622 63.1335C51.4557 62.0688 50.5934 61.6768 49.1693 61.3371L46.4257 60.6708C44.1001 60.109 42.7479 58.6523 42.7283 56.5619C42.7087 54.1775 44.4202 51.8846 48.2482 51.852C51.7692 51.8193 54.049 53.6876 54.3365 56.5096L54.1732 56.686L51.4818 56.7121L51.3185 56.575C51.0637 55.1574 49.8683 54.367 48.2874 54.38C46.7 54.3931 45.8247 55.1966 45.8377 56.2026C45.8443 57.0192 46.4322 57.5744 47.5884 57.8618L50.5607 58.5674C52.8863 59.1095 54.6304 60.3311 54.6566 62.82C54.6827 65.7073 52.4617 67.5234 48.7839 67.556C45.0669 67.5887 42.6238 65.7923 42.4343 62.6828L42.5911 62.5064Z" fill="#0B0F19"/>
<path d="M68.4792 56.9734C68.4792 60.0044 66.5979 61.8858 63.0246 61.8858H60.6337L60.4704 62.0491V66.9092L60.3071 67.0725H57.5373L57.374 66.9092V52.3484L57.5373 52.1851H63.2924C66.5129 52.1851 68.4792 53.9815 68.4792 56.9734ZM65.4873 57.0125C65.4873 55.5493 64.4813 54.798 63.0638 54.798H60.6337L60.4704 54.9614V59.1095L60.6337 59.2728H62.7502C64.5663 59.2728 65.4873 58.4366 65.4873 57.0125Z" fill="#0B0F19"/>
<path d="M76.5337 52.1851H73.1891L73.0389 52.2961L68.6425 64.7143C68.6425 64.7339 68.636 64.747 68.636 64.7666V66.9092L68.7993 67.0725H70.9681C71.0269 67.0333 71.0661 67.0007 71.1249 66.9615L72.0525 64.0937L72.2092 63.9827H77.3699L77.5267 64.0937L78.4543 66.9615L78.6111 67.0725H80.806L80.9693 66.9092V64.7078C80.9693 64.6882 80.9627 64.6751 80.9627 64.6555L76.6905 52.2961L76.5337 52.1851ZM72.9931 61.2129L74.7308 55.5558H74.8876L76.6056 61.2129L76.4488 61.422H73.1499L72.9931 61.2129Z" fill="#0B0F19"/>
<path d="M92.1331 61.2652C92.1657 61.1672 92.1853 61.1215 92.218 61.0235C94.1843 60.2984 95.2621 58.7436 95.2621 56.7447C95.2621 54.0664 93.3416 52.1851 90.0165 52.1851H83.5886L83.4253 52.3484V66.9092L83.5886 67.0725H86.3584L86.5217 66.9092V61.6114L86.685 61.4481H88.8799L89.0171 61.5265L92.4336 66.9941L92.5707 67.0725H94.8767L95.04 66.9092V65.8379C95.0335 65.8052 95.0204 65.7791 95.0139 65.7464L92.1331 61.2652ZM89.9708 58.8547H86.685L86.5217 58.6914V54.9614L86.685 54.798H89.9708C91.3949 54.798 92.1657 55.6342 92.1657 56.8296C92.1657 58.0251 91.3688 58.8547 89.9708 58.8547Z" fill="#0B0F19"/>
<path d="M104.257 58.0706L108.941 53.1125C108.954 53.0733 108.967 53.0406 108.987 53.0014V52.3547L108.824 52.1914H105.936L105.819 52.2437L100.743 57.7897L100.599 57.7375V52.3547L100.436 52.1914H97.6662L97.5029 52.3547V66.9156L97.6662 67.0789H100.436L100.599 66.9156V61.6896C100.619 61.6504 100.632 61.6177 100.645 61.572L101.84 60.3766L102.089 60.4027L106.635 67.007L106.772 67.0789H108.837L109 66.9156V65.0016C108.987 64.9689 108.98 64.9362 108.967 64.9036L104.257 58.2797C104.251 58.1947 104.257 58.1425 104.257 58.0706Z" fill="#0B0F19"/>
</svg>
