<svg width="44" height="40" viewBox="0 0 44 40" fill="none" xmlns="http://www.w3.org/2000/svg">
<path d="M37.1663 13.333C35.3608 13.333 33.8261 12.7011 32.5622 11.4372C31.2983 10.1733 30.6663 8.63856 30.6663 6.83301C30.6663 5.02745 31.2983 3.49273 32.5622 2.22884C33.8261 0.964952 35.3608 0.333008 37.1663 0.333008C38.9719 0.333008 40.5066 0.964952 41.7705 2.22884C43.0344 3.49273 43.6663 5.02745 43.6663 6.83301C43.6663 8.63856 43.0344 10.1733 41.7705 11.4372C40.5066 12.7011 38.9719 13.333 37.1663 13.333ZM4.66634 39.333C3.47467 39.333 2.4549 38.9091 1.60701 38.0612C0.759119 37.2133 0.334452 36.1928 0.333008 34.9997V8.99967C0.333008 7.80801 0.757675 6.78823 1.60701 5.94034C2.45634 5.09245 3.47612 4.66779 4.66634 4.66634H26.5497C26.4052 5.38856 26.333 6.11079 26.333 6.83301C26.333 7.55523 26.4052 8.27745 26.5497 8.99967C26.8025 10.1552 27.2177 11.2299 27.7955 12.2237C28.3733 13.2175 29.0775 14.0928 29.908 14.8497L21.9997 19.833L4.66634 8.99967V13.333L21.9997 24.1663L33.4288 17.0163C34.0427 17.233 34.6566 17.3955 35.2705 17.5038C35.8844 17.6122 36.5163 17.6663 37.1663 17.6663C38.3219 17.6663 39.4594 17.4858 40.5788 17.1247C41.6983 16.7636 42.7275 16.2219 43.6663 15.4997V34.9997C43.6663 36.1913 43.2424 37.2118 42.3945 38.0612C41.5466 38.9105 40.5261 39.3345 39.333 39.333H4.66634Z" fill="white"/>
</svg>
