<svg width="40" height="48" viewBox="0 0 40 48" fill="none" xmlns="http://www.w3.org/2000/svg">
<path d="M18.9997 47.3333C17.7163 47.3333 16.6181 46.8767 15.705 45.9636C14.7919 45.0505 14.3346 43.9515 14.333 42.6666H23.6663C23.6663 43.95 23.2098 45.049 22.2967 45.9636C21.3836 46.8783 20.2846 47.3349 18.9997 47.3333ZM0.333008 40.3333V35.6666H4.99967V19.3333C4.99967 16.1055 5.9719 13.2379 7.91634 10.7303C9.86079 8.22274 12.3886 6.5793 15.4997 5.79996V4.16663C15.4997 3.19441 15.8403 2.36841 16.5217 1.68863C17.203 1.00885 18.029 0.668187 18.9997 0.666631C19.9703 0.665076 20.7971 1.00574 21.48 1.68863C22.1629 2.37152 22.5028 3.19752 22.4997 4.16663V4.92496C22.1108 5.70274 21.8191 6.51941 21.6247 7.37496C21.4302 8.23052 21.333 9.10552 21.333 9.99996C21.333 13.2277 22.4709 15.9795 24.7467 18.2553C27.0225 20.5311 29.7735 21.6682 32.9997 21.6666V35.6666H37.6663V40.3333H0.333008ZM32.9997 17C31.0552 17 29.4025 16.3194 28.0413 14.9583C26.6802 13.5972 25.9997 11.9444 25.9997 9.99996C25.9997 8.05552 26.6802 6.40274 28.0413 5.04163C29.4025 3.68052 31.0552 2.99996 32.9997 2.99996C34.9441 2.99996 36.5969 3.68052 37.958 5.04163C39.3191 6.40274 39.9997 8.05552 39.9997 9.99996C39.9997 11.9444 39.3191 13.5972 37.958 14.9583C36.5969 16.3194 34.9441 17 32.9997 17Z" fill="white"/>
</svg>
