<svg width="44" height="44" viewBox="0 0 44 44" fill="none" xmlns="http://www.w3.org/2000/svg">
<path d="M14.3693 42.4517C10.5089 40.998 7.13777 38.483 4.64453 35.1966C2.15129 31.9103 0.637401 27.9863 0.277344 23.8769H9.63734C9.60166 30.3711 11.2308 36.7662 14.3693 42.4517ZM30.6302 23.8769C30.2358 35.7178 25.9198 43.8276 22.022 43.8276C18.122 43.8276 13.8082 35.7178 13.4117 23.8769H30.6302ZM43.7233 23.8769C43.3736 27.9925 41.8611 31.9239 39.3622 35.2126C36.8634 38.5014 33.481 41.012 29.6097 42.4517C32.7654 36.772 34.4027 30.3743 34.3633 23.8769H43.7233ZM43.7233 20.1243H34.3633C34.4067 13.6243 32.7708 7.22825 29.6097 1.54942C33.4812 2.98894 36.8636 5.4995 39.3626 8.7883C41.8615 12.0771 43.3739 16.0086 43.7233 20.1243ZM30.6302 20.1243H13.4117C13.8082 8.26175 18.122 0.173584 22.022 0.173584C25.9198 0.173584 30.2142 8.26175 30.6302 20.1243ZM14.3693 1.65558C11.226 7.33848 9.59651 13.7341 9.63734 20.2283H0.277344C0.630484 16.117 2.14177 12.1901 4.63596 8.90287C7.13015 5.61563 10.5051 3.10274 14.3693 1.65558Z" fill="white"/>
</svg>
