<svg xmlns="http://www.w3.org/2000/svg" version="1.1" xmlns:xlink="http://www.w3.org/1999/xlink" width="512" height="512" x="0" y="0" viewBox="0 0 20 20" style="enable-background:new 0 0 512 512" xml:space="preserve" class=""><g><g data-name="Layer 2"><path d="M10 3a6.9 6.9 0 0 1 3.579 1H13a1 1 0 0 0 0 2h3a1 1 0 0 0 1-1V2a1 1 0 0 0-2 0v.517A9 9 0 0 0 1 10a1 1 0 0 0 2 0 7.008 7.008 0 0 1 7-7zM18 9a1 1 0 0 0-1 1 7.008 7.008 0 0 1-7 7 6.9 6.9 0 0 1-3.579-1H7a1 1 0 0 0 0-2H4a1 1 0 0 0-1 1v3a1 1 0 0 0 2 0v-.517A9 9 0 0 0 19 10a1 1 0 0 0-1-1z" fill="#2d68ff" opacity="1" data-original="#000000" class=""></path></g></g></svg>