<svg width="120" height="120" viewBox="0 0 120 120" fill="none" xmlns="http://www.w3.org/2000/svg">
<circle cx="60" cy="60" r="59" fill="#B4BBC6" stroke="#94A3B8" stroke-width="2"/>
<path d="M21.344 66.8155C22.9505 66.8155 24.2527 65.5132 24.2527 63.9067C24.2527 62.3003 22.9505 60.998 21.344 60.998C19.7376 60.998 18.4353 62.3003 18.4353 63.9067C18.4353 65.5132 19.7376 66.8155 21.344 66.8155ZM21.344 59.2528C22.9505 59.2528 24.2527 57.9505 24.2527 56.344C24.2527 54.7376 22.9505 53.4353 21.344 53.4353C19.7376 53.4353 18.4353 54.7376 18.4353 56.344C18.4353 57.9505 19.7376 59.2528 21.344 59.2528ZM28.9067 66.8155C30.5132 66.8155 31.8155 65.5132 31.8155 63.9067C31.8155 62.3003 30.5132 60.998 28.9067 60.998C27.3003 60.998 25.998 62.3003 25.998 63.9067C25.998 65.5132 27.3003 66.8155 28.9067 66.8155ZM28.9067 59.2528C30.5132 59.2528 31.8155 57.9505 31.8155 56.344C31.8155 54.7376 30.5132 53.4353 28.9067 53.4353C27.3003 53.4353 25.998 54.7376 25.998 56.344C25.998 57.9505 27.3003 59.2528 28.9067 59.2528ZM25.1254 45C33.3183 45 40.2508 51.9325 40.2508 60.1254C40.2508 68.3183 33.3183 75.2508 25.1254 75.2508C16.9325 75.2508 10 68.3183 10 60.1254C10 51.9326 16.9325 45 25.1254 45ZM25.1254 49.0722C19.0383 49.0722 14.0722 53.8664 14.0722 59.9223C14.0722 65.9783 19.0383 71.1786 25.1254 71.1786C31.2125 71.1786 36.1786 65.9783 36.1786 59.9223C36.1786 53.8664 31.2125 49.0722 25.1254 49.0722ZM57.4066 69.1425H62.1594C62.3304 69.1425 62.4037 69.0692 62.4526 68.8981L64.0265 63.0874L65.5534 68.8981C65.6023 69.0692 65.6756 69.1425 65.8466 69.1425H70.5975C70.7929 69.1425 70.9151 69.0692 70.9639 68.8981L74.2837 56.5767V68.8493C74.2837 69.0203 74.4059 69.1425 74.5769 69.1425H79.8056C79.9766 69.1425 80.0988 69.0203 80.0988 68.8493V56.0555C80.0988 55.8845 79.9766 55.7623 79.8056 55.7623L69.6173 55.7633C69.4463 55.7633 69.3485 55.8367 69.2996 56.0321L68.1456 61.9462L66.9835 56.0321C66.9591 55.8611 66.837 55.7633 66.6659 55.7633H61.4945C61.3234 55.7633 61.2013 55.8611 61.1768 56.0321L60.0452 61.9462L58.9172 56.0321C58.8684 55.8367 58.7707 55.7633 58.5996 55.7633L50.8792 55.7623V51.4039C50.8792 51.184 50.7278 51.0863 50.4836 51.1596L45.6296 52.7253C45.4585 52.7741 45.3608 52.9208 45.3608 53.0918L45.3551 55.1457C45.3551 55.6589 45.0864 55.8787 44.5732 55.8787H43.3184C43.1474 55.8787 43.0252 56.0008 43.0252 56.1719V59.8334C43.0252 60.0045 43.1474 60.1266 43.3184 60.1266H45.1957V64.5734C45.1957 67.7253 46.4359 69.5066 50.223 69.5066C51.6891 69.5066 52.8874 69.3182 53.5228 69.025C53.7182 68.9273 53.788 68.8051 53.788 68.6097V65.148C53.788 64.9525 53.5961 64.8548 53.3517 64.9769C53.0341 65.1236 52.6664 65.148 52.2999 65.148C51.3226 65.148 51.0107 64.7815 51.0107 63.5598V60.1266H53.2874C53.4584 60.1266 53.5724 60.0133 53.5724 59.8423V56.5767L57.0401 68.8981C57.089 69.0692 57.2111 69.1425 57.4066 69.1425ZM74.2837 54.3061C74.2837 54.4772 74.4059 54.5994 74.5769 54.5994H79.8056C79.9766 54.5994 80.0988 54.4772 80.0988 54.3061V51.4039C80.0988 51.2329 79.9766 51.1107 79.8056 51.1107H74.5769C74.4059 51.1107 74.2837 51.2329 74.2837 51.4039V54.3061ZM81.2632 68.8493C81.2632 69.0203 81.3853 69.1425 81.5564 69.1425H86.7909C86.9618 69.1425 87.0835 69.0203 87.0835 68.8493V51.4039C87.0835 51.2329 86.9618 51.1107 86.7909 51.1107H81.5564C81.3853 51.1107 81.2632 51.2329 81.2632 51.4039V68.8493ZM88.2474 68.8493C88.2474 69.0203 88.3699 69.1425 88.5409 69.1425H93.7606C93.9323 69.1425 94.0541 69.0203 94.0541 68.8493L94.051 56.0555C94.051 55.8845 93.9293 55.7623 93.7584 55.7623H88.5378C88.3669 55.7623 88.2452 55.8845 88.2452 56.0555L88.2474 68.8493ZM88.2452 54.3061C88.2452 54.4772 88.3669 54.5994 88.5378 54.5994H93.7606C93.9323 54.5994 94.0541 54.4772 94.0541 54.3061L94.051 51.4039C94.051 51.2329 93.9293 51.1107 93.7584 51.1107H88.5378C88.3669 51.1107 88.2452 51.2329 88.2452 51.4039V54.3061ZM94.9684 62.5699C94.9684 66.5525 98.026 69.5496 102.498 69.5496C106.969 69.5496 110 66.5525 110 62.5699V62.2522C110 58.2697 106.969 55.3551 102.498 55.3551C98.026 55.3551 94.9684 58.2697 94.9684 62.2522V62.5699ZM100.578 62.5804V62.3418C100.578 60.5093 101.422 59.7926 102.498 59.7926C103.572 59.7926 104.422 60.5093 104.422 62.3418V62.5804C104.422 64.3885 103.572 65.1447 102.498 65.1447C101.422 65.1447 100.578 64.3885 100.578 62.5804Z" fill="#0B0F19"/>
</svg>
