<svg width="512" height="512" viewBox="0 0 512 512" fill="none" xmlns="http://www.w3.org/2000/svg">
<mask id="mask0_4136_17" style="mask-type:alpha" maskUnits="userSpaceOnUse" x="31" y="0" width="450" height="512">
<path d="M211.003 44.9975C211.003 20.1859 190.817 0 166.005 0C141.194 0 121.008 20.1859 121.008 44.9975C121.008 69.8092 141.194 89.9951 166.005 89.9951C190.817 89.9951 211.003 69.8092 211.003 44.9975ZM166.005 59.9967C157.735 59.9967 151.006 53.2681 151.006 44.9975C151.006 36.727 157.735 29.9984 166.005 29.9984C174.276 29.9984 181.005 36.727 181.005 44.9975C181.005 53.2681 174.276 59.9967 166.005 59.9967Z" fill="black"/>
<path d="M390.993 44.9975C390.993 20.1859 370.807 0 345.996 0C321.184 0 300.998 20.1859 300.998 44.9975C300.998 69.8092 321.184 89.9951 345.996 89.9951C370.807 89.9951 390.993 69.8092 390.993 44.9975ZM345.996 59.9967C337.725 59.9967 330.996 53.2681 330.996 44.9975C330.996 36.727 337.725 29.9984 345.996 29.9984C354.266 29.9984 360.995 36.727 360.995 44.9975C360.995 53.2681 354.266 59.9967 345.996 59.9967Z" fill="black"/>
<path d="M420.991 179.99V164.991C420.991 123.638 387.348 89.9951 345.995 89.9951C304.643 89.9951 271 123.638 271 164.991V179.99H241.001V164.991C241.001 123.638 207.358 89.9951 166.005 89.9951C124.653 89.9951 91.0094 123.638 91.0094 164.991V179.99H31.0127V231.623L196.004 381.615V512L315.997 432.004V381.615L480.988 231.623V179.99H420.991ZM300.998 164.991C300.998 140.179 321.184 119.993 345.995 119.993C370.807 119.993 390.993 140.179 390.993 164.991V179.99H300.998V164.991ZM121.008 164.991C121.008 140.179 141.194 119.993 166.005 119.993C190.817 119.993 211.003 140.179 211.003 164.991V179.99H121.008V164.991ZM450.99 218.352L285.999 368.344V415.949L226.002 455.947V368.344L61.0111 218.352V209.989H450.99V218.352Z" fill="black"/>
</mask>
<g mask="url(#mask0_4136_17)">
<rect width="512" height="512" fill="url(#paint0_linear_4136_17)"/>
</g>
<defs>
<linearGradient id="paint0_linear_4136_17" x1="0" y1="256" x2="512" y2="256" gradientUnits="userSpaceOnUse">
<stop stop-color="white"/>
<stop offset="1" stop-color="#7D7D7D"/>
</linearGradient>
</defs>
</svg>
