<svg width="120" height="120" viewBox="0 0 120 120" fill="none" xmlns="http://www.w3.org/2000/svg">
<circle cx="60" cy="60" r="59" fill="#B4BBC6" stroke="#94A3B8" stroke-width="2"/>
<path fill-rule="evenodd" clip-rule="evenodd" d="M36.7228 52L28.1958 68.6618H20.1867L23.7552 61.7564H23.5951C20.6511 65.5764 16.2586 68.0911 10 68.6618V61.852C10 61.852 14.0037 61.6156 16.3575 59.1421H10V52.0002H17.1452V57.8743L17.3056 57.8737L20.2253 52.0002H25.629V57.837L25.7894 57.8368L28.8186 52H36.7228Z" fill="#0B0F19"/>
<path d="M83.2205 66.8229H85.5216V53.6201H83.2205V66.8229Z" fill="#0B0F19"/>
<path fill-rule="evenodd" clip-rule="evenodd" d="M70.5344 66.6879C71.0345 66.8958 71.5431 66.9996 72.0601 66.9996C72.9143 66.9996 73.6784 66.7918 74.3528 66.3762C75.0271 65.9605 75.5497 65.3876 75.9207 64.6574C76.2916 63.9215 76.477 63.0875 76.477 62.155C76.477 61.2226 76.2859 60.3885 75.9038 59.6526C75.5217 58.9168 74.9907 58.3467 74.3107 57.9422C73.6307 57.5322 72.8581 57.33 71.9926 57.3357C71.4482 57.3344 70.9091 57.4433 70.408 57.6558C69.9021 57.8692 69.4807 58.1725 69.1435 58.5658C69.1175 58.5957 69.0922 58.6259 69.0677 58.6565V53.6284H66.7581V66.8228H69.0508L69.0462 65.5902C69.1065 65.6639 69.1699 65.7349 69.2363 65.8032C69.6016 66.1796 70.0343 66.4745 70.5344 66.6879ZM72.8945 64.5563C72.5181 64.7865 72.0882 64.9018 71.6049 64.9018C71.1272 64.9018 70.6889 64.7838 70.2899 64.5478C69.8909 64.3063 69.5734 63.9777 69.3374 63.5621C69.107 63.1464 68.9919 62.6746 68.9919 62.1466C68.9862 61.6186 69.0986 61.1468 69.329 60.7311C69.565 60.3098 69.8825 59.984 70.2815 59.7538C70.6805 59.5178 71.1216 59.4027 71.6049 59.4083C72.0882 59.4027 72.5181 59.515 72.8945 59.7453C73.2767 59.97 73.5689 60.293 73.7712 60.7143C73.9791 61.1298 74.0831 61.6074 74.0831 62.1466C74.0831 62.6858 73.9791 63.1633 73.7712 63.5789C73.5689 63.9946 73.2767 64.3204 72.8945 64.5563Z" fill="#0B0F19"/>
<path d="M40.0566 54.4204H42.6866L45.0391 63.0083L47.5418 54.4204H49.7334L52.4477 62.8359L54.7066 54.4204H57.1174L53.5603 66.8228H51.2928L48.5328 58.6014L45.9992 66.8228H43.7065L40.0566 54.4204Z" fill="#0B0F19"/>
<path fill-rule="evenodd" clip-rule="evenodd" d="M61.0011 67.0416C60.0851 67.0471 59.2591 66.8449 58.5229 66.4349C57.7924 66.0193 57.2164 65.4435 56.7949 64.7077C56.3791 63.9718 56.1711 63.1321 56.1711 62.1885C56.1711 61.2729 56.3848 60.4444 56.8118 59.7029C57.2388 58.9616 57.8177 58.3829 58.5482 57.9673C59.2787 57.5517 60.0935 57.3438 60.9927 57.3438C62.0042 57.3438 62.8893 57.5685 63.6479 58.0178C64.4122 58.4672 64.9825 59.1047 65.359 59.9304C65.7411 60.7505 65.8788 61.6914 65.7721 62.7529H58.5518C58.572 63.1759 58.6775 63.5607 58.8685 63.9072C59.0821 64.2892 59.3799 64.5869 59.762 64.8004C60.1441 65.0138 60.5712 65.1205 61.0433 65.1205C61.4029 65.1149 61.7373 65.0531 62.0463 64.9352C62.3554 64.8116 62.6167 64.6459 62.8303 64.4381C63.0494 64.2302 63.2039 63.9943 63.2938 63.7304H65.7047C65.5586 64.3763 65.2663 64.952 64.828 65.4576C64.3897 65.9574 63.8389 66.3478 63.1759 66.6287C62.5127 66.9095 61.7878 67.0471 61.0011 67.0416ZM58.877 60.436C58.742 60.6714 58.6474 60.9277 58.5971 61.1943H63.3832C63.3485 60.8521 63.2428 60.5404 63.0662 60.259C62.864 59.9277 62.5886 59.6721 62.2402 59.4923C61.8918 59.307 61.4985 59.2143 61.0601 59.2143C60.5937 59.2143 60.1695 59.321 59.7873 59.5344C59.4052 59.7479 59.1017 60.0485 58.877 60.436Z" fill="#0B0F19"/>
<path d="M78.1713 57.5376C78.1713 56.7849 78.3427 56.1165 78.6855 55.5323C79.0283 54.9425 79.5088 54.4847 80.1269 54.159C80.7506 53.8276 81.4784 53.6562 82.3101 53.645V55.6924C81.9223 55.698 81.5908 55.7794 81.3154 55.9368C81.0457 56.0884 80.8377 56.3103 80.6916 56.6023C80.5571 56.8713 80.4845 57.183 80.4739 57.5376H82.2595V59.4839H80.4725V66.8225H78.1713V59.4839H76.6877V57.5376H78.1713Z" fill="#0B0F19"/>
<path fill-rule="evenodd" clip-rule="evenodd" d="M91.3715 67.0248C90.4331 67.0248 89.593 66.8197 88.8512 66.4097C88.115 65.994 87.5362 65.421 87.1148 64.6909C86.6989 63.955 86.491 63.1209 86.491 62.1885C86.491 61.2505 86.6989 60.4135 87.1148 59.6777C87.5362 58.9363 88.115 58.3606 88.8512 57.9505C89.593 57.5405 90.4331 57.3354 91.3715 57.3354C92.3156 57.3354 93.1586 57.5405 93.9003 57.9505C94.6477 58.3605 95.2293 58.9334 95.6451 59.6692C96.061 60.405 96.2717 61.2448 96.2774 62.1885C96.2717 63.1209 96.061 63.955 95.6451 64.6909C95.2349 65.421 94.6562 65.994 93.9087 66.4097C93.1613 66.8197 92.3156 67.0248 91.3715 67.0248ZM91.3715 64.91C91.8661 64.91 92.3044 64.7976 92.6865 64.5729C93.0687 64.3426 93.3637 64.0224 93.5715 63.6124C93.7795 63.1967 93.8835 62.7221 93.8835 62.1885C93.8835 61.6493 93.7795 61.1718 93.5715 60.7562C93.3637 60.3405 93.0687 60.0204 92.6865 59.7957C92.3044 59.5654 91.8661 59.4503 91.3715 59.4503C90.8826 59.4503 90.4472 59.5654 90.065 59.7957C89.6885 60.0204 89.3962 60.3405 89.1884 60.7562C88.9804 61.1718 88.8793 61.6493 88.8849 62.1885C88.8849 62.7221 88.9888 63.1967 89.1968 63.6124C89.4103 64.0224 89.7025 64.3426 90.0735 64.5729C90.4499 64.7976 90.8826 64.91 91.3715 64.91Z" fill="#0B0F19"/>
<path d="M98.7638 57.5376H96.2014L98.9746 66.8226H101.217L103.041 60.8923L105.01 66.8226H107.219L110 57.5376H107.682L106.105 63.3169L104.361 57.5376H102.119L100.383 63.4442L98.7638 57.5376Z" fill="#0B0F19"/>
</svg>
