<?xml version="1.0" encoding="UTF-8"?>
<svg id="Ebene_2" data-name="Ebene 2" xmlns="http://www.w3.org/2000/svg" xmlns:xlink="http://www.w3.org/1999/xlink" viewBox="0 0 727.25 102.96">
  <defs>
    <style>
      .cls-1 {
        fill: url(#linear-gradient-2);
      }

      .cls-2 {
        fill: #fff;
      }

      .cls-3 {
        fill: #ff2c55;
      }

      .cls-4, .cls-5, .cls-6 {
        fill: none;
      }

      .cls-5 {
        clip-path: url(#clippath);
      }

      .cls-6 {
        opacity: .3;
      }

      .cls-7 {
        fill: url(#linear-gradient);
      }

      .cls-8 {
        fill: #231f20;
      }
    </style>
    <linearGradient id="linear-gradient" x1="36.96" y1="84.48" x2="165.54" y2="-41.11" gradientUnits="userSpaceOnUse">
      <stop offset="0" stop-color="#2e77fa"/>
      <stop offset=".5" stop-color="#d738ff"/>
      <stop offset=".73" stop-color="#ea32ab"/>
      <stop offset=".91" stop-color="#f92d6d"/>
      <stop offset="1" stop-color="#ff2c55"/>
    </linearGradient>
    <clipPath id="clippath">
      <path class="cls-4" d="m181.22,0h-86.84c-2.34,0-4.5,1.26-5.66,3.29l-12.54,22.01L63.62,3.28c-1.16-2.03-3.32-3.28-5.66-3.28H12.11C7.11,0,3.98,5.4,6.46,9.74l50.61,88.75c1.16,2.03,3.32,3.29,5.66,3.29h18.87c2.34,0,4.5-1.25,5.66-3.29l9.53-16.71,9.53,16.71c1.16,2.03,3.32,3.29,5.66,3.29h18.65c2.34,0,4.5-1.25,5.66-3.29L186.88,9.74c2.48-4.34-.66-9.74-5.66-9.74Zm-109.41,31.32l-8.02,13.88c-1.08,1.87-3.79,1.87-4.87,0L38.26,9.43c-1.08-1.88.27-4.22,2.44-4.22h16.03c1,0,1.93.54,2.44,1.41l12.64,21.89c.5.87.5,1.94,0,2.81Zm16.34,55.83c-1.08,1.87-3.79,1.88-4.87,0l-8.04-13.87c-.5-.87-.51-1.94,0-2.82L112.09,6.62c.5-.87,1.43-1.41,2.44-1.41h16.03c2.17,0,3.52,2.34,2.44,4.22l-44.85,77.71ZM181.49,9.43l-44.85,77.71c-1.08,1.87-3.79,1.88-4.87,0l-8.04-13.87c-.5-.87-.51-1.94,0-2.82L160.58,6.62c.5-.87,1.43-1.41,2.44-1.41h16.03c2.17,0,3.52,2.34,2.44,4.22Z"/>
    </clipPath>
    <linearGradient id="linear-gradient-2" x1=".67" y1="51.93" x2="192.01" y2="48.83" xlink:href="#linear-gradient"/>
  </defs>
  <g id="Layer_1" data-name="Layer 1">
    <g>
      <g>
        <path class="cls-7" d="m181.22,0h-86.84c-2.34,0-4.5,1.26-5.66,3.29l-12.54,22.01L63.62,3.28c-1.16-2.03-3.32-3.28-5.66-3.28H12.11C7.11,0,3.98,5.4,6.46,9.74l50.61,88.75c1.16,2.03,3.32,3.29,5.66,3.29h18.87c2.34,0,4.5-1.25,5.66-3.29l9.53-16.71,9.53,16.71c1.16,2.03,3.32,3.29,5.66,3.29h18.65c2.34,0,4.5-1.25,5.66-3.29L186.88,9.74c2.48-4.34-.66-9.74-5.66-9.74Zm-109.41,31.32l-8.02,13.88c-1.08,1.87-3.79,1.87-4.87,0L38.26,9.43c-1.08-1.88.27-4.22,2.44-4.22h16.03c1,0,1.93.54,2.44,1.41l12.64,21.89c.5.87.5,1.94,0,2.81Zm16.34,55.83c-1.08,1.87-3.79,1.88-4.87,0l-8.04-13.87c-.5-.87-.51-1.94,0-2.82L112.09,6.62c.5-.87,1.43-1.41,2.44-1.41h16.03c2.17,0,3.52,2.34,2.44,4.22l-44.85,77.71ZM181.49,9.43l-44.85,77.71c-1.08,1.87-3.79,1.88-4.87,0l-8.04-13.87c-.5-.87-.51-1.94,0-2.82L160.58,6.62c.5-.87,1.43-1.41,2.44-1.41h16.03c2.17,0,3.52,2.34,2.44,4.22Z"/>
        <g class="cls-6">
          <g class="cls-5">
            <path class="cls-8" d="m193.51,46.51c-.05-.42-.19-.78-.31-1.16-.13-.34-.28-.68-.45-.98-.69-1.17-1.48-1.89-2.22-2.46-.74-.56-1.47-.98-2.19-1.34-1.44-.71-2.83-1.2-4.22-1.6-2.22-.63-4.41-1.08-6.6-1.41l-1.93,3.62c2.35.83,4.69,1.71,6.84,2.79,1.15.57,2.25,1.19,3.2,1.86.46.34.87.68,1.19,1.02.09.1.17.19.23.27,0,0-.01,0-.03.01-.04.03-.03.04-.09.08-.06.05-.13.1-.18.15-.52.45-1.51,1.02-2.54,1.49-2.12.96-4.56,1.74-7.04,2.38-2.56.66-5.18,1.22-7.84,1.71-2.51.46-5.04.87-7.58,1.26-10.46,1.52-21.07,2.53-31.69,3.29-5.32.36-10.64.74-15.97.96-5.32.27-10.65.52-15.98.66-5.33.19-10.68.3-16.01.34-5.33.11-10.66.08-15.99.04-10.65-.08-21.3-.42-31.86-1.22-2.84-.22-5.66-.48-8.48-.81-2.4-.29-4.79-.61-7.16-1.01-2.56-.42-5.06-.97-7.43-1.68-1.16-.34-2.3-.75-3.26-1.23-.47-.23-.92-.48-1.23-.71-.33-.22-.51-.42-.55-.38-.01.03-.06.41-.13.37-.06-.01.04-.33.31-.67.52-.71,1.5-1.49,2.51-2.19,2.07-1.41,4.49-2.57,6.92-3.67,1.1-.48,2.21-.94,3.32-1.39l-1.5-2.81c-.96.16-1.9.36-2.86.57-2.72.6-5.42,1.35-8.16,2.55-1.38.61-2.76,1.34-4.18,2.62-.69.66-1.44,1.5-1.97,2.84-.27.66-.42,1.48-.41,2.28.01.82.18,1.64.45,2.28.54,1.35,1.29,2.23,1.99,2.94.7.72,1.41,1.24,2.1,1.73,1.39.94,2.75,1.65,4.12,2.3,2.31,1.08,14.78,2.83,21.73,3.91,1.18.18,2.19.34,2.98.48,10.87,1.89,21.77,2.91,32.68,3.51,5.46.29,10.92.41,16.36.49,5.46.03,10.91-.04,16.35-.19,5.46-.19,10.91-.46,16.34-.85,5.45-.41,10.88-.89,16.31-1.53,5.43-.66,10.85-1.37,16.26-2.32,5.41-.92,10.8-2.01,16.19-3.32.13-.03.29-.07.5-.12h.01c3.92-.94,20.46-4.97,23.27-6.43,1.34-.89,2.7-1.82,4.05-3.44.35-.42.68-.85.98-1.45.32-.51.58-1.26.75-1.98.14-.78.23-1.64.08-2.45Zm-6.4.71c.14.18.19.31.18.37-.01.08-.18-.19-.18-.37Z"/>
          </g>
        </g>
        <path class="cls-1" d="m193.51,42.21c-.05-.42-.19-.78-.31-1.16-.13-.34-.28-.68-.45-.98-.69-1.17-1.48-1.89-2.22-2.46-.74-.56-1.47-.98-2.19-1.34-1.44-.71-2.83-1.2-4.22-1.6-2.22-.63-4.41-1.08-6.6-1.41l-1.93,3.62c2.35.83,4.69,1.71,6.84,2.79,1.15.57,2.25,1.19,3.2,1.86.46.34.87.68,1.19,1.02.09.1.17.19.23.27,0,0-.01,0-.03.01-.04.03-.03.04-.09.08-.06.05-.13.1-.18.15-.52.45-1.51,1.02-2.54,1.49-2.12.96-4.56,1.74-7.04,2.38-2.56.66-5.18,1.22-7.84,1.71-2.51.46-5.04.87-7.58,1.26-10.46,1.52-21.07,2.53-31.69,3.29-5.32.36-10.64.74-15.97.96-5.32.27-10.65.52-15.98.66-5.33.19-10.68.3-16.01.34-5.33.11-10.66.08-15.99.04-10.65-.08-21.3-.42-31.86-1.22-2.84-.22-5.66-.48-8.48-.81-2.4-.29-4.79-.61-7.16-1.01-2.56-.42-5.06-.97-7.43-1.68-1.16-.34-2.3-.75-3.26-1.23-.47-.23-.92-.48-1.23-.71-.33-.22-.51-.42-.55-.38-.01.03-.06.41-.13.37-.06-.01.04-.33.31-.67.52-.71,1.5-1.49,2.51-2.19,2.07-1.41,4.49-2.57,6.92-3.67,1.1-.48,2.21-.94,3.32-1.39l-1.5-2.81c-.96.16-1.9.36-2.86.57-2.72.6-5.42,1.35-8.16,2.55-1.38.61-2.76,1.34-4.18,2.62-.69.66-1.44,1.5-1.97,2.84-.27.66-.42,1.48-.41,2.28.01.82.18,1.64.45,2.28.54,1.35,1.29,2.23,1.99,2.94.7.72,1.41,1.24,2.1,1.73,1.39.94,2.75,1.65,4.12,2.3,2.31,1.08,14.78,2.83,21.73,3.91,1.18.18,2.19.34,2.98.48,10.87,1.89,21.77,2.91,32.68,3.51,5.46.29,10.92.41,16.36.49,5.46.03,10.91-.04,16.35-.19,5.46-.19,10.91-.46,16.34-.85,5.45-.41,10.88-.89,16.31-1.53,5.43-.66,10.85-1.37,16.26-2.32,5.41-.92,10.8-2.01,16.19-3.32.13-.03.29-.07.5-.12h.01c3.92-.94,20.46-4.97,23.27-6.43,1.34-.89,2.7-1.82,4.05-3.44.35-.42.68-.85.98-1.45.32-.51.58-1.26.75-1.98.14-.78.23-1.64.08-2.45Zm-6.4.71c.14.18.19.31.18.37-.01.08-.18-.19-.18-.37Z"/>
      </g>
      <g>
        <path class="cls-2" d="m256.72,22.83l10.79,37.07,11.29-37.07h13.49l-17.19,49.56h-14.19l-5.1-14.59-4.4-16.49-4.4,16.49-5.1,14.59h-14.19l-17.29-49.56h13.59l11.29,37.07,10.69-37.07h10.69Z"/>
        <path class="cls-2" d="m392.21,22.83l10.79,37.07,11.29-37.07h13.49l-17.19,49.56h-14.19l-5.1-14.59-4.4-16.49-4.4,16.49-5.1,14.59h-14.19l-17.29-49.56h13.59l11.29,37.07,10.69-37.07h10.69Z"/>
        <path class="cls-2" d="m484.56,2.34v69.84h-11.39l-.8-6.79c-3.8,5.9-9.89,7.89-15.89,7.89-14.49,0-25.38-9.59-25.38-25.78,0-16.99,10.69-25.78,25.08-25.78,5.2,0,13.29,2.8,16.19,7.89V2.34h12.19Zm-41.27,45.16c0,8.59,6.19,14.49,13.99,14.49s14.29-5.6,14.29-14.49-6.59-14.39-14.29-14.39-13.99,5.5-13.99,14.39Z"/>
        <path class="cls-2" d="m583.56,36.02c-3.5-3.3-7.49-4.4-12.19-4.4-5.8,0-8.99,1.8-8.99,4.9s2.9,5,9.19,5.4c9.29.6,21.08,2.7,21.08,15.79,0,8.69-7.09,16.19-21.18,16.19-7.79,0-15.59-1.3-22.78-8.79l5.99-8.69c3.5,3.9,11.49,6.79,16.99,6.89,4.6.1,8.89-2.3,8.89-5.9,0-3.4-2.8-4.8-9.79-5.2-9.29-.7-20.38-4.1-20.38-15.29s11.79-15.39,20.78-15.39c7.69,0,13.49,1.5,19.18,6.49l-6.79,7.99Z"/>
        <path class="cls-2" d="m600.44,22.73v49.46h12.2V22.73h-12.2Z"/>
        <path class="cls-3" d="m613.73,9.04c0,9.5-14.38,9.5-14.38,0s14.38-9.5,14.38,0Z"/>
        <path class="cls-2" d="m662.3,17.93l8.99,6.79-5.49,6.99c3.8,4.3,5.2,9.19,5.2,14.59,0,6.09-2.3,14.69-10.39,18.38,8.19,4.1,10.19,9.99,10.19,16.29,0,13.59-10.39,21.98-24.68,21.98s-24.98-8.69-24.98-21.98h12.09c0,6.39,5.89,10.59,12.89,10.59s12.49-3.8,12.49-10.59-6.39-9.89-12.49-9.89c-15.39,0-24.98-9.39-24.98-24.78s11.19-24.98,24.98-24.98c3.9,0,7.89.5,11.29,2.8l4.9-6.19Zm-29.08,28.38c0,8.59,5.8,13.69,12.89,13.69s12.79-5.2,12.79-13.69-5.8-13.89-12.79-13.89-12.89,5.3-12.89,13.89Z"/>
        <path class="cls-2" d="m319.69,21.98c-14.16,0-25.63,11.47-25.63,25.63s11.47,25.63,25.63,25.63,25.63-11.47,25.63-25.63-11.47-25.63-25.63-25.63Zm0,40.44c-8.18,0-14.81-6.62-14.81-14.81s6.64-14.81,14.81-14.81,14.81,6.64,14.81,14.81-6.62,14.81-14.81,14.81Z"/>
        <path class="cls-2" d="m542.65,47.61c0-1.99-.23-3.93-.67-5.8-2.63-11.36-12.79-19.83-24.96-19.83s-22.33,8.47-24.96,19.83c-.44,1.87-.67,3.81-.67,5.8,0,1.46.12,2.91.36,4.31,2.05,12.11,12.59,21.32,25.27,21.32,7.82,0,14.81-3.5,19.52-9.01l-8.91-6.28c-2.69,2.77-6.45,4.48-10.62,4.48-6.68,0-12.33-4.41-14.17-10.51h39.45c.23-1.4.36-2.84.36-4.31Zm-39.26-5.8c2.25-5.3,7.51-9.01,13.63-9.01s11.38,3.71,13.63,9.01h-27.26Z"/>
        <path class="cls-2" d="m727.25,45.9v26.27h-12.2v-26.27c0-6.73-5.45-12.18-12.18-12.18h0c-6.73,0-12.18,5.45-12.18,12.18v26.27h-12.2v-26.27c0-13.46,10.91-24.38,24.38-24.38h0c13.46,0,24.38,10.91,24.38,24.38Z"/>
      </g>
    </g>
  </g>
</svg>