<svg width="194" height="102" viewBox="0 0 194 102" fill="none" xmlns="http://www.w3.org/2000/svg">
<path d="M181.23 0H94.3904C92.0504 0 89.8904 1.26 88.7304 3.29L76.1904 25.3L63.6304 3.28C62.4704 1.25 60.3104 0 57.9704 0H12.1204C7.12043 0 3.99043 5.4 6.47043 9.74L57.0804 98.49C58.2404 100.52 60.4004 101.78 62.7404 101.78H81.6104C83.9504 101.78 86.1104 100.53 87.2704 98.49L96.8004 81.78L106.33 98.49C107.49 100.52 109.65 101.78 111.99 101.78H130.64C132.98 101.78 135.14 100.53 136.3 98.49L186.89 9.74C189.37 5.4 186.23 0 181.23 0ZM71.8204 31.32L63.8004 45.2C62.7204 47.07 60.0104 47.07 58.9304 45.2L38.2704 9.43C37.1904 7.55 38.5404 5.21 40.7104 5.21H56.7404C57.7404 5.21 58.6704 5.75 59.1804 6.62L71.8204 28.51C72.3204 29.38 72.3204 30.45 71.8204 31.32ZM88.1604 87.15C87.0804 89.02 84.3704 89.03 83.2904 87.15L75.2504 73.28C74.7504 72.41 74.7404 71.34 75.2504 70.46L112.1 6.62C112.6 5.75 113.53 5.21 114.54 5.21H130.57C132.74 5.21 134.09 7.55 133.01 9.43L88.1604 87.14V87.15ZM181.5 9.43L136.65 87.14C135.57 89.01 132.86 89.02 131.78 87.14L123.74 73.27C123.24 72.4 123.23 71.33 123.74 70.45L160.59 6.62C161.09 5.75 162.02 5.21 163.03 5.21H179.06C181.23 5.21 182.58 7.55 181.5 9.43Z" fill="url(#paint0_linear_4092_390)"/>
<g opacity="0.3">
<mask id="mask0_4092_390" style="mask-type:luminance" maskUnits="userSpaceOnUse" x="5" y="0" width="183" height="102">
<path d="M181.23 0H94.3904C92.0504 0 89.8904 1.26 88.7304 3.29L76.1904 25.3L63.6304 3.28C62.4704 1.25 60.3104 0 57.9704 0H12.1204C7.12043 0 3.99043 5.4 6.47043 9.74L57.0804 98.49C58.2404 100.52 60.4004 101.78 62.7404 101.78H81.6104C83.9504 101.78 86.1104 100.53 87.2704 98.49L96.8004 81.78L106.33 98.49C107.49 100.52 109.65 101.78 111.99 101.78H130.64C132.98 101.78 135.14 100.53 136.3 98.49L186.89 9.74C189.37 5.4 186.23 0 181.23 0ZM71.8204 31.32L63.8004 45.2C62.7204 47.07 60.0104 47.07 58.9304 45.2L38.2704 9.43C37.1904 7.55 38.5404 5.21 40.7104 5.21H56.7404C57.7404 5.21 58.6704 5.75 59.1804 6.62L71.8204 28.51C72.3204 29.38 72.3204 30.45 71.8204 31.32ZM88.1604 87.15C87.0804 89.02 84.3704 89.03 83.2904 87.15L75.2504 73.28C74.7504 72.41 74.7404 71.34 75.2504 70.46L112.1 6.62C112.6 5.75 113.53 5.21 114.54 5.21H130.57C132.74 5.21 134.09 7.55 133.01 9.43L88.1604 87.14V87.15ZM181.5 9.43L136.65 87.14C135.57 89.01 132.86 89.02 131.78 87.14L123.74 73.27C123.24 72.4 123.23 71.33 123.74 70.45L160.59 6.62C161.09 5.75 162.02 5.21 163.03 5.21H179.06C181.23 5.21 182.58 7.55 181.5 9.43Z" fill="white"/>
</mask>
<g mask="url(#mask0_4092_390)">
<path d="M193.52 46.5101C193.47 46.0901 193.33 45.7301 193.21 45.3501C193.08 45.0101 192.93 44.6701 192.76 44.3701C192.07 43.2001 191.28 42.4801 190.54 41.9101C189.8 41.3501 189.07 40.9301 188.35 40.5701C186.91 39.8601 185.52 39.3701 184.13 38.9701C181.91 38.3401 179.72 37.8901 177.53 37.5601L175.6 41.1801C177.95 42.0101 180.29 42.8901 182.44 43.9701C183.59 44.5401 184.69 45.1601 185.64 45.8301C186.1 46.1701 186.51 46.5101 186.83 46.8501C186.92 46.9501 187 47.0401 187.06 47.1201C187.06 47.1201 187.05 47.1201 187.03 47.1301C186.99 47.1601 187 47.1701 186.94 47.2101C186.88 47.2601 186.81 47.3101 186.76 47.3601C186.24 47.8101 185.25 48.3801 184.22 48.8501C182.1 49.8101 179.66 50.5901 177.18 51.2301C174.62 51.8901 172 52.4501 169.34 52.9401C166.83 53.4001 164.3 53.8101 161.76 54.2001C151.3 55.7201 140.69 56.7301 130.07 57.4901C124.75 57.8501 119.43 58.2301 114.1 58.4501C108.78 58.7201 103.45 58.9701 98.1205 59.1101C92.7905 59.3001 87.4405 59.4101 82.1105 59.4501C76.7805 59.5601 71.4505 59.5301 66.1205 59.4901C55.4705 59.4101 44.8205 59.0701 34.2605 58.2701C31.4205 58.0501 28.6005 57.7901 25.7805 57.4601C23.3805 57.1701 20.9905 56.8501 18.6205 56.4501C16.0605 56.0301 13.5605 55.4801 11.1905 54.7701C10.0305 54.4301 8.89047 54.0201 7.93047 53.5401C7.46047 53.3101 7.01047 53.0601 6.70047 52.8301C6.37047 52.6101 6.19047 52.4101 6.15047 52.4501C6.14047 52.4801 6.09047 52.8601 6.02047 52.8201C5.96047 52.8101 6.06047 52.4901 6.33047 52.1501C6.85047 51.4401 7.83047 50.6601 8.84047 49.9601C10.9105 48.5501 13.3305 47.3901 15.7605 46.2901C16.8605 45.8101 17.9705 45.3501 19.0805 44.9001L17.5805 42.0901C16.6205 42.2501 15.6805 42.4501 14.7205 42.6601C12.0005 43.2601 9.30047 44.0101 6.56047 45.2101C5.18047 45.8201 3.80047 46.5501 2.38047 47.8301C1.69047 48.4901 0.94047 49.3301 0.41047 50.6701C0.14047 51.3301 -0.00953002 52.1501 0.000469978 52.9501C0.01047 53.7701 0.18047 54.5901 0.45047 55.2301C0.99047 56.5801 1.74047 57.4601 2.44047 58.1701C3.14047 58.8901 3.85047 59.4101 4.54047 59.9001C5.93047 60.8401 7.29047 61.5501 8.66047 62.2001C10.9705 63.2801 23.4405 65.0301 30.3905 66.1101C31.5705 66.2901 32.5805 66.4501 33.3705 66.5901C44.2405 68.4801 55.1405 69.5001 66.0505 70.1001C71.5105 70.3901 76.9705 70.5101 82.4105 70.5901C87.8705 70.6201 93.3205 70.5501 98.7605 70.4001C104.22 70.2101 109.67 69.9401 115.1 69.5501C120.55 69.1401 125.98 68.6601 131.41 68.0201C136.84 67.3601 142.26 66.6501 147.67 65.7001C153.08 64.7801 158.47 63.6901 163.86 62.3801C163.99 62.3501 164.15 62.3101 164.36 62.2601H164.37C168.29 61.3201 184.83 57.2901 187.64 55.8301C188.98 54.9401 190.34 54.0101 191.69 52.3901C192.04 51.9701 192.37 51.5401 192.67 50.9401C192.99 50.4301 193.25 49.6801 193.42 48.9601C193.56 48.1801 193.65 47.3201 193.5 46.5101H193.52ZM187.12 47.2201C187.26 47.4001 187.31 47.5301 187.3 47.5901C187.29 47.6701 187.12 47.4001 187.12 47.2201Z" fill="#231F20"/>
</g>
</g>
<path d="M193.52 42.2098C193.47 41.7898 193.33 41.4298 193.21 41.0498C193.08 40.7098 192.93 40.3698 192.76 40.0698C192.07 38.8998 191.28 38.1798 190.54 37.6098C189.8 37.0498 189.07 36.6298 188.35 36.2698C186.91 35.5598 185.52 35.0698 184.13 34.6698C181.91 34.0398 179.72 33.5898 177.53 33.2598L175.6 36.8798C177.95 37.7098 180.29 38.5898 182.44 39.6698C183.59 40.2398 184.69 40.8598 185.64 41.5298C186.1 41.8698 186.51 42.2098 186.83 42.5498C186.92 42.6498 187 42.7398 187.06 42.8198C187.06 42.8198 187.05 42.8198 187.03 42.8298C186.99 42.8598 187 42.8698 186.94 42.9098C186.88 42.9598 186.81 43.0098 186.76 43.0598C186.24 43.5098 185.25 44.0798 184.22 44.5498C182.1 45.5098 179.66 46.2898 177.18 46.9298C174.62 47.5898 172 48.1498 169.34 48.6398C166.83 49.0998 164.3 49.5098 161.76 49.8998C151.3 51.4198 140.69 52.4298 130.07 53.1898C124.75 53.5498 119.43 53.9298 114.1 54.1498C108.78 54.4198 103.45 54.6698 98.1205 54.8098C92.7905 54.9998 87.4405 55.1098 82.1105 55.1498C76.7805 55.2598 71.4505 55.2298 66.1205 55.1898C55.4705 55.1098 44.8205 54.7698 34.2605 53.9698C31.4205 53.7498 28.6005 53.4898 25.7805 53.1598C23.3805 52.8698 20.9905 52.5498 18.6205 52.1498C16.0605 51.7298 13.5605 51.1798 11.1905 50.4698C10.0305 50.1298 8.89047 49.7198 7.93047 49.2398C7.46047 49.0098 7.01047 48.7598 6.70047 48.5298C6.37047 48.3098 6.19047 48.1098 6.15047 48.1498C6.14047 48.1798 6.09047 48.5598 6.02047 48.5198C5.96047 48.5098 6.06047 48.1898 6.33047 47.8498C6.85047 47.1398 7.83047 46.3598 8.84047 45.6598C10.9105 44.2498 13.3305 43.0898 15.7605 41.9898C16.8605 41.5098 17.9705 41.0498 19.0805 40.5998L17.5805 37.7898C16.6205 37.9498 15.6805 38.1498 14.7205 38.3598C12.0005 38.9598 9.30047 39.7098 6.56047 40.9098C5.18047 41.5198 3.80047 42.2498 2.38047 43.5298C1.69047 44.1898 0.94047 45.0298 0.41047 46.3698C0.14047 47.0298 -0.00953002 47.8498 0.000469978 48.6498C0.01047 49.4698 0.18047 50.2898 0.45047 50.9298C0.99047 52.2798 1.74047 53.1598 2.44047 53.8698C3.14047 54.5898 3.85047 55.1098 4.54047 55.5998C5.93047 56.5398 7.29047 57.2498 8.66047 57.8998C10.9705 58.9798 23.4405 60.7298 30.3905 61.8098C31.5705 61.9898 32.5805 62.1498 33.3705 62.2898C44.2405 64.1798 55.1405 65.1998 66.0505 65.7998C71.5105 66.0898 76.9705 66.2098 82.4105 66.2898C87.8705 66.3198 93.3205 66.2498 98.7605 66.0998C104.22 65.9098 109.67 65.6398 115.1 65.2498C120.55 64.8398 125.98 64.3598 131.41 63.7198C136.84 63.0598 142.26 62.3498 147.67 61.3998C153.08 60.4798 158.47 59.3898 163.86 58.0798C163.99 58.0498 164.15 58.0098 164.36 57.9598H164.37C168.29 57.0198 184.83 52.9898 187.64 51.5298C188.98 50.6398 190.34 49.7098 191.69 48.0898C192.04 47.6698 192.37 47.2398 192.67 46.6398C192.99 46.1298 193.25 45.3798 193.42 44.6598C193.56 43.8798 193.65 43.0198 193.5 42.2098H193.52ZM187.12 42.9198C187.26 43.0998 187.31 43.2298 187.3 43.2898C187.29 43.3698 187.12 43.0998 187.12 42.9198Z" fill="url(#paint1_linear_4092_390)"/>
<defs>
<linearGradient id="paint0_linear_4092_390" x1="36.9704" y1="84.48" x2="165.55" y2="-41.11" gradientUnits="userSpaceOnUse">
<stop stop-color="#2E77FA"/>
<stop offset="0.5" stop-color="#D738FF"/>
<stop offset="0.73" stop-color="#EA32AB"/>
<stop offset="0.91" stop-color="#F92D6D"/>
<stop offset="1" stop-color="#FF2C55"/>
</linearGradient>
<linearGradient id="paint1_linear_4092_390" x1="0.68047" y1="51.9298" x2="192.02" y2="48.8298" gradientUnits="userSpaceOnUse">
<stop stop-color="#2E77FA"/>
<stop offset="0.5" stop-color="#D738FF"/>
<stop offset="0.73" stop-color="#EA32AB"/>
<stop offset="0.91" stop-color="#F92D6D"/>
<stop offset="1" stop-color="#FF2C55"/>
</linearGradient>
</defs>
</svg>
