<svg width="120" height="120" viewBox="0 0 120 120" fill="none" xmlns="http://www.w3.org/2000/svg">
<circle cx="60" cy="60" r="59" fill="#B4BBC6" stroke="#94A3B8" stroke-width="2"/>
<path d="M11 72V62.0833L28.285 48V58.1984L11 72ZM14.1252 59.3113L11 57.5663V48L14.1252 49.8343V59.3113ZM37.905 59.4899L33.8161 48.5393H38.5658L40.6722 55.8592L45.601 48.5393H51.1321L42.4448 59.5311L41.0405 66.1503H36.4938L37.905 59.4899ZM55.2485 48.5393H59.9088L62.7965 66.1503H58.1707L57.7507 63.0004H51.5313L49.7519 66.1503H44.9092L55.2485 48.5393ZM53.297 59.5792H57.3549L56.6666 53.2486H56.6356L53.297 59.5792ZM67.5428 48.5393H76.2025C78.0382 48.5393 79.3908 48.8301 80.2605 49.4118C81.3412 50.1308 81.8828 51.3605 81.885 53.1009C81.885 56 80.5416 57.6396 77.8546 58.0198V58.0507C79.0593 58.3484 79.6605 59.3285 79.6582 60.991C79.6582 61.4513 79.6582 62.0215 79.6134 62.7462C79.5687 63.471 79.5687 63.9691 79.5687 64.292C79.5687 65.2091 79.6582 65.8308 79.8406 66.1503H75.2113C75.1288 65.8262 75.078 65.4949 75.0598 65.161C75.0598 64.8793 75.0805 64.4053 75.1184 63.7355C75.1562 63.0657 75.1803 62.5195 75.1803 62.1005C75.1803 60.5204 74.4174 59.7304 72.8915 59.7304H69.8213L68.479 66.1503H63.8773L67.5428 48.5393ZM70.5441 56.3401H74.2063C76.2714 56.3401 77.3039 55.5306 77.3039 53.9115C77.3039 52.6887 76.4756 52.0784 74.8189 52.0807H71.4321L70.5441 56.3401ZM85.6883 48.5393H92.2967C97.5443 48.5393 100.169 51.0193 100.172 55.9794C100.172 58.8991 99.3307 61.2795 97.6488 63.1207C95.7833 65.1404 93.1789 66.1503 89.8357 66.1503H81.9195L85.6883 48.5393ZM87.4092 62.2207H90.4449C92.2278 62.2207 93.5805 61.5337 94.5029 60.1597C95.2371 59.038 95.6138 57.7208 95.5836 56.3813C95.5676 53.7707 94.3973 52.4654 92.0729 52.4654H89.4296L87.4092 62.2207ZM104.391 48.5393H109L105.331 66.1503H100.695L104.391 48.5393Z" fill="#0B0F19"/>
</svg>
