<svg width="120" height="120" viewBox="0 0 120 120" fill="none" xmlns="http://www.w3.org/2000/svg">
<circle cx="60" cy="60" r="59" fill="#B4BBC6" stroke="#94A3B8" stroke-width="2"/>
<path d="M34.0134 65.1975L33.9997 65.1537L42.7133 57.1766V53.333H28.7337V57.1766H37.0838L37.0975 57.2134L28.469 65.1975V69.0412H42.8536V65.1975H34.0134Z" fill="#0B0F19"/>
<path d="M51.4344 52.9673C49.8219 52.9673 48.5077 53.2105 47.4918 53.6969C46.5457 54.1208 45.7486 54.8192 45.2041 55.7015C44.6833 56.5897 44.3562 57.5779 44.2445 58.6015L48.4862 59.1976C48.6396 58.2938 48.9466 57.6533 49.4068 57.2758C49.9301 56.881 50.5749 56.6815 51.2296 56.7119C52.0904 56.7119 52.7149 56.9421 53.1032 57.4024C53.4875 57.8627 53.6831 58.5002 53.6831 59.3403V59.7592H49.6047C47.5287 59.7592 46.0373 60.2195 45.1306 61.1401C44.2237 62.0607 43.7711 63.2759 43.7727 64.7857C43.7727 66.3324 44.2253 67.4832 45.1306 68.238C46.0357 68.993 47.1743 69.3681 48.5461 69.3634C50.2476 69.3634 51.5565 68.7782 52.4724 67.6075C53.0134 66.8879 53.3997 66.0644 53.6071 65.1885H53.7613L54.346 69.032H58.1896V59.2989C58.1896 57.2873 57.6594 55.7292 56.5993 54.6244C55.5389 53.5197 53.8174 52.9673 51.4344 52.9673ZM52.7786 64.9653C52.1686 65.4739 51.3701 65.7271 50.3758 65.7271C49.5563 65.7271 48.9871 65.5836 48.668 65.2967C48.5126 65.1609 48.3887 64.9926 48.3056 64.8037C48.2225 64.6147 48.182 64.4098 48.1871 64.2034C48.1778 64.0088 48.2086 63.8144 48.277 63.632C48.3454 63.4496 48.4503 63.283 48.5851 63.1424C48.731 63.0056 48.9031 62.8998 49.091 62.8314C49.279 62.763 49.4787 62.7333 49.6784 62.7443H53.69V63.0089C53.6982 63.3831 53.6202 63.7541 53.4622 64.0933C53.3041 64.4325 53.0702 64.7308 52.7786 64.9653Z" fill="#0B0F19"/>
<path d="M81.4291 53.333H76.8882V69.0433H81.4291V53.333Z" fill="#0B0F19"/>
<path d="M108.238 53.333C106.956 53.333 105.944 53.7856 105.205 54.6909C104.674 55.3415 104.27 56.3028 103.994 57.5748H103.861L103.267 53.333H99.3887V69.0412H103.93V60.9857C103.93 59.9699 104.168 59.1912 104.643 58.6496C105.119 58.108 105.996 57.8371 107.276 57.8371H109V53.333H108.238Z" fill="#0B0F19"/>
<path d="M94.887 53.847C93.8268 53.2163 92.4897 52.9018 90.8754 52.9033C88.3346 52.9033 86.346 53.6268 84.9099 55.0737C83.4736 56.5206 82.7556 58.5153 82.7556 61.0577C82.719 62.5948 83.0545 64.118 83.7337 65.4974C84.3554 66.7266 85.3237 67.7468 86.5187 68.4318C87.7215 69.127 89.1524 69.4753 90.8109 69.4767C92.2456 69.4767 93.444 69.2558 94.406 68.814C95.3105 68.4171 96.0981 67.795 96.6937 67.0073C97.2609 66.2338 97.6821 65.3634 97.9366 64.4387L94.024 63.3431C93.8593 63.9444 93.5422 64.493 93.1033 64.9358C92.6614 65.3777 91.9211 65.5987 90.8823 65.5987C89.6473 65.5987 88.7266 65.245 88.1204 64.5376C87.681 64.0267 87.4048 63.2971 87.2827 62.3512H97.9965C98.0402 61.9093 98.0632 61.5387 98.0632 61.2395V60.2614C98.089 58.9473 97.8176 57.6444 97.2692 56.45C96.7558 55.362 95.9254 54.4546 94.887 53.847ZM90.7443 56.6479C92.5855 56.6479 93.6296 57.554 93.8766 59.3661H87.3633C87.4667 58.7614 87.7172 58.1915 88.093 57.7067C88.6898 56.9993 89.5736 56.6464 90.7443 56.6479Z" fill="#0B0F19"/>
<path d="M79.2072 47.0015C78.8656 46.9899 78.5251 47.047 78.206 47.1696C77.8869 47.2922 77.5959 47.4776 77.3499 47.7149C77.1074 47.9545 76.9173 48.2419 76.7917 48.5589C76.666 48.8759 76.6076 49.2154 76.6204 49.5562C76.608 49.8991 76.6666 50.2408 76.7923 50.5601C76.9181 50.8794 77.1082 51.1693 77.3509 51.4118C77.5937 51.6543 77.8838 51.8442 78.2031 51.9696C78.5226 52.0951 78.8644 52.1533 79.2072 52.1408C79.5478 52.1536 79.8877 52.0954 80.2046 51.9698C80.5216 51.8442 80.8089 51.6539 81.0484 51.4112C81.286 51.1659 81.4714 50.8751 81.5935 50.5563C81.7158 50.2375 81.7723 49.8973 81.7595 49.5562C81.7752 49.217 81.7201 48.8783 81.5974 48.5617C81.4749 48.245 81.2877 47.9574 81.0478 47.7173C80.8077 47.4771 80.5204 47.2896 80.2039 47.1667C79.8873 47.0439 79.5486 46.9884 79.2095 47.0038L79.2072 47.0015Z" fill="#0B0F19"/>
<path d="M69.8278 52.9033C68.2814 52.9033 67.0385 53.3889 66.0995 54.3602C65.4043 55.0798 64.8943 56.1539 64.5689 57.5823H64.4239L63.8302 53.3406H59.9519V73.5574H64.4929V65.2304H64.6587C64.7973 65.7856 64.9915 66.3254 65.2387 66.8414C65.6228 67.6821 66.2528 68.3867 67.0454 68.8622C67.8672 69.3107 68.7929 69.5339 69.7289 69.509C71.6301 69.509 73.0777 68.7687 74.0721 67.2879C75.0662 65.8073 75.5634 63.7413 75.5634 61.0899C75.5634 58.5291 75.0824 56.5244 74.1203 55.076C73.1583 53.6275 71.7275 52.9033 69.8278 52.9033ZM70.2882 64.2868C69.7588 65.0539 68.9303 65.4375 67.8026 65.4375C67.3376 65.459 66.8741 65.3694 66.4507 65.1761C66.0272 64.9827 65.6559 64.6913 65.3676 64.3259C64.7798 63.5879 64.4868 62.5775 64.4884 61.2948V60.9956C64.4884 59.6929 64.7814 58.6955 65.3676 58.0035C65.9537 57.3116 66.7653 56.9694 67.8026 56.9771C68.9503 56.9771 69.7841 57.3415 70.3043 58.0703C70.8245 58.7991 71.0846 59.8156 71.0846 61.1198C71.0877 62.4685 70.8237 63.5242 70.2927 64.2868H70.2882Z" fill="#0B0F19"/>
<path d="M26.7104 65.1978H11V69.046H26.7104V65.1978Z" fill="#0B0F19"/>
</svg>
